%TF.GenerationSoftware,KiCad,Pcbnew,7.0.10*%
%TF.CreationDate,2024-06-11T23:21:08-07:00*%
%TF.ProjectId,NB002,4e423030-322e-46b6-9963-61645f706362,rev?*%
%TF.SameCoordinates,Original*%
%TF.FileFunction,Copper,L2,Bot*%
%TF.FilePolarity,Positive*%
%FSLAX46Y46*%
G04 Gerber Fmt 4.6, Leading zero omitted, Abs format (unit mm)*
G04 Created by KiCad (PCBNEW 7.0.10) date 2024-06-11 23:21:08*
%MOMM*%
%LPD*%
G01*
G04 APERTURE LIST*
%TA.AperFunction,ComponentPad*%
%ADD10R,2.200000X2.200000*%
%TD*%
%TA.AperFunction,ComponentPad*%
%ADD11O,2.200000X2.200000*%
%TD*%
%TA.AperFunction,ComponentPad*%
%ADD12R,1.700000X1.700000*%
%TD*%
%TA.AperFunction,ComponentPad*%
%ADD13O,1.700000X1.700000*%
%TD*%
%TA.AperFunction,ComponentPad*%
%ADD14C,1.320800*%
%TD*%
%TA.AperFunction,ComponentPad*%
%ADD15C,1.600000*%
%TD*%
%TA.AperFunction,ComponentPad*%
%ADD16O,1.600000X1.600000*%
%TD*%
%TA.AperFunction,ComponentPad*%
%ADD17C,1.905000*%
%TD*%
%TA.AperFunction,ComponentPad*%
%ADD18C,1.524000*%
%TD*%
%TA.AperFunction,ViaPad*%
%ADD19C,0.800000*%
%TD*%
%TA.AperFunction,Conductor*%
%ADD20C,0.500000*%
%TD*%
%TA.AperFunction,Conductor*%
%ADD21C,0.250000*%
%TD*%
G04 APERTURE END LIST*
D10*
%TO.P,D1,1,K*%
%TO.N,Net-(D1-K)*%
X117600000Y-107880000D03*
D11*
%TO.P,D1,2,A*%
%TO.N,Net-(D1-A)*%
X117600000Y-97720000D03*
%TD*%
D12*
%TO.P,SW2,1*%
%TO.N,unconnected-(U4-D1-Pad2)*%
X118900000Y-135225000D03*
D13*
%TO.P,SW2,2*%
%TO.N,unconnected-(U4-D2-Pad3)*%
X118900000Y-137765000D03*
%TD*%
D14*
%TO.P,SW1,1,A*%
%TO.N,Net-(B4-+)*%
X125324900Y-102600000D03*
%TO.P,SW1,2,B*%
%TO.N,Net-(HBridge1-VDD)*%
X125324900Y-100060000D03*
%TO.P,SW1,3,C*%
%TO.N,unconnected-(SW1-C-Pad3)*%
X125324900Y-105140000D03*
%TD*%
D12*
%TO.P,U2,1,GND*%
%TO.N,Net-(D1-K)*%
X130000000Y-135260000D03*
D13*
%TO.P,U2,2,VDD*%
%TO.N,Net-(U2-VDD)*%
X132540000Y-135260000D03*
%TO.P,U2,3,SCL*%
%TO.N,Net-(U2-SCL)*%
X130000000Y-137800000D03*
%TO.P,U2,4,SDA*%
%TO.N,Net-(U2-SDA)*%
X132540000Y-137800000D03*
%TD*%
D12*
%TO.P,B4,1,+*%
%TO.N,Net-(B4-+)*%
X126300000Y-135225000D03*
D13*
%TO.P,B4,2,-*%
%TO.N,Net-(B4--)*%
X126300000Y-137765000D03*
%TD*%
D15*
%TO.P,R4,1*%
%TO.N,Net-(U2-SCL)*%
X117025100Y-128800000D03*
D16*
%TO.P,R4,2*%
%TO.N,Net-(U2-VDD)*%
X124645100Y-128800000D03*
%TD*%
D17*
%TO.P,F1,1*%
%TO.N,Net-(D1-K)*%
X134120000Y-114490000D03*
%TO.P,F1,2*%
%TO.N,Net-(B4--)*%
X134120000Y-122110000D03*
%TD*%
D15*
%TO.P,R2,1*%
%TO.N,Net-(D2-A)*%
X126835100Y-128800000D03*
D16*
%TO.P,R2,2*%
%TO.N,Net-(U4-D0)*%
X134455100Y-128800000D03*
%TD*%
D12*
%TO.P,M1,1,+*%
%TO.N,Net-(HBridge1-Out1)*%
X122600000Y-135225000D03*
D13*
%TO.P,M1,2,-*%
%TO.N,Net-(HBridge1-Out2)*%
X122600000Y-137765000D03*
%TD*%
D10*
%TO.P,D2,1,K*%
%TO.N,Net-(D1-A)*%
X121700000Y-107880000D03*
D11*
%TO.P,D2,2,A*%
%TO.N,Net-(D2-A)*%
X121700000Y-97720000D03*
%TD*%
D15*
%TO.P,R1,1*%
%TO.N,Net-(HBridge1-VDD)*%
X117035100Y-131900000D03*
D16*
%TO.P,R1,2*%
%TO.N,Net-(U4-D0)*%
X124655100Y-131900000D03*
%TD*%
D18*
%TO.P,U4,0*%
%TO.N,N/C*%
X117957500Y-77830400D03*
%TO.P,U4,1,D0*%
%TO.N,Net-(U4-D0)*%
X117957500Y-80370400D03*
%TO.P,U4,2,D1*%
%TO.N,unconnected-(U4-D1-Pad2)*%
X117957500Y-82910400D03*
%TO.P,U4,3,D2*%
%TO.N,unconnected-(U4-D2-Pad3)*%
X117957500Y-85450400D03*
%TO.P,U4,3V3*%
%TO.N,Net-(U2-VDD)*%
X133257500Y-82910400D03*
%TO.P,U4,4,D3*%
%TO.N,Net-(U2-SDA)*%
X117957500Y-87990400D03*
%TO.P,U4,5,D4_SDA*%
%TO.N,Net-(U2-SCL)*%
X117957500Y-90530400D03*
%TO.P,U4,5V*%
%TO.N,N/C*%
X133257500Y-77830400D03*
%TO.P,U4,6,D5_SCL*%
X117957500Y-93070400D03*
%TO.P,U4,7,D6*%
%TO.N,Net-(U4-D6)*%
X133257500Y-93070400D03*
%TO.P,U4,8,D7*%
%TO.N,Net-(U4-D7)*%
X133257500Y-90530400D03*
%TO.P,U4,9,D8*%
%TO.N,unconnected-(U4-D8-Pad9)*%
X133257500Y-87990400D03*
%TO.P,U4,10,D9*%
%TO.N,Net-(HBridge1-In1)*%
X133257500Y-85450400D03*
%TO.P,U4,GND*%
%TO.N,Net-(D1-K)*%
X133257500Y-80370400D03*
%TD*%
D15*
%TO.P,R3,1*%
%TO.N,Net-(U2-VDD)*%
X134455100Y-131900000D03*
D16*
%TO.P,R3,2*%
%TO.N,Net-(U2-SDA)*%
X126835100Y-131900000D03*
%TD*%
D19*
%TO.N,Net-(B4-+)*%
X126600000Y-95800000D03*
X129700000Y-98000000D03*
X131400000Y-80500000D03*
%TO.N,Net-(D1-K)*%
X123400000Y-113600000D03*
X116400000Y-134800000D03*
X120800000Y-120300000D03*
X118300000Y-94800000D03*
X115900000Y-125000000D03*
X131100000Y-77000000D03*
X117400000Y-114000000D03*
X126400000Y-121200000D03*
X117400000Y-116400000D03*
X119000000Y-86700000D03*
X135200000Y-90600000D03*
X132600000Y-128800000D03*
X128400000Y-99300000D03*
X130500000Y-102400000D03*
X125100000Y-88500000D03*
X126400000Y-115700000D03*
X126800000Y-106700000D03*
X127100000Y-77400000D03*
X117900000Y-76000000D03*
X125200000Y-94500000D03*
X132900000Y-125700000D03*
X117200000Y-84200000D03*
X124400000Y-84300000D03*
X129400000Y-124400000D03*
X121700000Y-103800000D03*
X120600000Y-132100000D03*
X120600000Y-125500000D03*
X135100000Y-76000000D03*
X122500000Y-81100000D03*
X127700000Y-80700000D03*
X134800000Y-108600000D03*
X133800000Y-117400000D03*
X122800000Y-121000000D03*
X129400000Y-116700000D03*
X126400000Y-126000000D03*
X120800000Y-117300000D03*
X116700000Y-139600000D03*
X121000000Y-128900000D03*
X134800000Y-139600000D03*
X125400000Y-111500000D03*
X133100000Y-95000000D03*
X129700000Y-88300000D03*
%TO.N,Net-(HBridge1-VDD)*%
X124400000Y-90200000D03*
X123700000Y-100000000D03*
%TO.N,Net-(D2-A)*%
X119780000Y-97720000D03*
%TO.N,Net-(HBridge1-Out1)*%
X120800000Y-135200000D03*
X123000000Y-79200000D03*
%TO.N,Net-(HBridge1-Out2)*%
X135900000Y-96200000D03*
%TO.N,Net-(U4-D0)*%
X131900000Y-122700000D03*
X131900000Y-100600000D03*
%TO.N,Net-(U2-VDD)*%
X120862500Y-80462500D03*
%TO.N,Net-(U2-SCL)*%
X117000000Y-123200000D03*
%TO.N,unconnected-(U4-D1-Pad2)*%
X120000000Y-118600000D03*
X121600000Y-100300000D03*
%TO.N,unconnected-(U4-D2-Pad3)*%
X119100000Y-100600000D03*
X118600000Y-118600000D03*
%TO.N,unconnected-(U4-D8-Pad9)*%
X126000000Y-81800000D03*
%TO.N,Net-(HBridge1-In1)*%
X126000000Y-80600000D03*
%TD*%
D20*
%TO.N,Net-(B4-+)*%
X126300000Y-135225000D02*
X126300000Y-135000000D01*
X128400000Y-132900000D02*
X128400000Y-106100000D01*
D21*
X124050000Y-79424695D02*
X126687348Y-76787347D01*
X127575000Y-76675000D02*
X126799695Y-76675000D01*
X124050000Y-82261091D02*
X124050000Y-79424695D01*
X131400000Y-80500000D02*
X127575000Y-76675000D01*
D20*
X128400000Y-106100000D02*
X128400000Y-105675100D01*
X128400000Y-101900000D02*
X128400000Y-106100000D01*
D21*
X126799695Y-76675000D02*
X126637347Y-76837347D01*
D20*
X126300000Y-135000000D02*
X128400000Y-132900000D01*
D21*
X126600000Y-84811091D02*
X124050000Y-82261091D01*
D20*
X129700000Y-98000000D02*
X129700000Y-100600000D01*
D21*
X126600000Y-95800000D02*
X126600000Y-84811091D01*
D20*
X128400000Y-105675100D02*
X125324900Y-102600000D01*
X129700000Y-100600000D02*
X128400000Y-101900000D01*
%TO.N,Net-(B4--)*%
X126300000Y-137765000D02*
X128100000Y-135965000D01*
X129100000Y-133189949D02*
X129100000Y-127130000D01*
X129100000Y-127130000D02*
X134120000Y-122110000D01*
X128100000Y-134189950D02*
X129100000Y-133189949D01*
X128100000Y-135965000D02*
X128100000Y-134189950D01*
%TO.N,Net-(HBridge1-VDD)*%
X123700000Y-90900000D02*
X124400000Y-90200000D01*
X123700000Y-100000000D02*
X123700000Y-90900000D01*
%TO.N,Net-(D1-A)*%
X117600000Y-103780000D02*
X117600000Y-97720000D01*
X121700000Y-107880000D02*
X117600000Y-103780000D01*
%TO.N,Net-(D2-A)*%
X119780000Y-97720000D02*
X121700000Y-97720000D01*
D21*
%TO.N,Net-(HBridge1-Out1)*%
X124195100Y-127675000D02*
X124195100Y-118831496D01*
X115275000Y-81225000D02*
X117300000Y-79200000D01*
X123582055Y-132417945D02*
X123520100Y-132355990D01*
X124179109Y-127675000D02*
X124195100Y-127675000D01*
X124195100Y-118831496D02*
X115275000Y-109911396D01*
X115275000Y-109911396D02*
X115275000Y-81225000D01*
X117300000Y-79200000D02*
X123000000Y-79200000D01*
X123520100Y-132355990D02*
X123520100Y-128334009D01*
X123520100Y-128334009D02*
X124179109Y-127675000D01*
X120800000Y-135200000D02*
X123582055Y-132417945D01*
%TO.N,Net-(HBridge1-Out2)*%
X123810000Y-138975000D02*
X133026701Y-138975000D01*
X122600000Y-137765000D02*
X123810000Y-138975000D01*
X133026701Y-138975000D02*
X135847500Y-136154201D01*
X135847500Y-96252500D02*
X135900000Y-96200000D01*
X135847500Y-136154201D02*
X135847500Y-96252500D01*
%TO.N,Net-(U4-D0)*%
X131900000Y-100600000D02*
X131900000Y-122700000D01*
%TO.N,Net-(U2-VDD)*%
X115725000Y-109725000D02*
X115725000Y-82375000D01*
X115725000Y-82375000D02*
X116642600Y-81457400D01*
X124645100Y-128800000D02*
X124645100Y-118645100D01*
X119867600Y-81457400D02*
X120862500Y-80462500D01*
X124645100Y-118645100D02*
X115725000Y-109725000D01*
X116642600Y-81457400D02*
X119867600Y-81457400D01*
%TO.N,Net-(U2-SCL)*%
X117000000Y-123200000D02*
X117025100Y-123225100D01*
X117025100Y-123225100D02*
X117025100Y-128800000D01*
%TO.N,unconnected-(U4-D1-Pad2)*%
X119050000Y-119550000D02*
X119050000Y-135075000D01*
X123125000Y-98775000D02*
X121600000Y-100300000D01*
X123125000Y-88077900D02*
X123125000Y-98775000D01*
X120000000Y-118600000D02*
X119050000Y-119550000D01*
X117957500Y-82910400D02*
X123125000Y-88077900D01*
X119050000Y-135075000D02*
X118900000Y-135225000D01*
%TO.N,unconnected-(U4-D2-Pad3)*%
X118900000Y-137765000D02*
X117725000Y-136590000D01*
X119055000Y-100555000D02*
X119055000Y-97159745D01*
X118600000Y-132900000D02*
X118600000Y-118600000D01*
X119100000Y-100600000D02*
X119055000Y-100555000D01*
X117725000Y-136590000D02*
X117725000Y-133775000D01*
X119055000Y-97159745D02*
X116500000Y-94604745D01*
X117725000Y-133775000D02*
X118600000Y-132900000D01*
X116500000Y-94604745D02*
X116500000Y-86907900D01*
X116500000Y-86907900D02*
X117957500Y-85450400D01*
%TO.N,unconnected-(U4-D8-Pad9)*%
X130875000Y-87813299D02*
X130875000Y-87990400D01*
X126000000Y-82938299D02*
X130875000Y-87813299D01*
X126000000Y-81800000D02*
X126000000Y-82938299D01*
X130875000Y-87990400D02*
X133257500Y-87990400D01*
%TO.N,Net-(HBridge1-In1)*%
X129148497Y-85450400D02*
X133257500Y-85450400D01*
X126725000Y-81325000D02*
X126725000Y-83026903D01*
X126000000Y-80600000D02*
X126725000Y-81325000D01*
X126725000Y-83026903D02*
X129148497Y-85450400D01*
%TD*%
%TA.AperFunction,Conductor*%
%TO.N,Net-(D1-K)*%
G36*
X115005203Y-110106486D02*
G01*
X115018992Y-110120496D01*
X115021803Y-110123845D01*
X115021806Y-110123851D01*
X115032900Y-110133160D01*
X115050743Y-110148132D01*
X115058718Y-110155440D01*
X123833281Y-118930003D01*
X123866766Y-118991326D01*
X123869600Y-119017684D01*
X123869600Y-127472820D01*
X123849915Y-127539859D01*
X123833281Y-127560501D01*
X123303815Y-128089966D01*
X123295842Y-128097273D01*
X123266905Y-128121554D01*
X123248014Y-128154273D01*
X123242205Y-128163390D01*
X123220546Y-128194322D01*
X123218306Y-128199126D01*
X123211329Y-128215970D01*
X123209510Y-128220969D01*
X123202952Y-128258157D01*
X123200612Y-128268712D01*
X123190835Y-128305200D01*
X123190835Y-128305201D01*
X123194128Y-128342826D01*
X123194600Y-128353635D01*
X123194600Y-132293711D01*
X123174915Y-132360750D01*
X123158281Y-132381392D01*
X120971684Y-134567988D01*
X120910361Y-134601473D01*
X120867818Y-134603246D01*
X120800001Y-134594318D01*
X120799999Y-134594318D01*
X120643239Y-134614955D01*
X120643237Y-134614956D01*
X120497160Y-134675463D01*
X120371718Y-134771718D01*
X120275463Y-134897160D01*
X120214956Y-135043237D01*
X120214955Y-135043239D01*
X120197439Y-135176292D01*
X120188312Y-135196921D01*
X120193477Y-135204957D01*
X120197439Y-135223707D01*
X120214955Y-135356760D01*
X120214956Y-135356762D01*
X120260176Y-135465934D01*
X120275464Y-135502841D01*
X120371718Y-135628282D01*
X120497159Y-135724536D01*
X120643238Y-135785044D01*
X120711828Y-135794074D01*
X120799999Y-135805682D01*
X120800000Y-135805682D01*
X120800001Y-135805682D01*
X120852254Y-135798802D01*
X120956762Y-135785044D01*
X121102841Y-135724536D01*
X121228282Y-135628282D01*
X121324536Y-135502841D01*
X121324537Y-135502839D01*
X121327124Y-135499468D01*
X121383552Y-135458265D01*
X121453298Y-135454110D01*
X121514218Y-135488322D01*
X121546971Y-135550040D01*
X121549500Y-135574954D01*
X121549500Y-136094752D01*
X121561131Y-136153229D01*
X121561132Y-136153230D01*
X121605447Y-136219552D01*
X121671769Y-136263867D01*
X121671770Y-136263868D01*
X121730247Y-136275499D01*
X121730250Y-136275500D01*
X121730252Y-136275500D01*
X123469750Y-136275500D01*
X123469751Y-136275499D01*
X123485760Y-136272315D01*
X123528229Y-136263868D01*
X123528229Y-136263867D01*
X123528231Y-136263867D01*
X123594552Y-136219552D01*
X123638867Y-136153231D01*
X123638867Y-136153229D01*
X123638868Y-136153229D01*
X123650499Y-136094752D01*
X123650500Y-136094750D01*
X123650500Y-134355249D01*
X123650499Y-134355247D01*
X123638868Y-134296770D01*
X123638867Y-134296769D01*
X123594552Y-134230447D01*
X123528230Y-134186132D01*
X123528229Y-134186131D01*
X123469752Y-134174500D01*
X123469748Y-134174500D01*
X122585188Y-134174500D01*
X122518149Y-134154815D01*
X122472394Y-134102011D01*
X122462450Y-134032853D01*
X122491475Y-133969297D01*
X122497507Y-133962819D01*
X122810964Y-133649362D01*
X123754193Y-132706131D01*
X123754196Y-132706130D01*
X123771634Y-132688692D01*
X123771635Y-132688692D01*
X123812694Y-132647632D01*
X123874015Y-132614148D01*
X123943707Y-132619132D01*
X123979039Y-132639461D01*
X124096560Y-132735909D01*
X124096567Y-132735913D01*
X124270366Y-132828811D01*
X124270369Y-132828811D01*
X124270373Y-132828814D01*
X124458968Y-132886024D01*
X124655100Y-132905341D01*
X124851232Y-132886024D01*
X125039827Y-132828814D01*
X125213638Y-132735910D01*
X125365983Y-132610883D01*
X125491010Y-132458538D01*
X125583914Y-132284727D01*
X125626439Y-132144538D01*
X125664737Y-132086101D01*
X125728549Y-132057645D01*
X125797616Y-132068205D01*
X125850010Y-132114429D01*
X125863759Y-132144536D01*
X125893715Y-132243288D01*
X125906287Y-132284731D01*
X125999186Y-132458532D01*
X125999190Y-132458539D01*
X126124216Y-132610883D01*
X126276560Y-132735909D01*
X126276567Y-132735913D01*
X126450366Y-132828811D01*
X126450369Y-132828811D01*
X126450373Y-132828814D01*
X126638968Y-132886024D01*
X126835100Y-132905341D01*
X127031232Y-132886024D01*
X127219827Y-132828814D01*
X127393638Y-132735910D01*
X127545983Y-132610883D01*
X127671010Y-132458538D01*
X127690826Y-132421465D01*
X127716142Y-132374103D01*
X127765104Y-132324259D01*
X127833241Y-132308798D01*
X127898921Y-132332629D01*
X127941290Y-132388187D01*
X127949500Y-132432556D01*
X127949500Y-132662035D01*
X127929815Y-132729074D01*
X127913181Y-132749716D01*
X126524716Y-134138181D01*
X126463393Y-134171666D01*
X126437035Y-134174500D01*
X125430247Y-134174500D01*
X125371770Y-134186131D01*
X125371769Y-134186132D01*
X125305447Y-134230447D01*
X125261132Y-134296769D01*
X125261131Y-134296770D01*
X125249500Y-134355247D01*
X125249500Y-136094752D01*
X125261131Y-136153229D01*
X125261132Y-136153230D01*
X125305447Y-136219552D01*
X125371769Y-136263867D01*
X125371770Y-136263868D01*
X125430247Y-136275499D01*
X125430250Y-136275500D01*
X125430252Y-136275500D01*
X126853035Y-136275500D01*
X126920074Y-136295185D01*
X126965829Y-136347989D01*
X126975773Y-136417147D01*
X126946748Y-136480703D01*
X126940735Y-136487161D01*
X126762044Y-136665852D01*
X126706002Y-136721894D01*
X126644679Y-136755378D01*
X126582327Y-136752873D01*
X126505932Y-136729699D01*
X126505933Y-136729699D01*
X126320282Y-136711414D01*
X126300000Y-136709417D01*
X126299999Y-136709417D01*
X126094067Y-136729699D01*
X125896043Y-136789769D01*
X125813212Y-136834044D01*
X125713550Y-136887315D01*
X125713548Y-136887316D01*
X125713547Y-136887317D01*
X125553589Y-137018589D01*
X125422317Y-137178547D01*
X125324769Y-137361043D01*
X125264699Y-137559067D01*
X125244417Y-137765000D01*
X125264699Y-137970932D01*
X125264700Y-137970934D01*
X125324768Y-138168954D01*
X125422315Y-138351450D01*
X125422317Y-138351452D01*
X125500595Y-138446836D01*
X125527907Y-138511146D01*
X125516116Y-138580013D01*
X125468963Y-138631573D01*
X125404741Y-138649500D01*
X123996189Y-138649500D01*
X123929150Y-138629815D01*
X123908508Y-138613181D01*
X123601321Y-138305994D01*
X123567836Y-138244671D01*
X123572820Y-138174979D01*
X123574448Y-138170843D01*
X123575223Y-138168969D01*
X123575232Y-138168954D01*
X123635300Y-137970934D01*
X123655583Y-137765000D01*
X123635300Y-137559066D01*
X123575232Y-137361046D01*
X123477685Y-137178550D01*
X123375133Y-137053589D01*
X123346410Y-137018589D01*
X123186452Y-136887317D01*
X123186453Y-136887317D01*
X123186450Y-136887315D01*
X123003954Y-136789768D01*
X122805934Y-136729700D01*
X122805932Y-136729699D01*
X122805934Y-136729699D01*
X122600000Y-136709417D01*
X122394067Y-136729699D01*
X122196043Y-136789769D01*
X122113212Y-136834044D01*
X122013550Y-136887315D01*
X122013548Y-136887316D01*
X122013547Y-136887317D01*
X121853589Y-137018589D01*
X121722317Y-137178547D01*
X121624769Y-137361043D01*
X121564699Y-137559067D01*
X121544417Y-137765000D01*
X121564699Y-137970932D01*
X121564700Y-137970934D01*
X121624768Y-138168954D01*
X121722315Y-138351450D01*
X121722317Y-138351452D01*
X121853589Y-138511410D01*
X121937183Y-138580013D01*
X122013550Y-138642685D01*
X122196046Y-138740232D01*
X122394066Y-138800300D01*
X122394065Y-138800300D01*
X122412529Y-138802118D01*
X122600000Y-138820583D01*
X122805934Y-138800300D01*
X123003954Y-138740232D01*
X123003969Y-138740223D01*
X123005843Y-138739448D01*
X123006918Y-138739332D01*
X123009784Y-138738463D01*
X123009948Y-138739005D01*
X123075311Y-138731969D01*
X123137795Y-138763234D01*
X123140994Y-138766321D01*
X123565955Y-139191282D01*
X123573262Y-139199256D01*
X123597542Y-139228190D01*
X123597545Y-139228194D01*
X123630261Y-139247082D01*
X123639366Y-139252882D01*
X123670316Y-139274553D01*
X123670318Y-139274553D01*
X123670319Y-139274554D01*
X123675168Y-139276815D01*
X123691947Y-139283765D01*
X123696952Y-139285587D01*
X123696953Y-139285587D01*
X123696955Y-139285588D01*
X123734162Y-139292148D01*
X123744701Y-139294484D01*
X123781193Y-139304263D01*
X123818811Y-139300971D01*
X123829618Y-139300500D01*
X133007073Y-139300500D01*
X133017881Y-139300971D01*
X133055508Y-139304264D01*
X133092020Y-139294479D01*
X133102531Y-139292149D01*
X133139746Y-139285588D01*
X133139751Y-139285584D01*
X133144800Y-139283747D01*
X133161525Y-139276819D01*
X133166382Y-139274554D01*
X133166385Y-139274554D01*
X133197326Y-139252887D01*
X133206445Y-139247079D01*
X133239156Y-139228194D01*
X133239158Y-139228192D01*
X133263437Y-139199256D01*
X133270737Y-139191288D01*
X136063796Y-136398230D01*
X136071749Y-136390942D01*
X136100694Y-136366656D01*
X136119582Y-136333939D01*
X136125381Y-136324836D01*
X136147054Y-136293885D01*
X136147054Y-136293882D01*
X136149319Y-136289025D01*
X136156241Y-136272315D01*
X136158083Y-136267253D01*
X136158088Y-136267246D01*
X136158089Y-136267238D01*
X136159478Y-136263424D01*
X136163260Y-136258287D01*
X136163518Y-136257841D01*
X136163567Y-136257869D01*
X136200905Y-136207161D01*
X136266174Y-136182226D01*
X136334563Y-136196536D01*
X136384358Y-136245549D01*
X136400000Y-136305836D01*
X136400000Y-145576000D01*
X136380315Y-145643039D01*
X136327511Y-145688794D01*
X136276000Y-145700000D01*
X114924000Y-145700000D01*
X114856961Y-145680315D01*
X114811206Y-145627511D01*
X114800000Y-145576000D01*
X114800000Y-142899999D01*
X123994551Y-142899999D01*
X124002084Y-142995714D01*
X124002466Y-143005443D01*
X124002466Y-143025734D01*
X124005638Y-143045762D01*
X124006783Y-143055429D01*
X124010726Y-143105531D01*
X124014317Y-143151148D01*
X124014317Y-143151151D01*
X124014318Y-143151153D01*
X124036728Y-143244500D01*
X124038627Y-143254046D01*
X124041802Y-143274090D01*
X124048072Y-143293390D01*
X124050714Y-143302756D01*
X124073127Y-143396114D01*
X124109866Y-143484809D01*
X124113234Y-143493937D01*
X124118194Y-143509199D01*
X124119507Y-143513240D01*
X124119508Y-143513243D01*
X124119509Y-143513244D01*
X124128716Y-143531315D01*
X124132790Y-143540153D01*
X124169532Y-143628857D01*
X124219702Y-143710728D01*
X124224456Y-143719216D01*
X124230137Y-143730364D01*
X124233666Y-143737290D01*
X124233667Y-143737291D01*
X124245587Y-143753698D01*
X124250993Y-143761790D01*
X124292871Y-143830127D01*
X124301164Y-143843659D01*
X124301168Y-143843663D01*
X124301171Y-143843668D01*
X124363512Y-143916660D01*
X124369539Y-143924304D01*
X124381468Y-143940723D01*
X124395813Y-143955068D01*
X124402422Y-143962217D01*
X124464776Y-144035224D01*
X124537790Y-144097584D01*
X124544924Y-144104179D01*
X124559276Y-144118531D01*
X124575694Y-144130459D01*
X124583327Y-144136476D01*
X124656341Y-144198836D01*
X124656343Y-144198837D01*
X124656344Y-144198838D01*
X124656345Y-144198839D01*
X124738202Y-144249001D01*
X124746295Y-144254408D01*
X124762710Y-144266334D01*
X124780798Y-144275550D01*
X124789260Y-144280289D01*
X124871141Y-144330466D01*
X124871146Y-144330468D01*
X124959843Y-144367208D01*
X124968684Y-144371283D01*
X124986760Y-144380493D01*
X125006066Y-144386766D01*
X125015166Y-144390122D01*
X125103889Y-144426873D01*
X125197247Y-144449286D01*
X125206610Y-144451927D01*
X125225910Y-144458198D01*
X125225914Y-144458199D01*
X125236176Y-144459824D01*
X125245954Y-144461372D01*
X125255477Y-144463265D01*
X125348852Y-144485683D01*
X125444591Y-144493217D01*
X125454196Y-144494354D01*
X125474271Y-144497534D01*
X125474275Y-144497534D01*
X125494557Y-144497534D01*
X125504284Y-144497915D01*
X125600000Y-144505449D01*
X125695715Y-144497915D01*
X125705443Y-144497534D01*
X125725725Y-144497534D01*
X125725729Y-144497534D01*
X125745803Y-144494354D01*
X125755408Y-144493217D01*
X125851148Y-144485683D01*
X125944527Y-144463264D01*
X125954040Y-144461373D01*
X125974090Y-144458198D01*
X125993400Y-144451923D01*
X126002745Y-144449287D01*
X126070118Y-144433113D01*
X126096096Y-144426877D01*
X126096100Y-144426875D01*
X126096111Y-144426873D01*
X126184855Y-144390113D01*
X126193921Y-144386770D01*
X126213240Y-144380493D01*
X126231341Y-144371270D01*
X126240123Y-144367221D01*
X126328859Y-144330466D01*
X126410744Y-144280286D01*
X126419193Y-144275554D01*
X126437290Y-144266334D01*
X126453714Y-144254401D01*
X126461780Y-144249011D01*
X126543659Y-144198836D01*
X126616688Y-144136462D01*
X126624282Y-144130476D01*
X126640724Y-144118531D01*
X126655083Y-144104171D01*
X126662194Y-144097596D01*
X126735224Y-144035224D01*
X126797596Y-143962194D01*
X126804171Y-143955083D01*
X126818531Y-143940724D01*
X126830476Y-143924282D01*
X126836462Y-143916688D01*
X126898836Y-143843659D01*
X126949011Y-143761780D01*
X126954401Y-143753714D01*
X126966334Y-143737290D01*
X126975554Y-143719193D01*
X126980296Y-143710728D01*
X127030466Y-143628859D01*
X127067221Y-143540123D01*
X127071270Y-143531341D01*
X127080493Y-143513240D01*
X127086770Y-143493921D01*
X127090113Y-143484855D01*
X127126873Y-143396111D01*
X127127315Y-143394273D01*
X127133113Y-143370118D01*
X127149287Y-143302745D01*
X127151926Y-143293392D01*
X127158197Y-143274093D01*
X127158199Y-143274084D01*
X127158482Y-143272296D01*
X127161373Y-143254040D01*
X127163264Y-143244527D01*
X127185683Y-143151148D01*
X127193217Y-143055411D01*
X127194355Y-143045800D01*
X127197534Y-143025729D01*
X127198119Y-142995864D01*
X127198475Y-142988599D01*
X127205449Y-142900000D01*
X127198476Y-142811402D01*
X127198119Y-142804119D01*
X127197534Y-142774278D01*
X127197534Y-142774271D01*
X127194355Y-142754199D01*
X127193216Y-142744571D01*
X127185683Y-142648852D01*
X127163265Y-142555477D01*
X127161371Y-142545946D01*
X127158199Y-142525914D01*
X127158198Y-142525910D01*
X127151927Y-142506610D01*
X127149283Y-142497236D01*
X127126873Y-142403890D01*
X127126873Y-142403889D01*
X127090122Y-142315166D01*
X127086766Y-142306066D01*
X127080493Y-142286760D01*
X127071282Y-142268682D01*
X127067208Y-142259843D01*
X127030468Y-142171146D01*
X127030466Y-142171141D01*
X126980289Y-142089260D01*
X126975547Y-142080792D01*
X126966334Y-142062710D01*
X126954408Y-142046295D01*
X126949001Y-142038202D01*
X126898839Y-141956345D01*
X126898838Y-141956344D01*
X126898837Y-141956343D01*
X126898836Y-141956341D01*
X126836476Y-141883327D01*
X126830459Y-141875694D01*
X126830458Y-141875692D01*
X126818531Y-141859276D01*
X126804173Y-141844918D01*
X126797584Y-141837790D01*
X126735224Y-141764776D01*
X126662220Y-141702425D01*
X126662217Y-141702422D01*
X126655068Y-141695813D01*
X126640723Y-141681468D01*
X126624304Y-141669539D01*
X126616660Y-141663512D01*
X126543668Y-141601171D01*
X126543663Y-141601168D01*
X126543659Y-141601164D01*
X126530127Y-141592871D01*
X126461790Y-141550993D01*
X126453698Y-141545587D01*
X126437291Y-141533667D01*
X126437292Y-141533667D01*
X126437290Y-141533666D01*
X126430364Y-141530137D01*
X126419216Y-141524456D01*
X126410728Y-141519702D01*
X126328857Y-141469532D01*
X126240153Y-141432790D01*
X126231315Y-141428716D01*
X126213244Y-141419509D01*
X126213243Y-141419508D01*
X126213240Y-141419507D01*
X126209199Y-141418194D01*
X126193937Y-141413234D01*
X126184809Y-141409866D01*
X126096114Y-141373127D01*
X126002756Y-141350714D01*
X125993390Y-141348072D01*
X125974090Y-141341802D01*
X125954046Y-141338627D01*
X125944500Y-141336728D01*
X125851152Y-141314318D01*
X125851153Y-141314318D01*
X125851151Y-141314317D01*
X125851148Y-141314317D01*
X125805531Y-141310726D01*
X125755429Y-141306783D01*
X125745762Y-141305638D01*
X125725734Y-141302466D01*
X125725729Y-141302466D01*
X125705443Y-141302466D01*
X125695715Y-141302084D01*
X125600000Y-141294551D01*
X125504284Y-141302084D01*
X125494557Y-141302466D01*
X125474272Y-141302466D01*
X125474271Y-141302466D01*
X125457612Y-141305104D01*
X125454237Y-141305639D01*
X125444571Y-141306783D01*
X125348851Y-141314317D01*
X125348844Y-141314318D01*
X125255499Y-141336728D01*
X125245953Y-141338627D01*
X125225913Y-141341801D01*
X125225904Y-141341803D01*
X125206615Y-141348071D01*
X125197244Y-141350714D01*
X125103891Y-141373125D01*
X125015185Y-141409868D01*
X125006059Y-141413235D01*
X124986757Y-141419507D01*
X124968682Y-141428716D01*
X124959851Y-141432787D01*
X124871141Y-141469534D01*
X124789275Y-141519700D01*
X124780792Y-141524451D01*
X124762716Y-141533662D01*
X124762709Y-141533667D01*
X124746298Y-141545589D01*
X124738212Y-141550991D01*
X124656339Y-141601165D01*
X124583332Y-141663518D01*
X124575692Y-141669541D01*
X124559276Y-141681468D01*
X124544918Y-141695825D01*
X124537777Y-141702425D01*
X124464775Y-141764775D01*
X124402425Y-141837777D01*
X124395825Y-141844918D01*
X124381468Y-141859276D01*
X124369541Y-141875692D01*
X124363518Y-141883332D01*
X124301165Y-141956339D01*
X124250991Y-142038212D01*
X124245589Y-142046298D01*
X124233667Y-142062709D01*
X124233662Y-142062716D01*
X124224451Y-142080792D01*
X124219700Y-142089275D01*
X124169534Y-142171141D01*
X124132787Y-142259851D01*
X124128716Y-142268682D01*
X124119507Y-142286757D01*
X124113235Y-142306059D01*
X124109868Y-142315185D01*
X124073125Y-142403891D01*
X124050714Y-142497244D01*
X124048071Y-142506615D01*
X124041803Y-142525904D01*
X124041801Y-142525913D01*
X124038627Y-142545953D01*
X124036728Y-142555499D01*
X124014318Y-142648844D01*
X124014317Y-142648851D01*
X124006783Y-142744571D01*
X124005639Y-142754237D01*
X124002466Y-142774271D01*
X124002466Y-142794555D01*
X124002084Y-142804284D01*
X123994551Y-142899999D01*
X114800000Y-142899999D01*
X114800000Y-131900000D01*
X116029759Y-131900000D01*
X116049075Y-132096129D01*
X116106288Y-132284733D01*
X116199186Y-132458532D01*
X116199190Y-132458539D01*
X116324216Y-132610883D01*
X116476560Y-132735909D01*
X116476567Y-132735913D01*
X116650366Y-132828811D01*
X116650369Y-132828811D01*
X116650373Y-132828814D01*
X116838968Y-132886024D01*
X117035100Y-132905341D01*
X117231232Y-132886024D01*
X117419827Y-132828814D01*
X117593638Y-132735910D01*
X117745983Y-132610883D01*
X117871010Y-132458538D01*
X117963914Y-132284727D01*
X118021124Y-132096132D01*
X118027097Y-132035485D01*
X118053258Y-131970699D01*
X118110292Y-131930340D01*
X118180092Y-131927223D01*
X118240497Y-131962337D01*
X118272328Y-132024535D01*
X118274500Y-132047640D01*
X118274500Y-132713811D01*
X118254815Y-132780850D01*
X118238181Y-132801492D01*
X117508715Y-133530957D01*
X117500742Y-133538264D01*
X117471805Y-133562545D01*
X117452914Y-133595264D01*
X117447105Y-133604381D01*
X117425446Y-133635313D01*
X117423206Y-133640117D01*
X117416229Y-133656961D01*
X117414410Y-133661960D01*
X117407852Y-133699148D01*
X117405512Y-133709703D01*
X117395735Y-133746191D01*
X117395735Y-133746192D01*
X117399028Y-133783817D01*
X117399500Y-133794626D01*
X117399500Y-136570372D01*
X117399028Y-136581181D01*
X117395735Y-136618808D01*
X117405512Y-136655298D01*
X117407852Y-136665852D01*
X117414411Y-136703042D01*
X117416235Y-136708055D01*
X117423197Y-136724861D01*
X117425446Y-136729684D01*
X117447104Y-136760616D01*
X117452914Y-136769734D01*
X117471806Y-136802455D01*
X117498398Y-136824768D01*
X117500743Y-136826736D01*
X117508718Y-136834044D01*
X117898678Y-137224004D01*
X117932163Y-137285327D01*
X117927179Y-137355019D01*
X117925563Y-137359126D01*
X117924771Y-137361038D01*
X117924769Y-137361043D01*
X117924768Y-137361046D01*
X117897653Y-137450430D01*
X117864699Y-137559067D01*
X117844417Y-137765000D01*
X117864699Y-137970932D01*
X117864700Y-137970934D01*
X117924768Y-138168954D01*
X118022315Y-138351450D01*
X118022317Y-138351452D01*
X118153589Y-138511410D01*
X118237183Y-138580013D01*
X118313550Y-138642685D01*
X118496046Y-138740232D01*
X118694066Y-138800300D01*
X118694065Y-138800300D01*
X118712529Y-138802118D01*
X118900000Y-138820583D01*
X119105934Y-138800300D01*
X119303954Y-138740232D01*
X119486450Y-138642685D01*
X119646410Y-138511410D01*
X119777685Y-138351450D01*
X119875232Y-138168954D01*
X119935300Y-137970934D01*
X119955583Y-137765000D01*
X119935300Y-137559066D01*
X119875232Y-137361046D01*
X119777685Y-137178550D01*
X119675133Y-137053589D01*
X119646410Y-137018589D01*
X119486452Y-136887317D01*
X119486453Y-136887317D01*
X119486450Y-136887315D01*
X119303954Y-136789768D01*
X119105934Y-136729700D01*
X119105932Y-136729699D01*
X119105934Y-136729699D01*
X118900000Y-136709417D01*
X118694067Y-136729699D01*
X118592148Y-136760616D01*
X118496046Y-136789768D01*
X118496043Y-136789769D01*
X118496038Y-136789771D01*
X118494126Y-136790563D01*
X118493045Y-136790679D01*
X118490217Y-136791537D01*
X118490054Y-136791000D01*
X118424656Y-136798024D01*
X118362180Y-136766743D01*
X118359004Y-136763678D01*
X118086819Y-136491493D01*
X118053334Y-136430170D01*
X118050500Y-136403812D01*
X118050500Y-136399500D01*
X118070185Y-136332461D01*
X118122989Y-136286706D01*
X118174500Y-136275500D01*
X119769750Y-136275500D01*
X119769751Y-136275499D01*
X119785760Y-136272315D01*
X119828229Y-136263868D01*
X119828229Y-136263867D01*
X119828231Y-136263867D01*
X119894552Y-136219552D01*
X119938867Y-136153231D01*
X119938867Y-136153229D01*
X119938868Y-136153229D01*
X119950499Y-136094752D01*
X119950500Y-136094750D01*
X119950500Y-135239892D01*
X119962045Y-135200574D01*
X119951981Y-135179213D01*
X119950500Y-135160107D01*
X119950500Y-134355249D01*
X119950499Y-134355247D01*
X119938868Y-134296770D01*
X119938867Y-134296769D01*
X119894552Y-134230447D01*
X119828230Y-134186132D01*
X119828229Y-134186131D01*
X119769752Y-134174500D01*
X119769748Y-134174500D01*
X119499500Y-134174500D01*
X119432461Y-134154815D01*
X119386706Y-134102011D01*
X119375500Y-134050500D01*
X119375500Y-119736187D01*
X119395185Y-119669148D01*
X119411815Y-119648510D01*
X119828315Y-119232009D01*
X119889636Y-119198526D01*
X119932180Y-119196753D01*
X119999999Y-119205682D01*
X120000000Y-119205682D01*
X120000001Y-119205682D01*
X120052254Y-119198802D01*
X120156762Y-119185044D01*
X120302841Y-119124536D01*
X120428282Y-119028282D01*
X120524536Y-118902841D01*
X120585044Y-118756762D01*
X120605682Y-118600000D01*
X120585044Y-118443238D01*
X120524536Y-118297159D01*
X120428282Y-118171718D01*
X120302841Y-118075464D01*
X120301240Y-118074801D01*
X120156762Y-118014956D01*
X120156760Y-118014955D01*
X120000001Y-117994318D01*
X119999999Y-117994318D01*
X119843239Y-118014955D01*
X119843237Y-118014956D01*
X119697160Y-118075463D01*
X119571718Y-118171718D01*
X119475463Y-118297160D01*
X119474287Y-118300000D01*
X119414957Y-118443237D01*
X119414561Y-118444192D01*
X119370720Y-118498595D01*
X119304426Y-118520660D01*
X119236727Y-118503381D01*
X119189116Y-118452244D01*
X119185439Y-118444192D01*
X119185044Y-118443238D01*
X119124536Y-118297159D01*
X119028282Y-118171718D01*
X118902841Y-118075464D01*
X118901240Y-118074801D01*
X118756762Y-118014956D01*
X118756760Y-118014955D01*
X118600001Y-117994318D01*
X118599999Y-117994318D01*
X118443239Y-118014955D01*
X118443237Y-118014956D01*
X118297160Y-118075463D01*
X118171718Y-118171718D01*
X118075463Y-118297160D01*
X118014956Y-118443237D01*
X118014955Y-118443239D01*
X117994318Y-118599998D01*
X117994318Y-118600001D01*
X118014955Y-118756760D01*
X118014956Y-118756762D01*
X118075464Y-118902841D01*
X118171718Y-119028282D01*
X118225987Y-119069924D01*
X118267189Y-119126349D01*
X118274500Y-119168298D01*
X118274500Y-128753893D01*
X118260813Y-128800502D01*
X118272328Y-128823001D01*
X118274500Y-128846106D01*
X118274500Y-131752359D01*
X118254815Y-131819398D01*
X118202011Y-131865153D01*
X118132853Y-131875097D01*
X118069297Y-131846072D01*
X118031523Y-131787294D01*
X118027097Y-131764513D01*
X118021124Y-131703870D01*
X118021124Y-131703868D01*
X117963914Y-131515273D01*
X117963911Y-131515269D01*
X117963911Y-131515266D01*
X117871013Y-131341467D01*
X117871009Y-131341460D01*
X117745983Y-131189116D01*
X117593639Y-131064090D01*
X117593632Y-131064086D01*
X117419833Y-130971188D01*
X117419827Y-130971186D01*
X117231232Y-130913976D01*
X117231229Y-130913975D01*
X117035100Y-130894659D01*
X116838970Y-130913975D01*
X116650366Y-130971188D01*
X116476567Y-131064086D01*
X116476560Y-131064090D01*
X116324216Y-131189116D01*
X116199190Y-131341460D01*
X116199186Y-131341467D01*
X116106288Y-131515266D01*
X116049075Y-131703870D01*
X116029759Y-131900000D01*
X114800000Y-131900000D01*
X114800000Y-128800000D01*
X116019759Y-128800000D01*
X116039075Y-128996129D01*
X116096288Y-129184733D01*
X116189186Y-129358532D01*
X116189190Y-129358539D01*
X116314216Y-129510883D01*
X116466560Y-129635909D01*
X116466567Y-129635913D01*
X116640366Y-129728811D01*
X116640369Y-129728811D01*
X116640373Y-129728814D01*
X116828968Y-129786024D01*
X117025100Y-129805341D01*
X117221232Y-129786024D01*
X117409827Y-129728814D01*
X117583638Y-129635910D01*
X117735983Y-129510883D01*
X117861010Y-129358538D01*
X117953914Y-129184727D01*
X118011124Y-128996132D01*
X118027097Y-128833951D01*
X118039994Y-128802010D01*
X118031523Y-128788828D01*
X118027097Y-128766047D01*
X118011124Y-128603870D01*
X118011124Y-128603868D01*
X117953914Y-128415273D01*
X117953911Y-128415269D01*
X117953911Y-128415266D01*
X117861013Y-128241467D01*
X117861009Y-128241460D01*
X117735983Y-128089116D01*
X117583639Y-127964090D01*
X117583632Y-127964085D01*
X117416147Y-127874563D01*
X117366302Y-127825601D01*
X117350600Y-127765205D01*
X117350600Y-123749039D01*
X117370285Y-123682000D01*
X117399114Y-123650663D01*
X117428282Y-123628282D01*
X117524536Y-123502841D01*
X117585044Y-123356762D01*
X117604660Y-123207761D01*
X117605682Y-123200001D01*
X117605682Y-123199998D01*
X117585044Y-123043239D01*
X117585044Y-123043238D01*
X117524536Y-122897159D01*
X117428282Y-122771718D01*
X117302841Y-122675464D01*
X117156762Y-122614956D01*
X117156760Y-122614955D01*
X117000001Y-122594318D01*
X116999999Y-122594318D01*
X116843239Y-122614955D01*
X116843237Y-122614956D01*
X116697160Y-122675463D01*
X116571718Y-122771718D01*
X116475463Y-122897160D01*
X116414956Y-123043237D01*
X116414955Y-123043239D01*
X116394318Y-123199998D01*
X116394318Y-123200001D01*
X116414955Y-123356760D01*
X116414956Y-123356762D01*
X116475464Y-123502841D01*
X116477332Y-123505275D01*
X116571719Y-123628283D01*
X116651086Y-123689183D01*
X116692289Y-123745611D01*
X116699600Y-123787559D01*
X116699600Y-127765205D01*
X116679915Y-127832244D01*
X116634053Y-127874563D01*
X116466567Y-127964085D01*
X116466560Y-127964090D01*
X116314216Y-128089116D01*
X116189190Y-128241460D01*
X116189186Y-128241467D01*
X116096288Y-128415266D01*
X116039075Y-128603870D01*
X116019759Y-128800000D01*
X114800000Y-128800000D01*
X114800000Y-110200199D01*
X114819685Y-110133160D01*
X114872489Y-110087405D01*
X114941647Y-110077461D01*
X115005203Y-110106486D01*
G37*
%TD.AperFunction*%
%TA.AperFunction,Conductor*%
G36*
X136343039Y-73319685D02*
G01*
X136388794Y-73372489D01*
X136400000Y-73424000D01*
X136400000Y-95575302D01*
X136380315Y-95642341D01*
X136327511Y-95688096D01*
X136258353Y-95698040D01*
X136210765Y-95677996D01*
X136209881Y-95679528D01*
X136202843Y-95675465D01*
X136202838Y-95675463D01*
X136056762Y-95614956D01*
X136056760Y-95614955D01*
X135900001Y-95594318D01*
X135899999Y-95594318D01*
X135743239Y-95614955D01*
X135743237Y-95614956D01*
X135597160Y-95675463D01*
X135471718Y-95771718D01*
X135375463Y-95897160D01*
X135314956Y-96043237D01*
X135314955Y-96043239D01*
X135294318Y-96199998D01*
X135294318Y-96200001D01*
X135314955Y-96356760D01*
X135314956Y-96356762D01*
X135371494Y-96493258D01*
X135375464Y-96502841D01*
X135471718Y-96628282D01*
X135473484Y-96629637D01*
X135474598Y-96631163D01*
X135477469Y-96634034D01*
X135477021Y-96634481D01*
X135514688Y-96686064D01*
X135522000Y-96728015D01*
X135522000Y-122061747D01*
X135507532Y-122111017D01*
X135519693Y-122134444D01*
X135522000Y-122158252D01*
X135522000Y-128178577D01*
X135502315Y-128245616D01*
X135449511Y-128291371D01*
X135380353Y-128301315D01*
X135316797Y-128272290D01*
X135295589Y-128245731D01*
X135294396Y-128246529D01*
X135291009Y-128241460D01*
X135165983Y-128089116D01*
X135013639Y-127964090D01*
X135013632Y-127964086D01*
X134839833Y-127871188D01*
X134839827Y-127871186D01*
X134651232Y-127813976D01*
X134651229Y-127813975D01*
X134455100Y-127794659D01*
X134258970Y-127813975D01*
X134070366Y-127871188D01*
X133896567Y-127964086D01*
X133896560Y-127964090D01*
X133744216Y-128089116D01*
X133619190Y-128241460D01*
X133619186Y-128241467D01*
X133526288Y-128415266D01*
X133469075Y-128603870D01*
X133449759Y-128800000D01*
X133469075Y-128996129D01*
X133526288Y-129184733D01*
X133619186Y-129358532D01*
X133619190Y-129358539D01*
X133744216Y-129510883D01*
X133896560Y-129635909D01*
X133896567Y-129635913D01*
X134070366Y-129728811D01*
X134070369Y-129728811D01*
X134070373Y-129728814D01*
X134258968Y-129786024D01*
X134455100Y-129805341D01*
X134651232Y-129786024D01*
X134839827Y-129728814D01*
X135013638Y-129635910D01*
X135165983Y-129510883D01*
X135291010Y-129358538D01*
X135291011Y-129358535D01*
X135294396Y-129353471D01*
X135296563Y-129354919D01*
X135337559Y-129313150D01*
X135405690Y-129297661D01*
X135471379Y-129321465D01*
X135513772Y-129377005D01*
X135522000Y-129421422D01*
X135522000Y-131278577D01*
X135502315Y-131345616D01*
X135449511Y-131391371D01*
X135380353Y-131401315D01*
X135316797Y-131372290D01*
X135295589Y-131345731D01*
X135294396Y-131346529D01*
X135291009Y-131341460D01*
X135165983Y-131189116D01*
X135013639Y-131064090D01*
X135013632Y-131064086D01*
X134839833Y-130971188D01*
X134839827Y-130971186D01*
X134651232Y-130913976D01*
X134651229Y-130913975D01*
X134455100Y-130894659D01*
X134258970Y-130913975D01*
X134070366Y-130971188D01*
X133896567Y-131064086D01*
X133896560Y-131064090D01*
X133744216Y-131189116D01*
X133619190Y-131341460D01*
X133619186Y-131341467D01*
X133526288Y-131515266D01*
X133469075Y-131703870D01*
X133449759Y-131900000D01*
X133469075Y-132096129D01*
X133526288Y-132284733D01*
X133619186Y-132458532D01*
X133619190Y-132458539D01*
X133744216Y-132610883D01*
X133896560Y-132735909D01*
X133896567Y-132735913D01*
X134070366Y-132828811D01*
X134070369Y-132828811D01*
X134070373Y-132828814D01*
X134258968Y-132886024D01*
X134455100Y-132905341D01*
X134651232Y-132886024D01*
X134839827Y-132828814D01*
X135013638Y-132735910D01*
X135165983Y-132610883D01*
X135291010Y-132458538D01*
X135291011Y-132458535D01*
X135294396Y-132453471D01*
X135296563Y-132454919D01*
X135337559Y-132413150D01*
X135405690Y-132397661D01*
X135471379Y-132421465D01*
X135513772Y-132477005D01*
X135522000Y-132521422D01*
X135522000Y-135968011D01*
X135502315Y-136035050D01*
X135485681Y-136055692D01*
X133794040Y-137747332D01*
X133732717Y-137780817D01*
X133663025Y-137775833D01*
X133607092Y-137733961D01*
X133582956Y-137671806D01*
X133575300Y-137594066D01*
X133515232Y-137396046D01*
X133417685Y-137213550D01*
X133365702Y-137150209D01*
X133286410Y-137053589D01*
X133126452Y-136922317D01*
X133126453Y-136922317D01*
X133126450Y-136922315D01*
X132943954Y-136824768D01*
X132745934Y-136764700D01*
X132745932Y-136764699D01*
X132745934Y-136764699D01*
X132540000Y-136744417D01*
X132334067Y-136764699D01*
X132136043Y-136824769D01*
X132025898Y-136883643D01*
X131953550Y-136922315D01*
X131953548Y-136922316D01*
X131953547Y-136922317D01*
X131793589Y-137053589D01*
X131662317Y-137213547D01*
X131662315Y-137213550D01*
X131623949Y-137285327D01*
X131564769Y-137396043D01*
X131504699Y-137594067D01*
X131484417Y-137800000D01*
X131504699Y-138005932D01*
X131564769Y-138203956D01*
X131662317Y-138386453D01*
X131711871Y-138446835D01*
X131739184Y-138511145D01*
X131727393Y-138580013D01*
X131680240Y-138631573D01*
X131616018Y-138649500D01*
X130923982Y-138649500D01*
X130856943Y-138629815D01*
X130811188Y-138577011D01*
X130801244Y-138507853D01*
X130828129Y-138446835D01*
X130849095Y-138421286D01*
X130877685Y-138386450D01*
X130975232Y-138203954D01*
X131035300Y-138005934D01*
X131055583Y-137800000D01*
X131035300Y-137594066D01*
X130975232Y-137396046D01*
X130877685Y-137213550D01*
X130825702Y-137150209D01*
X130746410Y-137053589D01*
X130586452Y-136922317D01*
X130586453Y-136922317D01*
X130586450Y-136922315D01*
X130403954Y-136824768D01*
X130205934Y-136764700D01*
X130205932Y-136764699D01*
X130205934Y-136764699D01*
X130000000Y-136744417D01*
X129794067Y-136764699D01*
X129596043Y-136824769D01*
X129485898Y-136883643D01*
X129413550Y-136922315D01*
X129413548Y-136922316D01*
X129413547Y-136922317D01*
X129253589Y-137053589D01*
X129122317Y-137213547D01*
X129122315Y-137213550D01*
X129083949Y-137285327D01*
X129024769Y-137396043D01*
X128964699Y-137594067D01*
X128944417Y-137800000D01*
X128964699Y-138005932D01*
X129024769Y-138203956D01*
X129122317Y-138386453D01*
X129171871Y-138446835D01*
X129199184Y-138511145D01*
X129187393Y-138580013D01*
X129140240Y-138631573D01*
X129076018Y-138649500D01*
X127195259Y-138649500D01*
X127128220Y-138629815D01*
X127082465Y-138577011D01*
X127072521Y-138507853D01*
X127099405Y-138446836D01*
X127128469Y-138411420D01*
X127177685Y-138351450D01*
X127275232Y-138168954D01*
X127335300Y-137970934D01*
X127355583Y-137765000D01*
X127335300Y-137559066D01*
X127312125Y-137482671D01*
X127311503Y-137412805D01*
X127343104Y-137358998D01*
X128395749Y-136306353D01*
X128406098Y-136297105D01*
X128433970Y-136274879D01*
X128466184Y-136227628D01*
X128468852Y-136223869D01*
X128502792Y-136177883D01*
X128502793Y-136177877D01*
X128506786Y-136170325D01*
X128510468Y-136162677D01*
X128510472Y-136162673D01*
X128527336Y-136107998D01*
X128528769Y-136103643D01*
X128547646Y-136049700D01*
X128547646Y-136049694D01*
X128549228Y-136041336D01*
X128550500Y-136032899D01*
X128550500Y-135975738D01*
X128550587Y-135971100D01*
X128552724Y-135913989D01*
X128551684Y-135904756D01*
X128552513Y-135904662D01*
X128550500Y-135889364D01*
X128550500Y-135260000D01*
X131484417Y-135260000D01*
X131504699Y-135465932D01*
X131504700Y-135465934D01*
X131564768Y-135663954D01*
X131662315Y-135846450D01*
X131662317Y-135846452D01*
X131793589Y-136006410D01*
X131880088Y-136077397D01*
X131953550Y-136137685D01*
X132136046Y-136235232D01*
X132334066Y-136295300D01*
X132334065Y-136295300D01*
X132352270Y-136297093D01*
X132540000Y-136315583D01*
X132745934Y-136295300D01*
X132943954Y-136235232D01*
X133126450Y-136137685D01*
X133286410Y-136006410D01*
X133417685Y-135846450D01*
X133515232Y-135663954D01*
X133575300Y-135465934D01*
X133595583Y-135260000D01*
X133575300Y-135054066D01*
X133515232Y-134856046D01*
X133417685Y-134673550D01*
X133316525Y-134550285D01*
X133286410Y-134513589D01*
X133126452Y-134382317D01*
X133126453Y-134382317D01*
X133126450Y-134382315D01*
X132943954Y-134284768D01*
X132745934Y-134224700D01*
X132745932Y-134224699D01*
X132745934Y-134224699D01*
X132540000Y-134204417D01*
X132334067Y-134224699D01*
X132136043Y-134284769D01*
X132032281Y-134340232D01*
X131953550Y-134382315D01*
X131953548Y-134382316D01*
X131953547Y-134382317D01*
X131793589Y-134513589D01*
X131662317Y-134673547D01*
X131662315Y-134673550D01*
X131661292Y-134675464D01*
X131564769Y-134856043D01*
X131504699Y-135054067D01*
X131484417Y-135260000D01*
X128550500Y-135260000D01*
X128550500Y-134427913D01*
X128570185Y-134360874D01*
X128586815Y-134340236D01*
X129395744Y-133531306D01*
X129406093Y-133522058D01*
X129433970Y-133499828D01*
X129466198Y-133452556D01*
X129468812Y-133448872D01*
X129502793Y-133402831D01*
X129502793Y-133402828D01*
X129502795Y-133402827D01*
X129506787Y-133395273D01*
X129510471Y-133387624D01*
X129527324Y-133332984D01*
X129528762Y-133328611D01*
X129547646Y-133274648D01*
X129547646Y-133274645D01*
X129549232Y-133266260D01*
X129550500Y-133257853D01*
X129550500Y-133200687D01*
X129550587Y-133196049D01*
X129552724Y-133138941D01*
X129551684Y-133129710D01*
X129552513Y-133129616D01*
X129550500Y-133114315D01*
X129550500Y-127367964D01*
X129570185Y-127300925D01*
X129586814Y-127280288D01*
X133630841Y-123236260D01*
X133692162Y-123202777D01*
X133761854Y-123207761D01*
X133763294Y-123208309D01*
X133803115Y-123223736D01*
X134013159Y-123263000D01*
X134013161Y-123263000D01*
X134226839Y-123263000D01*
X134226841Y-123263000D01*
X134436885Y-123223736D01*
X134636138Y-123146545D01*
X134817815Y-123034056D01*
X134952006Y-122911723D01*
X134975726Y-122890101D01*
X134977601Y-122887619D01*
X135104500Y-122719577D01*
X135199747Y-122528296D01*
X135258224Y-122322771D01*
X135274529Y-122146811D01*
X135288548Y-122111504D01*
X135279023Y-122096682D01*
X135274529Y-122073188D01*
X135258224Y-121897229D01*
X135258223Y-121897227D01*
X135199748Y-121691708D01*
X135199747Y-121691704D01*
X135199742Y-121691693D01*
X135104503Y-121500428D01*
X135104498Y-121500420D01*
X134975726Y-121329898D01*
X134817815Y-121185944D01*
X134817813Y-121185942D01*
X134636141Y-121073456D01*
X134636135Y-121073453D01*
X134479097Y-121012617D01*
X134436885Y-120996264D01*
X134226841Y-120957000D01*
X134013159Y-120957000D01*
X133803115Y-120996264D01*
X133803112Y-120996264D01*
X133803112Y-120996265D01*
X133603864Y-121073453D01*
X133603858Y-121073456D01*
X133422186Y-121185942D01*
X133422184Y-121185944D01*
X133264273Y-121329898D01*
X133135501Y-121500420D01*
X133135496Y-121500428D01*
X133040257Y-121691693D01*
X133040251Y-121691708D01*
X132981776Y-121897227D01*
X132981775Y-121897229D01*
X132962060Y-122109999D01*
X132962060Y-122110000D01*
X132981775Y-122322770D01*
X132981776Y-122322773D01*
X133025703Y-122477161D01*
X133025116Y-122547028D01*
X132994118Y-122598776D01*
X132705275Y-122887619D01*
X132643952Y-122921104D01*
X132574260Y-122916120D01*
X132518327Y-122874248D01*
X132493910Y-122808784D01*
X132494654Y-122783760D01*
X132505682Y-122700000D01*
X132485044Y-122543238D01*
X132424536Y-122397159D01*
X132328282Y-122271718D01*
X132328280Y-122271716D01*
X132328279Y-122271715D01*
X132274012Y-122230074D01*
X132232810Y-122173646D01*
X132225500Y-122131699D01*
X132225500Y-101168298D01*
X132245185Y-101101259D01*
X132274010Y-101069925D01*
X132328282Y-101028282D01*
X132424536Y-100902841D01*
X132485044Y-100756762D01*
X132505682Y-100600000D01*
X132498966Y-100548990D01*
X132485044Y-100443239D01*
X132485044Y-100443238D01*
X132424536Y-100297159D01*
X132328282Y-100171718D01*
X132202841Y-100075464D01*
X132056762Y-100014956D01*
X132056760Y-100014955D01*
X131900001Y-99994318D01*
X131899999Y-99994318D01*
X131743239Y-100014955D01*
X131743237Y-100014956D01*
X131597160Y-100075463D01*
X131471718Y-100171718D01*
X131375463Y-100297160D01*
X131314956Y-100443237D01*
X131314955Y-100443239D01*
X131294318Y-100599998D01*
X131294318Y-100600001D01*
X131314955Y-100756760D01*
X131314956Y-100756762D01*
X131375464Y-100902841D01*
X131471718Y-101028282D01*
X131525987Y-101069924D01*
X131567189Y-101126349D01*
X131574500Y-101168298D01*
X131574500Y-122131699D01*
X131554815Y-122198738D01*
X131525988Y-122230074D01*
X131471720Y-122271715D01*
X131375463Y-122397160D01*
X131314956Y-122543237D01*
X131314955Y-122543239D01*
X131294318Y-122699998D01*
X131294318Y-122700001D01*
X131314955Y-122856760D01*
X131314956Y-122856762D01*
X131375464Y-123002841D01*
X131471718Y-123128282D01*
X131597159Y-123224536D01*
X131743238Y-123285044D01*
X131816241Y-123294655D01*
X131899999Y-123305682D01*
X131900000Y-123305682D01*
X131983755Y-123294655D01*
X132052787Y-123305420D01*
X132105043Y-123351800D01*
X132123929Y-123419068D01*
X132103449Y-123485869D01*
X132087619Y-123505275D01*
X129062181Y-126530714D01*
X129000858Y-126564199D01*
X128931166Y-126559215D01*
X128875233Y-126517343D01*
X128850816Y-126451879D01*
X128850500Y-126443033D01*
X128850500Y-105707361D01*
X128851280Y-105693476D01*
X128855270Y-105658065D01*
X128852662Y-105644280D01*
X128850500Y-105621227D01*
X128850500Y-102137964D01*
X128870185Y-102070925D01*
X128886814Y-102050287D01*
X129995744Y-100941357D01*
X130006093Y-100932109D01*
X130033970Y-100909879D01*
X130066198Y-100862607D01*
X130068812Y-100858923D01*
X130102793Y-100812882D01*
X130102793Y-100812879D01*
X130102795Y-100812878D01*
X130106787Y-100805324D01*
X130110471Y-100797675D01*
X130110472Y-100797673D01*
X130127330Y-100743014D01*
X130128762Y-100738662D01*
X130147646Y-100684699D01*
X130147646Y-100684696D01*
X130149228Y-100676336D01*
X130150500Y-100667899D01*
X130150500Y-100610754D01*
X130150587Y-100606116D01*
X130152725Y-100548990D01*
X130151685Y-100539758D01*
X130152513Y-100539664D01*
X130150500Y-100524361D01*
X130150500Y-98441419D01*
X130170185Y-98374380D01*
X130176124Y-98365933D01*
X130209038Y-98323038D01*
X130224536Y-98302841D01*
X130285044Y-98156762D01*
X130305682Y-98000000D01*
X130285044Y-97843238D01*
X130224536Y-97697159D01*
X130128282Y-97571718D01*
X130002841Y-97475464D01*
X129856762Y-97414956D01*
X129856760Y-97414955D01*
X129700001Y-97394318D01*
X129699999Y-97394318D01*
X129543239Y-97414955D01*
X129543237Y-97414956D01*
X129397160Y-97475463D01*
X129271718Y-97571718D01*
X129175463Y-97697160D01*
X129114956Y-97843237D01*
X129114955Y-97843239D01*
X129094318Y-97999998D01*
X129094318Y-98000001D01*
X129114955Y-98156760D01*
X129114957Y-98156765D01*
X129175461Y-98302836D01*
X129175464Y-98302841D01*
X129223876Y-98365933D01*
X129249070Y-98431102D01*
X129249500Y-98441419D01*
X129249500Y-100362034D01*
X129229815Y-100429073D01*
X129213181Y-100449715D01*
X128104263Y-101558632D01*
X128093898Y-101567895D01*
X128066033Y-101590117D01*
X128066030Y-101590121D01*
X128033823Y-101637357D01*
X128031144Y-101641132D01*
X127997206Y-101687118D01*
X127993216Y-101694667D01*
X127989528Y-101702325D01*
X127972673Y-101756967D01*
X127971225Y-101761368D01*
X127952353Y-101815304D01*
X127950771Y-101823659D01*
X127949500Y-101832100D01*
X127949500Y-101889260D01*
X127949413Y-101893897D01*
X127947275Y-101951009D01*
X127948316Y-101960243D01*
X127947485Y-101960336D01*
X127949500Y-101975635D01*
X127949500Y-104288135D01*
X127929815Y-104355174D01*
X127877011Y-104400929D01*
X127807853Y-104410873D01*
X127744297Y-104381848D01*
X127737819Y-104375816D01*
X126210628Y-102848625D01*
X126177143Y-102787302D01*
X126174988Y-102747986D01*
X126190542Y-102600000D01*
X126171626Y-102420023D01*
X126115703Y-102247912D01*
X126025219Y-102091188D01*
X125988388Y-102050283D01*
X125904133Y-101956707D01*
X125904130Y-101956705D01*
X125904129Y-101956704D01*
X125904128Y-101956703D01*
X125811301Y-101889260D01*
X125757719Y-101850330D01*
X125630794Y-101793820D01*
X125592398Y-101776726D01*
X125592396Y-101776725D01*
X125592395Y-101776725D01*
X125415384Y-101739100D01*
X125234416Y-101739100D01*
X125057404Y-101776725D01*
X124892080Y-101850330D01*
X124745669Y-101956705D01*
X124745666Y-101956707D01*
X124624581Y-102091187D01*
X124534096Y-102247914D01*
X124534094Y-102247918D01*
X124478175Y-102420019D01*
X124478174Y-102420023D01*
X124459258Y-102600000D01*
X124478174Y-102779977D01*
X124478175Y-102779980D01*
X124534094Y-102952081D01*
X124534096Y-102952085D01*
X124534097Y-102952088D01*
X124624581Y-103108812D01*
X124745666Y-103243292D01*
X124745669Y-103243294D01*
X124745672Y-103243297D01*
X124855477Y-103323075D01*
X124892080Y-103349669D01*
X124955542Y-103377923D01*
X125057402Y-103423274D01*
X125234416Y-103460900D01*
X125415381Y-103460900D01*
X125415384Y-103460900D01*
X125459472Y-103451528D01*
X125529136Y-103456843D01*
X125572933Y-103485137D01*
X127913181Y-105825384D01*
X127946666Y-105886707D01*
X127949500Y-105913065D01*
X127949500Y-117792239D01*
X127929815Y-117859278D01*
X127877011Y-117905033D01*
X127807853Y-117914977D01*
X127744297Y-117885952D01*
X127713118Y-117844644D01*
X127623092Y-117651583D01*
X127623091Y-117651582D01*
X127493433Y-117466411D01*
X127333589Y-117306567D01*
X127148417Y-117176908D01*
X127148418Y-117176908D01*
X127148416Y-117176907D01*
X127045980Y-117129141D01*
X126943544Y-117081374D01*
X126943540Y-117081373D01*
X126943536Y-117081371D01*
X126725198Y-117022868D01*
X126725188Y-117022866D01*
X126556408Y-117008100D01*
X126556407Y-117008100D01*
X126443593Y-117008100D01*
X126443592Y-117008100D01*
X126274811Y-117022866D01*
X126274801Y-117022868D01*
X126056463Y-117081371D01*
X126056454Y-117081375D01*
X125851583Y-117176907D01*
X125728045Y-117263409D01*
X125666411Y-117306567D01*
X125666409Y-117306568D01*
X125666406Y-117306571D01*
X125506567Y-117466410D01*
X125376908Y-117651582D01*
X125281375Y-117856454D01*
X125281371Y-117856463D01*
X125222868Y-118074801D01*
X125222866Y-118074811D01*
X125203165Y-118299999D01*
X125203165Y-118300000D01*
X125222866Y-118525188D01*
X125222868Y-118525198D01*
X125281371Y-118743536D01*
X125281373Y-118743540D01*
X125281374Y-118743544D01*
X125329141Y-118845980D01*
X125376907Y-118948416D01*
X125389445Y-118966322D01*
X125506567Y-119133589D01*
X125666411Y-119293433D01*
X125851583Y-119423092D01*
X126056456Y-119518626D01*
X126274807Y-119577133D01*
X126443591Y-119591899D01*
X126443592Y-119591900D01*
X126443593Y-119591900D01*
X126556408Y-119591900D01*
X126556408Y-119591899D01*
X126725193Y-119577133D01*
X126943544Y-119518626D01*
X127148417Y-119423092D01*
X127333589Y-119293433D01*
X127493433Y-119133589D01*
X127623092Y-118948418D01*
X127713118Y-118755356D01*
X127759290Y-118702916D01*
X127826483Y-118683764D01*
X127893365Y-118703980D01*
X127938699Y-118757145D01*
X127949500Y-118807760D01*
X127949500Y-128267443D01*
X127929815Y-128334482D01*
X127877011Y-128380237D01*
X127807853Y-128390181D01*
X127744297Y-128361156D01*
X127716142Y-128325896D01*
X127671014Y-128241467D01*
X127671009Y-128241460D01*
X127545983Y-128089116D01*
X127393639Y-127964090D01*
X127393632Y-127964086D01*
X127219833Y-127871188D01*
X127219827Y-127871186D01*
X127031232Y-127813976D01*
X127031229Y-127813975D01*
X126835100Y-127794659D01*
X126638970Y-127813975D01*
X126450366Y-127871188D01*
X126276567Y-127964086D01*
X126276560Y-127964090D01*
X126124216Y-128089116D01*
X125999190Y-128241460D01*
X125999186Y-128241467D01*
X125906286Y-128415271D01*
X125858760Y-128571942D01*
X125820463Y-128630380D01*
X125756650Y-128658837D01*
X125687583Y-128648276D01*
X125635190Y-128602051D01*
X125621440Y-128571942D01*
X125573913Y-128415271D01*
X125481013Y-128241467D01*
X125481009Y-128241460D01*
X125355983Y-128089116D01*
X125203639Y-127964090D01*
X125203632Y-127964085D01*
X125036147Y-127874563D01*
X124986302Y-127825601D01*
X124970600Y-127765205D01*
X124970600Y-118664715D01*
X124971072Y-118653906D01*
X124974363Y-118616291D01*
X124964587Y-118579807D01*
X124962248Y-118569261D01*
X124955688Y-118532055D01*
X124955687Y-118532054D01*
X124955687Y-118532051D01*
X124953865Y-118527047D01*
X124946915Y-118510268D01*
X124944654Y-118505419D01*
X124944653Y-118505418D01*
X124944653Y-118505416D01*
X124922982Y-118474466D01*
X124917182Y-118465361D01*
X124904960Y-118444192D01*
X124898294Y-118432645D01*
X124898290Y-118432641D01*
X124869362Y-118408368D01*
X124861386Y-118401059D01*
X116086819Y-109626492D01*
X116053334Y-109565169D01*
X116050500Y-109538811D01*
X116050500Y-97770767D01*
X116065896Y-97718331D01*
X116052931Y-97693664D01*
X116050500Y-97669232D01*
X116050500Y-94918398D01*
X116070185Y-94851359D01*
X116122989Y-94805604D01*
X116192147Y-94795660D01*
X116254206Y-94823409D01*
X116275743Y-94841481D01*
X116283718Y-94848789D01*
X117641359Y-96206430D01*
X117674844Y-96267753D01*
X117669860Y-96337445D01*
X117627988Y-96393378D01*
X117564485Y-96417639D01*
X117373313Y-96434364D01*
X117373302Y-96434366D01*
X117153511Y-96493258D01*
X117153502Y-96493261D01*
X116947267Y-96589431D01*
X116947265Y-96589432D01*
X116760858Y-96719954D01*
X116599954Y-96880858D01*
X116469432Y-97067265D01*
X116469431Y-97067267D01*
X116373261Y-97273502D01*
X116373258Y-97273511D01*
X116314366Y-97493302D01*
X116314364Y-97493313D01*
X116298028Y-97680039D01*
X116282739Y-97719124D01*
X116293477Y-97735832D01*
X116298028Y-97759960D01*
X116314364Y-97946686D01*
X116314366Y-97946697D01*
X116373258Y-98166488D01*
X116373261Y-98166497D01*
X116469431Y-98372732D01*
X116469432Y-98372734D01*
X116599954Y-98559141D01*
X116760858Y-98720045D01*
X116760861Y-98720047D01*
X116947266Y-98850568D01*
X117077904Y-98911485D01*
X117130344Y-98957657D01*
X117149500Y-99023867D01*
X117149500Y-103747738D01*
X117148720Y-103761623D01*
X117144729Y-103797036D01*
X117155355Y-103853196D01*
X117156132Y-103857765D01*
X117164652Y-103914291D01*
X117167162Y-103922427D01*
X117169976Y-103930470D01*
X117196688Y-103981011D01*
X117198776Y-103985149D01*
X117223574Y-104036641D01*
X117228362Y-104043665D01*
X117233431Y-104050532D01*
X117233434Y-104050538D01*
X117233438Y-104050542D01*
X117273847Y-104090951D01*
X117277064Y-104094290D01*
X117315947Y-104136196D01*
X117323210Y-104141988D01*
X117322689Y-104142641D01*
X117334930Y-104152034D01*
X120363181Y-107180284D01*
X120396666Y-107241607D01*
X120399500Y-107267965D01*
X120399500Y-108999752D01*
X120411131Y-109058229D01*
X120411132Y-109058230D01*
X120455447Y-109124552D01*
X120521769Y-109168867D01*
X120521770Y-109168868D01*
X120580247Y-109180499D01*
X120580250Y-109180500D01*
X120580252Y-109180500D01*
X122819750Y-109180500D01*
X122819751Y-109180499D01*
X122834568Y-109177552D01*
X122878229Y-109168868D01*
X122878229Y-109168867D01*
X122878231Y-109168867D01*
X122944552Y-109124552D01*
X122988867Y-109058231D01*
X122988867Y-109058229D01*
X122988868Y-109058229D01*
X123000499Y-108999752D01*
X123000500Y-108999750D01*
X123000500Y-106760249D01*
X123000499Y-106760247D01*
X122988868Y-106701770D01*
X122988867Y-106701769D01*
X122944552Y-106635447D01*
X122878230Y-106591132D01*
X122878229Y-106591131D01*
X122819752Y-106579500D01*
X122819748Y-106579500D01*
X121087965Y-106579500D01*
X121020926Y-106559815D01*
X121000284Y-106543181D01*
X119597103Y-105140000D01*
X124459258Y-105140000D01*
X124478174Y-105319977D01*
X124478175Y-105319980D01*
X124534094Y-105492081D01*
X124534096Y-105492085D01*
X124534097Y-105492088D01*
X124608655Y-105621227D01*
X124624581Y-105648812D01*
X124745666Y-105783292D01*
X124745669Y-105783294D01*
X124745672Y-105783297D01*
X124803600Y-105825384D01*
X124892080Y-105889669D01*
X124944630Y-105913065D01*
X125057402Y-105963274D01*
X125234416Y-106000900D01*
X125415384Y-106000900D01*
X125592398Y-105963274D01*
X125757721Y-105889668D01*
X125904128Y-105783297D01*
X126025219Y-105648812D01*
X126115703Y-105492088D01*
X126171626Y-105319977D01*
X126190542Y-105140000D01*
X126171626Y-104960023D01*
X126115703Y-104787912D01*
X126025219Y-104631188D01*
X126017167Y-104622245D01*
X125904133Y-104496707D01*
X125904130Y-104496705D01*
X125904129Y-104496704D01*
X125904128Y-104496703D01*
X125830924Y-104443517D01*
X125757719Y-104390330D01*
X125630794Y-104333820D01*
X125592398Y-104316726D01*
X125592396Y-104316725D01*
X125592395Y-104316725D01*
X125415384Y-104279100D01*
X125234416Y-104279100D01*
X125057404Y-104316725D01*
X124892080Y-104390330D01*
X124745669Y-104496705D01*
X124745666Y-104496707D01*
X124624581Y-104631187D01*
X124534096Y-104787914D01*
X124534094Y-104787918D01*
X124478175Y-104960019D01*
X124478174Y-104960023D01*
X124459258Y-105140000D01*
X119597103Y-105140000D01*
X118086819Y-103629716D01*
X118053334Y-103568393D01*
X118050500Y-103542035D01*
X118050500Y-99023867D01*
X118070185Y-98956828D01*
X118122095Y-98911485D01*
X118252734Y-98850568D01*
X118439139Y-98720047D01*
X118439141Y-98720045D01*
X118517819Y-98641368D01*
X118579142Y-98607883D01*
X118648834Y-98612867D01*
X118704767Y-98654739D01*
X118729184Y-98720203D01*
X118729500Y-98729049D01*
X118729500Y-100066229D01*
X118709815Y-100133268D01*
X118680990Y-100164602D01*
X118671721Y-100171714D01*
X118575463Y-100297160D01*
X118514956Y-100443237D01*
X118514955Y-100443239D01*
X118494318Y-100599998D01*
X118494318Y-100600001D01*
X118514955Y-100756760D01*
X118514956Y-100756762D01*
X118575464Y-100902841D01*
X118671718Y-101028282D01*
X118797159Y-101124536D01*
X118943238Y-101185044D01*
X119021619Y-101195363D01*
X119099999Y-101205682D01*
X119100000Y-101205682D01*
X119100001Y-101205682D01*
X119152254Y-101198802D01*
X119256762Y-101185044D01*
X119402841Y-101124536D01*
X119528282Y-101028282D01*
X119624536Y-100902841D01*
X119685044Y-100756762D01*
X119705682Y-100600000D01*
X119698966Y-100548990D01*
X119685044Y-100443239D01*
X119685044Y-100443238D01*
X119624536Y-100297159D01*
X119528282Y-100171718D01*
X119429012Y-100095545D01*
X119387811Y-100039119D01*
X119380500Y-99997171D01*
X119380500Y-98390077D01*
X119400185Y-98323038D01*
X119452989Y-98277283D01*
X119522147Y-98267339D01*
X119551947Y-98275514D01*
X119623238Y-98305044D01*
X119701619Y-98315363D01*
X119779999Y-98325682D01*
X119780000Y-98325682D01*
X119780001Y-98325682D01*
X119832254Y-98318802D01*
X119936762Y-98305044D01*
X120082841Y-98244536D01*
X120145933Y-98196123D01*
X120211102Y-98170930D01*
X120221419Y-98170500D01*
X120396131Y-98170500D01*
X120463170Y-98190185D01*
X120508513Y-98242095D01*
X120569430Y-98372731D01*
X120699954Y-98559141D01*
X120860858Y-98720045D01*
X120860861Y-98720047D01*
X121047266Y-98850568D01*
X121253504Y-98946739D01*
X121473308Y-99005635D01*
X121635230Y-99019801D01*
X121699998Y-99025468D01*
X121700000Y-99025468D01*
X121700002Y-99025468D01*
X121756673Y-99020509D01*
X121926692Y-99005635D01*
X122146496Y-98946739D01*
X122158280Y-98941243D01*
X122227356Y-98930751D01*
X122291141Y-98959269D01*
X122329382Y-99017745D01*
X122329937Y-99087613D01*
X122298367Y-99141306D01*
X121771684Y-99667988D01*
X121710361Y-99701473D01*
X121667818Y-99703246D01*
X121600001Y-99694318D01*
X121599999Y-99694318D01*
X121443239Y-99714955D01*
X121443237Y-99714956D01*
X121297160Y-99775463D01*
X121171718Y-99871718D01*
X121075463Y-99997160D01*
X121014956Y-100143237D01*
X121014955Y-100143239D01*
X120994318Y-100299998D01*
X120994318Y-100300001D01*
X121014955Y-100456760D01*
X121014956Y-100456762D01*
X121074287Y-100600001D01*
X121075464Y-100602841D01*
X121171718Y-100728282D01*
X121297159Y-100824536D01*
X121443238Y-100885044D01*
X121521619Y-100895363D01*
X121599999Y-100905682D01*
X121600000Y-100905682D01*
X121600001Y-100905682D01*
X121652254Y-100898802D01*
X121756762Y-100885044D01*
X121902841Y-100824536D01*
X122028282Y-100728282D01*
X122124536Y-100602841D01*
X122185044Y-100456762D01*
X122205682Y-100300000D01*
X122198122Y-100242582D01*
X122196753Y-100232180D01*
X122207518Y-100163145D01*
X122232008Y-100128316D01*
X123037820Y-99322505D01*
X123099142Y-99289021D01*
X123168834Y-99294005D01*
X123224767Y-99335877D01*
X123249184Y-99401341D01*
X123249500Y-99410187D01*
X123249500Y-99558580D01*
X123229815Y-99625619D01*
X123223876Y-99634066D01*
X123175464Y-99697157D01*
X123114956Y-99843237D01*
X123114955Y-99843239D01*
X123094318Y-99999998D01*
X123094318Y-100000001D01*
X123114955Y-100156760D01*
X123114956Y-100156762D01*
X123174287Y-100300001D01*
X123175464Y-100302841D01*
X123271718Y-100428282D01*
X123397159Y-100524536D01*
X123543238Y-100585044D01*
X123621619Y-100595363D01*
X123699999Y-100605682D01*
X123700000Y-100605682D01*
X123700001Y-100605682D01*
X123752254Y-100598802D01*
X123856762Y-100585044D01*
X124002841Y-100524536D01*
X124128282Y-100428282D01*
X124224536Y-100302841D01*
X124249496Y-100242581D01*
X124293336Y-100188178D01*
X124359630Y-100166113D01*
X124427330Y-100183392D01*
X124474941Y-100234529D01*
X124481988Y-100251715D01*
X124534095Y-100412084D01*
X124534096Y-100412085D01*
X124534097Y-100412088D01*
X124607753Y-100539664D01*
X124624581Y-100568812D01*
X124745666Y-100703292D01*
X124745669Y-100703294D01*
X124745672Y-100703297D01*
X124855477Y-100783075D01*
X124892080Y-100809669D01*
X124925473Y-100824536D01*
X125057402Y-100883274D01*
X125234416Y-100920900D01*
X125415384Y-100920900D01*
X125592398Y-100883274D01*
X125757721Y-100809668D01*
X125904128Y-100703297D01*
X126025219Y-100568812D01*
X126115703Y-100412088D01*
X126171626Y-100239977D01*
X126190542Y-100060000D01*
X126171626Y-99880023D01*
X126115703Y-99707912D01*
X126025219Y-99551188D01*
X126017167Y-99542245D01*
X125904133Y-99416707D01*
X125904130Y-99416705D01*
X125904129Y-99416704D01*
X125904128Y-99416703D01*
X125792881Y-99335877D01*
X125757719Y-99310330D01*
X125630794Y-99253820D01*
X125592398Y-99236726D01*
X125592396Y-99236725D01*
X125592395Y-99236725D01*
X125415384Y-99199100D01*
X125234416Y-99199100D01*
X125057404Y-99236725D01*
X124892080Y-99310330D01*
X124745669Y-99416705D01*
X124745666Y-99416707D01*
X124624581Y-99551187D01*
X124576732Y-99634066D01*
X124541946Y-99694318D01*
X124534096Y-99707914D01*
X124534095Y-99707915D01*
X124503838Y-99801036D01*
X124464400Y-99858711D01*
X124400041Y-99885909D01*
X124331194Y-99873994D01*
X124279719Y-99826749D01*
X124271346Y-99810169D01*
X124224536Y-99697158D01*
X124176124Y-99634066D01*
X124150930Y-99568896D01*
X124150500Y-99558580D01*
X124150500Y-91137965D01*
X124170185Y-91070926D01*
X124186815Y-91050288D01*
X124406423Y-90830679D01*
X124467744Y-90797196D01*
X124477898Y-90795426D01*
X124556762Y-90785044D01*
X124702841Y-90724536D01*
X124828282Y-90628282D01*
X124924536Y-90502841D01*
X124985044Y-90356762D01*
X125003149Y-90219237D01*
X125005682Y-90200001D01*
X125005682Y-90199998D01*
X124985044Y-90043239D01*
X124985044Y-90043238D01*
X124924536Y-89897159D01*
X124828282Y-89771718D01*
X124702841Y-89675464D01*
X124556762Y-89614956D01*
X124556760Y-89614955D01*
X124400001Y-89594318D01*
X124399999Y-89594318D01*
X124243239Y-89614955D01*
X124243237Y-89614956D01*
X124097160Y-89675463D01*
X123971718Y-89771718D01*
X123875463Y-89897160D01*
X123814956Y-90043238D01*
X123804575Y-90122084D01*
X123776308Y-90185980D01*
X123769318Y-90193578D01*
X123662180Y-90300715D01*
X123600859Y-90334200D01*
X123531167Y-90329216D01*
X123475233Y-90287345D01*
X123450816Y-90221881D01*
X123450500Y-90213034D01*
X123450500Y-88097526D01*
X123450972Y-88086717D01*
X123454264Y-88049093D01*
X123453915Y-88047792D01*
X123444478Y-88012575D01*
X123442150Y-88002073D01*
X123435588Y-87964855D01*
X123435585Y-87964849D01*
X123433760Y-87959833D01*
X123426820Y-87943076D01*
X123424554Y-87938219D01*
X123424554Y-87938216D01*
X123402892Y-87907279D01*
X123397080Y-87898156D01*
X123378196Y-87865448D01*
X123378191Y-87865442D01*
X123349255Y-87841162D01*
X123341280Y-87833854D01*
X118888905Y-83381479D01*
X118855420Y-83320156D01*
X118857925Y-83257805D01*
X118906073Y-83099083D01*
X118924657Y-82910400D01*
X118906073Y-82721717D01*
X118851037Y-82540285D01*
X118851033Y-82540277D01*
X118761665Y-82373081D01*
X118761661Y-82373074D01*
X118641383Y-82226516D01*
X118494825Y-82106238D01*
X118494818Y-82106234D01*
X118326484Y-82016258D01*
X118276640Y-81967296D01*
X118261179Y-81899158D01*
X118285010Y-81833479D01*
X118340568Y-81791110D01*
X118384937Y-81782900D01*
X119847972Y-81782900D01*
X119858780Y-81783371D01*
X119896407Y-81786664D01*
X119932919Y-81776879D01*
X119943430Y-81774549D01*
X119980645Y-81767988D01*
X119980650Y-81767984D01*
X119985699Y-81766147D01*
X120002424Y-81759219D01*
X120007281Y-81756954D01*
X120007284Y-81756954D01*
X120038225Y-81735287D01*
X120047344Y-81729479D01*
X120080055Y-81710594D01*
X120080057Y-81710592D01*
X120104336Y-81681656D01*
X120111636Y-81673688D01*
X120690815Y-81094509D01*
X120752136Y-81061026D01*
X120794680Y-81059253D01*
X120862499Y-81068182D01*
X120862500Y-81068182D01*
X120862501Y-81068182D01*
X120914754Y-81061302D01*
X121019262Y-81047544D01*
X121165341Y-80987036D01*
X121290782Y-80890782D01*
X121387036Y-80765341D01*
X121447544Y-80619262D01*
X121468182Y-80462500D01*
X121458589Y-80389637D01*
X121447544Y-80305739D01*
X121447544Y-80305738D01*
X121387036Y-80159659D01*
X121290782Y-80034218D01*
X121165341Y-79937964D01*
X121109792Y-79914955D01*
X121019262Y-79877456D01*
X121019260Y-79877455D01*
X120862501Y-79856818D01*
X120862499Y-79856818D01*
X120705739Y-79877455D01*
X120705737Y-79877456D01*
X120559660Y-79937963D01*
X120434218Y-80034218D01*
X120337963Y-80159660D01*
X120277456Y-80305737D01*
X120277455Y-80305739D01*
X120256818Y-80462498D01*
X120256818Y-80462501D01*
X120265746Y-80530318D01*
X120254980Y-80599353D01*
X120230488Y-80634184D01*
X119769093Y-81095581D01*
X119707770Y-81129066D01*
X119681412Y-81131900D01*
X118839862Y-81131900D01*
X118772823Y-81112215D01*
X118727068Y-81059411D01*
X118717124Y-80990253D01*
X118744008Y-80929236D01*
X118750689Y-80921093D01*
X118761662Y-80907724D01*
X118851037Y-80740515D01*
X118906073Y-80559083D01*
X118924657Y-80370400D01*
X118906073Y-80181717D01*
X118851037Y-80000285D01*
X118837770Y-79975464D01*
X118761665Y-79833081D01*
X118761661Y-79833074D01*
X118675563Y-79728165D01*
X118648250Y-79663856D01*
X118660041Y-79594988D01*
X118707193Y-79543428D01*
X118771416Y-79525500D01*
X122431701Y-79525500D01*
X122498740Y-79545185D01*
X122530077Y-79574014D01*
X122571715Y-79628279D01*
X122571718Y-79628282D01*
X122697159Y-79724536D01*
X122843238Y-79785044D01*
X122921619Y-79795363D01*
X122999999Y-79805682D01*
X123000000Y-79805682D01*
X123000001Y-79805682D01*
X123052254Y-79798802D01*
X123156762Y-79785044D01*
X123302841Y-79724536D01*
X123428282Y-79628282D01*
X123502124Y-79532049D01*
X123558552Y-79490846D01*
X123628298Y-79486691D01*
X123689218Y-79520903D01*
X123721971Y-79582621D01*
X123724500Y-79607535D01*
X123724500Y-82241463D01*
X123724028Y-82252272D01*
X123720735Y-82289899D01*
X123730512Y-82326389D01*
X123732852Y-82336943D01*
X123739411Y-82374133D01*
X123741235Y-82379146D01*
X123748197Y-82395952D01*
X123750446Y-82400775D01*
X123772104Y-82431707D01*
X123777914Y-82440825D01*
X123796806Y-82473546D01*
X123821360Y-82494149D01*
X123825743Y-82497827D01*
X123833718Y-82505135D01*
X126238181Y-84909598D01*
X126271666Y-84970921D01*
X126274500Y-84997279D01*
X126274500Y-95231699D01*
X126254815Y-95298738D01*
X126225988Y-95330074D01*
X126171720Y-95371715D01*
X126075463Y-95497160D01*
X126014956Y-95643237D01*
X126014955Y-95643239D01*
X125994318Y-95799998D01*
X125994318Y-95800001D01*
X126014955Y-95956760D01*
X126014956Y-95956762D01*
X126050775Y-96043238D01*
X126075464Y-96102841D01*
X126171718Y-96228282D01*
X126297159Y-96324536D01*
X126443238Y-96385044D01*
X126521619Y-96395363D01*
X126599999Y-96405682D01*
X126600000Y-96405682D01*
X126600001Y-96405682D01*
X126652254Y-96398802D01*
X126756762Y-96385044D01*
X126902841Y-96324536D01*
X127028282Y-96228282D01*
X127124536Y-96102841D01*
X127185044Y-95956762D01*
X127205682Y-95800000D01*
X127185044Y-95643238D01*
X127124536Y-95497159D01*
X127028282Y-95371718D01*
X127028280Y-95371716D01*
X127028279Y-95371715D01*
X126974012Y-95330074D01*
X126932810Y-95273646D01*
X126925500Y-95231699D01*
X126925500Y-93070400D01*
X132290343Y-93070400D01*
X132308926Y-93259081D01*
X132308927Y-93259083D01*
X132363963Y-93440515D01*
X132363964Y-93440518D01*
X132363965Y-93440519D01*
X132363966Y-93440522D01*
X132453334Y-93607718D01*
X132453338Y-93607725D01*
X132573616Y-93754283D01*
X132720174Y-93874561D01*
X132720181Y-93874565D01*
X132887377Y-93963933D01*
X132887378Y-93963933D01*
X132887385Y-93963937D01*
X133068817Y-94018973D01*
X133068816Y-94018973D01*
X133085733Y-94020639D01*
X133257500Y-94037557D01*
X133446183Y-94018973D01*
X133627615Y-93963937D01*
X133794824Y-93874562D01*
X133941383Y-93754283D01*
X134061662Y-93607724D01*
X134151037Y-93440515D01*
X134206073Y-93259083D01*
X134224657Y-93070400D01*
X134206073Y-92881717D01*
X134151037Y-92700285D01*
X134061662Y-92533076D01*
X134061661Y-92533074D01*
X133941383Y-92386516D01*
X133794825Y-92266238D01*
X133794818Y-92266234D01*
X133627622Y-92176866D01*
X133627619Y-92176865D01*
X133627618Y-92176864D01*
X133627615Y-92176863D01*
X133446183Y-92121827D01*
X133446181Y-92121826D01*
X133446183Y-92121826D01*
X133257500Y-92103243D01*
X133068818Y-92121826D01*
X132961694Y-92154321D01*
X132887385Y-92176863D01*
X132887382Y-92176864D01*
X132887380Y-92176865D01*
X132887377Y-92176866D01*
X132720181Y-92266234D01*
X132720174Y-92266238D01*
X132573616Y-92386516D01*
X132453338Y-92533074D01*
X132453334Y-92533081D01*
X132363966Y-92700277D01*
X132363965Y-92700280D01*
X132363964Y-92700282D01*
X132363963Y-92700285D01*
X132347532Y-92754451D01*
X132308926Y-92881718D01*
X132290343Y-93070400D01*
X126925500Y-93070400D01*
X126925500Y-90530400D01*
X132290343Y-90530400D01*
X132308926Y-90719081D01*
X132308927Y-90719083D01*
X132363963Y-90900515D01*
X132363964Y-90900518D01*
X132363965Y-90900519D01*
X132363966Y-90900522D01*
X132453334Y-91067718D01*
X132453338Y-91067725D01*
X132573616Y-91214283D01*
X132720174Y-91334561D01*
X132720181Y-91334565D01*
X132887377Y-91423933D01*
X132887378Y-91423933D01*
X132887385Y-91423937D01*
X133068817Y-91478973D01*
X133068816Y-91478973D01*
X133085733Y-91480639D01*
X133257500Y-91497557D01*
X133446183Y-91478973D01*
X133627615Y-91423937D01*
X133794824Y-91334562D01*
X133941383Y-91214283D01*
X134061662Y-91067724D01*
X134151037Y-90900515D01*
X134206073Y-90719083D01*
X134224657Y-90530400D01*
X134206073Y-90341717D01*
X134151037Y-90160285D01*
X134061662Y-89993076D01*
X134061661Y-89993074D01*
X133941383Y-89846516D01*
X133794825Y-89726238D01*
X133794818Y-89726234D01*
X133627622Y-89636866D01*
X133627619Y-89636865D01*
X133627618Y-89636864D01*
X133627615Y-89636863D01*
X133446183Y-89581827D01*
X133446181Y-89581826D01*
X133446183Y-89581826D01*
X133257500Y-89563243D01*
X133068818Y-89581826D01*
X132961694Y-89614321D01*
X132887385Y-89636863D01*
X132887382Y-89636864D01*
X132887380Y-89636865D01*
X132887377Y-89636866D01*
X132720181Y-89726234D01*
X132720174Y-89726238D01*
X132573616Y-89846516D01*
X132453338Y-89993074D01*
X132453334Y-89993081D01*
X132363966Y-90160277D01*
X132363965Y-90160280D01*
X132363964Y-90160282D01*
X132363963Y-90160285D01*
X132347962Y-90213034D01*
X132308926Y-90341718D01*
X132290343Y-90530400D01*
X126925500Y-90530400D01*
X126925500Y-84830717D01*
X126925972Y-84819908D01*
X126929264Y-84782284D01*
X126919478Y-84745766D01*
X126917150Y-84735264D01*
X126910588Y-84698046D01*
X126910585Y-84698040D01*
X126908760Y-84693024D01*
X126901820Y-84676267D01*
X126899554Y-84671410D01*
X126899554Y-84671407D01*
X126877892Y-84640470D01*
X126872080Y-84631348D01*
X126853194Y-84598636D01*
X126853192Y-84598635D01*
X126850369Y-84593744D01*
X126850314Y-84593519D01*
X126833056Y-84581738D01*
X126824255Y-84574353D01*
X126816280Y-84567045D01*
X125599555Y-83350320D01*
X125583729Y-83321338D01*
X125556676Y-83307392D01*
X125554563Y-83305328D01*
X124411819Y-82162584D01*
X124378334Y-82101261D01*
X124375500Y-82074903D01*
X124375500Y-81800001D01*
X125394318Y-81800001D01*
X125414955Y-81956760D01*
X125414956Y-81956762D01*
X125474809Y-82101261D01*
X125475464Y-82102841D01*
X125571718Y-82228282D01*
X125625987Y-82269924D01*
X125667189Y-82326349D01*
X125674500Y-82368298D01*
X125674500Y-82918671D01*
X125674028Y-82929480D01*
X125670735Y-82967107D01*
X125680512Y-83003597D01*
X125682852Y-83014151D01*
X125689411Y-83051341D01*
X125691235Y-83056354D01*
X125698197Y-83073160D01*
X125700446Y-83077983D01*
X125722104Y-83108915D01*
X125727914Y-83118033D01*
X125746806Y-83150754D01*
X125746807Y-83150754D01*
X125749630Y-83155644D01*
X125749684Y-83155869D01*
X125766942Y-83167650D01*
X125775743Y-83175035D01*
X125783718Y-83182343D01*
X127000443Y-84399068D01*
X127016269Y-84428051D01*
X127043325Y-84441999D01*
X127045437Y-84444062D01*
X130513181Y-87911806D01*
X130546666Y-87973129D01*
X130549500Y-87999487D01*
X130549500Y-88047792D01*
X130549501Y-88047797D01*
X130555681Y-88064779D01*
X130561274Y-88085651D01*
X130564411Y-88103444D01*
X130573447Y-88119095D01*
X130582579Y-88138680D01*
X130588757Y-88155654D01*
X130588758Y-88155657D01*
X130588760Y-88155660D01*
X130588762Y-88155662D01*
X130600374Y-88169501D01*
X130612773Y-88187209D01*
X130621805Y-88202855D01*
X130630707Y-88210324D01*
X130635647Y-88214469D01*
X130650930Y-88229752D01*
X130662545Y-88243594D01*
X130673166Y-88249726D01*
X130678189Y-88252626D01*
X130695894Y-88265023D01*
X130704907Y-88272585D01*
X130709739Y-88276640D01*
X130726726Y-88282822D01*
X130746307Y-88291954D01*
X130761955Y-88300988D01*
X130779747Y-88304124D01*
X130800621Y-88309717D01*
X130817606Y-88315900D01*
X130846525Y-88315900D01*
X132265793Y-88315900D01*
X132332832Y-88335585D01*
X132375151Y-88381447D01*
X132453334Y-88527718D01*
X132453338Y-88527725D01*
X132573616Y-88674283D01*
X132720174Y-88794561D01*
X132720181Y-88794565D01*
X132887377Y-88883933D01*
X132887378Y-88883933D01*
X132887385Y-88883937D01*
X133068817Y-88938973D01*
X133068816Y-88938973D01*
X133085733Y-88940639D01*
X133257500Y-88957557D01*
X133446183Y-88938973D01*
X133627615Y-88883937D01*
X133794824Y-88794562D01*
X133941383Y-88674283D01*
X134061662Y-88527724D01*
X134151037Y-88360515D01*
X134206073Y-88179083D01*
X134224657Y-87990400D01*
X134206073Y-87801717D01*
X134151037Y-87620285D01*
X134151033Y-87620277D01*
X134061665Y-87453081D01*
X134061661Y-87453074D01*
X133941383Y-87306516D01*
X133794825Y-87186238D01*
X133794818Y-87186234D01*
X133627622Y-87096866D01*
X133627619Y-87096865D01*
X133627618Y-87096864D01*
X133627615Y-87096863D01*
X133446183Y-87041827D01*
X133446181Y-87041826D01*
X133446183Y-87041826D01*
X133257500Y-87023243D01*
X133068818Y-87041826D01*
X132961694Y-87074321D01*
X132887385Y-87096863D01*
X132887382Y-87096864D01*
X132887380Y-87096865D01*
X132887377Y-87096866D01*
X132720181Y-87186234D01*
X132720174Y-87186238D01*
X132573616Y-87306516D01*
X132453338Y-87453074D01*
X132453334Y-87453081D01*
X132375151Y-87599353D01*
X132326189Y-87649197D01*
X132265793Y-87664900D01*
X131236768Y-87664900D01*
X131169729Y-87645215D01*
X131135267Y-87609072D01*
X131135168Y-87609156D01*
X131133855Y-87607591D01*
X131129380Y-87602898D01*
X131128196Y-87600847D01*
X131128191Y-87600841D01*
X131099255Y-87576561D01*
X131091280Y-87569253D01*
X129509608Y-85987581D01*
X129476123Y-85926258D01*
X129481107Y-85856566D01*
X129522979Y-85800633D01*
X129588443Y-85776216D01*
X129597289Y-85775900D01*
X132265793Y-85775900D01*
X132332832Y-85795585D01*
X132375151Y-85841447D01*
X132453334Y-85987718D01*
X132453338Y-85987725D01*
X132573616Y-86134283D01*
X132720174Y-86254561D01*
X132720181Y-86254565D01*
X132887377Y-86343933D01*
X132887378Y-86343933D01*
X132887385Y-86343937D01*
X133068817Y-86398973D01*
X133068816Y-86398973D01*
X133085733Y-86400639D01*
X133257500Y-86417557D01*
X133446183Y-86398973D01*
X133627615Y-86343937D01*
X133794824Y-86254562D01*
X133941383Y-86134283D01*
X134061662Y-85987724D01*
X134151037Y-85820515D01*
X134206073Y-85639083D01*
X134224657Y-85450400D01*
X134206073Y-85261717D01*
X134151037Y-85080285D01*
X134139849Y-85059353D01*
X134061665Y-84913081D01*
X134061661Y-84913074D01*
X133941383Y-84766516D01*
X133794825Y-84646238D01*
X133794818Y-84646234D01*
X133627622Y-84556866D01*
X133627619Y-84556865D01*
X133627618Y-84556864D01*
X133627615Y-84556863D01*
X133446183Y-84501827D01*
X133446181Y-84501826D01*
X133446183Y-84501826D01*
X133257500Y-84483243D01*
X133068818Y-84501826D01*
X132961694Y-84534321D01*
X132887385Y-84556863D01*
X132887382Y-84556864D01*
X132887380Y-84556865D01*
X132887377Y-84556866D01*
X132720181Y-84646234D01*
X132720174Y-84646238D01*
X132573616Y-84766516D01*
X132453338Y-84913074D01*
X132453334Y-84913081D01*
X132375151Y-85059353D01*
X132326189Y-85109197D01*
X132265793Y-85124900D01*
X129334686Y-85124900D01*
X129267647Y-85105215D01*
X129247005Y-85088581D01*
X127086819Y-82928395D01*
X127076993Y-82910400D01*
X132290343Y-82910400D01*
X132308926Y-83099081D01*
X132314675Y-83118033D01*
X132363963Y-83280515D01*
X132363964Y-83280518D01*
X132363965Y-83280519D01*
X132363966Y-83280522D01*
X132453334Y-83447718D01*
X132453338Y-83447725D01*
X132573616Y-83594283D01*
X132720174Y-83714561D01*
X132720181Y-83714565D01*
X132887377Y-83803933D01*
X132887378Y-83803933D01*
X132887385Y-83803937D01*
X133068817Y-83858973D01*
X133068816Y-83858973D01*
X133085733Y-83860639D01*
X133257500Y-83877557D01*
X133446183Y-83858973D01*
X133627615Y-83803937D01*
X133794824Y-83714562D01*
X133941383Y-83594283D01*
X134061662Y-83447724D01*
X134151037Y-83280515D01*
X134206073Y-83099083D01*
X134224657Y-82910400D01*
X134206073Y-82721717D01*
X134151037Y-82540285D01*
X134151033Y-82540277D01*
X134061665Y-82373081D01*
X134061661Y-82373074D01*
X133941383Y-82226516D01*
X133794825Y-82106238D01*
X133794818Y-82106234D01*
X133627622Y-82016866D01*
X133627619Y-82016865D01*
X133627618Y-82016864D01*
X133627615Y-82016863D01*
X133446183Y-81961827D01*
X133446181Y-81961826D01*
X133446183Y-81961826D01*
X133257500Y-81943243D01*
X133068818Y-81961826D01*
X132982195Y-81988103D01*
X132887385Y-82016863D01*
X132887382Y-82016864D01*
X132887380Y-82016865D01*
X132887377Y-82016866D01*
X132720181Y-82106234D01*
X132720174Y-82106238D01*
X132573616Y-82226516D01*
X132453338Y-82373074D01*
X132453334Y-82373081D01*
X132363966Y-82540277D01*
X132363965Y-82540280D01*
X132363964Y-82540282D01*
X132363963Y-82540285D01*
X132341421Y-82614594D01*
X132308926Y-82721718D01*
X132290343Y-82910400D01*
X127076993Y-82910400D01*
X127053334Y-82867072D01*
X127050500Y-82840714D01*
X127050500Y-81344626D01*
X127050972Y-81333817D01*
X127054264Y-81296193D01*
X127048709Y-81275464D01*
X127044478Y-81259675D01*
X127042150Y-81249173D01*
X127035588Y-81211955D01*
X127035585Y-81211949D01*
X127033756Y-81206922D01*
X127026820Y-81190176D01*
X127024554Y-81185319D01*
X127024554Y-81185316D01*
X127005464Y-81158052D01*
X127002892Y-81154379D01*
X126997080Y-81145256D01*
X126978196Y-81112548D01*
X126978191Y-81112542D01*
X126949255Y-81088262D01*
X126941280Y-81080954D01*
X126632011Y-80771685D01*
X126598526Y-80710362D01*
X126596753Y-80667818D01*
X126605682Y-80600000D01*
X126605682Y-80599998D01*
X126585044Y-80443239D01*
X126585044Y-80443238D01*
X126524536Y-80297159D01*
X126428282Y-80171718D01*
X126302841Y-80075464D01*
X126293797Y-80071718D01*
X126156762Y-80014956D01*
X126156760Y-80014955D01*
X126000001Y-79994318D01*
X125999999Y-79994318D01*
X125843239Y-80014955D01*
X125843237Y-80014956D01*
X125697160Y-80075463D01*
X125571718Y-80171718D01*
X125475463Y-80297160D01*
X125414956Y-80443237D01*
X125414955Y-80443239D01*
X125394318Y-80599998D01*
X125394318Y-80600001D01*
X125414955Y-80756760D01*
X125414956Y-80756762D01*
X125470468Y-80890781D01*
X125475464Y-80902841D01*
X125571718Y-81028282D01*
X125667300Y-81101625D01*
X125708502Y-81158052D01*
X125712657Y-81227798D01*
X125678444Y-81288719D01*
X125667304Y-81298372D01*
X125607647Y-81344149D01*
X125571718Y-81371718D01*
X125475463Y-81497160D01*
X125414956Y-81643237D01*
X125414955Y-81643239D01*
X125394318Y-81799998D01*
X125394318Y-81800001D01*
X124375500Y-81800001D01*
X124375500Y-79610883D01*
X124395185Y-79543844D01*
X124411819Y-79523202D01*
X126898203Y-77036819D01*
X126959526Y-77003334D01*
X126985884Y-77000500D01*
X127388812Y-77000500D01*
X127455851Y-77020185D01*
X127476493Y-77036819D01*
X130767988Y-80328314D01*
X130801473Y-80389637D01*
X130803246Y-80432179D01*
X130794318Y-80499997D01*
X130794318Y-80500001D01*
X130814955Y-80656760D01*
X130814956Y-80656762D01*
X130856376Y-80756760D01*
X130875464Y-80802841D01*
X130971718Y-80928282D01*
X131097159Y-81024536D01*
X131243238Y-81085044D01*
X131315147Y-81094511D01*
X131399999Y-81105682D01*
X131400000Y-81105682D01*
X131400001Y-81105682D01*
X131476725Y-81095581D01*
X131556762Y-81085044D01*
X131702841Y-81024536D01*
X131828282Y-80928282D01*
X131924536Y-80802841D01*
X131985044Y-80656762D01*
X132005682Y-80500000D01*
X131985044Y-80343238D01*
X131924536Y-80197159D01*
X131828282Y-80071718D01*
X131702841Y-79975464D01*
X131556762Y-79914956D01*
X131556760Y-79914955D01*
X131400001Y-79894318D01*
X131399997Y-79894318D01*
X131332179Y-79903246D01*
X131263144Y-79892480D01*
X131228314Y-79867988D01*
X129190726Y-77830400D01*
X132290343Y-77830400D01*
X132308926Y-78019081D01*
X132308927Y-78019083D01*
X132363963Y-78200515D01*
X132363964Y-78200518D01*
X132363965Y-78200519D01*
X132363966Y-78200522D01*
X132453334Y-78367718D01*
X132453338Y-78367725D01*
X132573616Y-78514283D01*
X132720174Y-78634561D01*
X132720181Y-78634565D01*
X132887377Y-78723933D01*
X132887378Y-78723933D01*
X132887385Y-78723937D01*
X133068817Y-78778973D01*
X133068816Y-78778973D01*
X133085733Y-78780639D01*
X133257500Y-78797557D01*
X133446183Y-78778973D01*
X133627615Y-78723937D01*
X133794824Y-78634562D01*
X133941383Y-78514283D01*
X134061662Y-78367724D01*
X134151037Y-78200515D01*
X134206073Y-78019083D01*
X134224657Y-77830400D01*
X134206073Y-77641717D01*
X134151037Y-77460285D01*
X134061662Y-77293076D01*
X134061661Y-77293074D01*
X133941383Y-77146516D01*
X133794825Y-77026238D01*
X133794818Y-77026234D01*
X133627622Y-76936866D01*
X133627619Y-76936865D01*
X133627618Y-76936864D01*
X133627615Y-76936863D01*
X133446183Y-76881827D01*
X133446181Y-76881826D01*
X133446183Y-76881826D01*
X133257500Y-76863243D01*
X133068818Y-76881826D01*
X132961694Y-76914321D01*
X132887385Y-76936863D01*
X132887382Y-76936864D01*
X132887380Y-76936865D01*
X132887377Y-76936866D01*
X132720181Y-77026234D01*
X132720174Y-77026238D01*
X132573616Y-77146516D01*
X132453338Y-77293074D01*
X132453334Y-77293081D01*
X132363966Y-77460277D01*
X132363965Y-77460280D01*
X132308926Y-77641718D01*
X132290343Y-77830400D01*
X129190726Y-77830400D01*
X127819044Y-76458718D01*
X127811734Y-76450741D01*
X127811731Y-76450738D01*
X127787455Y-76421806D01*
X127754734Y-76402914D01*
X127745616Y-76397104D01*
X127714684Y-76375446D01*
X127709861Y-76373197D01*
X127693055Y-76366235D01*
X127688042Y-76364411D01*
X127650852Y-76357852D01*
X127640298Y-76355512D01*
X127603808Y-76345735D01*
X127566181Y-76349028D01*
X127555372Y-76349500D01*
X126819321Y-76349500D01*
X126808512Y-76349028D01*
X126770889Y-76345735D01*
X126734400Y-76355513D01*
X126723839Y-76357854D01*
X126686651Y-76364411D01*
X126681667Y-76366224D01*
X126664825Y-76373201D01*
X126660010Y-76375447D01*
X126629061Y-76397115D01*
X126619947Y-76402921D01*
X126587245Y-76421802D01*
X126587237Y-76421809D01*
X126562961Y-76450738D01*
X126555657Y-76458708D01*
X126477319Y-76537048D01*
X123833715Y-79180652D01*
X123825742Y-79187959D01*
X123799291Y-79210155D01*
X123735283Y-79238169D01*
X123666291Y-79227131D01*
X123614218Y-79180545D01*
X123596644Y-79131352D01*
X123585044Y-79043239D01*
X123585044Y-79043238D01*
X123524536Y-78897159D01*
X123428282Y-78771718D01*
X123302841Y-78675464D01*
X123204097Y-78634563D01*
X123156762Y-78614956D01*
X123156760Y-78614955D01*
X123000001Y-78594318D01*
X122999999Y-78594318D01*
X122843239Y-78614955D01*
X122843237Y-78614956D01*
X122697160Y-78675463D01*
X122571716Y-78771719D01*
X122530077Y-78825986D01*
X122473649Y-78867189D01*
X122431701Y-78874500D01*
X118540968Y-78874500D01*
X118473929Y-78854815D01*
X118428174Y-78802011D01*
X118418230Y-78732853D01*
X118447255Y-78669297D01*
X118482516Y-78641141D01*
X118494822Y-78634563D01*
X118494825Y-78634561D01*
X118641383Y-78514283D01*
X118761661Y-78367725D01*
X118761665Y-78367718D01*
X118851033Y-78200522D01*
X118851037Y-78200515D01*
X118906073Y-78019083D01*
X118924657Y-77830400D01*
X118906073Y-77641717D01*
X118851037Y-77460285D01*
X118761662Y-77293076D01*
X118761661Y-77293074D01*
X118641383Y-77146516D01*
X118494825Y-77026238D01*
X118494818Y-77026234D01*
X118327622Y-76936866D01*
X118327619Y-76936865D01*
X118327618Y-76936864D01*
X118327615Y-76936863D01*
X118146183Y-76881827D01*
X118146181Y-76881826D01*
X118146183Y-76881826D01*
X117957500Y-76863243D01*
X117768818Y-76881826D01*
X117661694Y-76914321D01*
X117587385Y-76936863D01*
X117587382Y-76936864D01*
X117587380Y-76936865D01*
X117587377Y-76936866D01*
X117420181Y-77026234D01*
X117420174Y-77026238D01*
X117273616Y-77146516D01*
X117153338Y-77293074D01*
X117153334Y-77293081D01*
X117063966Y-77460277D01*
X117063965Y-77460280D01*
X117008926Y-77641718D01*
X116990343Y-77830400D01*
X117008926Y-78019081D01*
X117008927Y-78019083D01*
X117063963Y-78200515D01*
X117063964Y-78200518D01*
X117063965Y-78200519D01*
X117063966Y-78200522D01*
X117153334Y-78367718D01*
X117153338Y-78367725D01*
X117273616Y-78514283D01*
X117420174Y-78634561D01*
X117420177Y-78634563D01*
X117432484Y-78641141D01*
X117482329Y-78690103D01*
X117497790Y-78758241D01*
X117473959Y-78823921D01*
X117418402Y-78866290D01*
X117374032Y-78874500D01*
X117319616Y-78874500D01*
X117308807Y-78874028D01*
X117271192Y-78870736D01*
X117234717Y-78880510D01*
X117224161Y-78882850D01*
X117186958Y-78889411D01*
X117181983Y-78891221D01*
X117165118Y-78898207D01*
X117160313Y-78900447D01*
X117129376Y-78922108D01*
X117120262Y-78927915D01*
X117087545Y-78946805D01*
X117063261Y-78975744D01*
X117055956Y-78983715D01*
X115058715Y-80980957D01*
X115050742Y-80988264D01*
X115021807Y-81012544D01*
X115018989Y-81015903D01*
X114960817Y-81054604D01*
X114890956Y-81055712D01*
X114831586Y-81018874D01*
X114801557Y-80955787D01*
X114800000Y-80936196D01*
X114800000Y-73424000D01*
X114819685Y-73356961D01*
X114872489Y-73311206D01*
X114924000Y-73300000D01*
X136276000Y-73300000D01*
X136343039Y-73319685D01*
G37*
%TD.AperFunction*%
%TA.AperFunction,Conductor*%
G36*
X117597102Y-81802585D02*
G01*
X117642857Y-81855389D01*
X117652801Y-81924547D01*
X117623776Y-81988103D01*
X117588516Y-82016258D01*
X117420181Y-82106234D01*
X117420174Y-82106238D01*
X117273616Y-82226516D01*
X117153338Y-82373074D01*
X117153334Y-82373081D01*
X117063966Y-82540277D01*
X117063965Y-82540280D01*
X117063964Y-82540282D01*
X117063963Y-82540285D01*
X117041421Y-82614594D01*
X117008926Y-82721718D01*
X116990343Y-82910400D01*
X117008926Y-83099081D01*
X117014675Y-83118033D01*
X117063963Y-83280515D01*
X117063964Y-83280518D01*
X117063965Y-83280519D01*
X117063966Y-83280522D01*
X117153334Y-83447718D01*
X117153338Y-83447725D01*
X117273616Y-83594283D01*
X117420174Y-83714561D01*
X117420181Y-83714565D01*
X117587377Y-83803933D01*
X117587378Y-83803933D01*
X117587385Y-83803937D01*
X117768817Y-83858973D01*
X117768816Y-83858973D01*
X117785733Y-83860639D01*
X117957500Y-83877557D01*
X118146183Y-83858973D01*
X118304904Y-83810825D01*
X118374769Y-83810202D01*
X118428579Y-83841805D01*
X122763181Y-88176407D01*
X122796666Y-88237730D01*
X122799500Y-88264088D01*
X122799500Y-96680951D01*
X122779815Y-96747990D01*
X122727011Y-96793745D01*
X122657853Y-96803689D01*
X122594297Y-96774664D01*
X122587819Y-96768632D01*
X122539141Y-96719954D01*
X122352734Y-96589432D01*
X122352732Y-96589431D01*
X122146497Y-96493261D01*
X122146488Y-96493258D01*
X121926697Y-96434366D01*
X121926693Y-96434365D01*
X121926692Y-96434365D01*
X121926691Y-96434364D01*
X121926686Y-96434364D01*
X121700002Y-96414532D01*
X121699998Y-96414532D01*
X121473313Y-96434364D01*
X121473302Y-96434366D01*
X121253511Y-96493258D01*
X121253502Y-96493261D01*
X121047267Y-96589431D01*
X121047265Y-96589432D01*
X120860858Y-96719954D01*
X120699954Y-96880858D01*
X120569430Y-97067268D01*
X120508513Y-97197905D01*
X120462340Y-97250344D01*
X120396131Y-97269500D01*
X120221419Y-97269500D01*
X120154380Y-97249815D01*
X120145933Y-97243876D01*
X120082842Y-97195464D01*
X119936762Y-97134956D01*
X119936760Y-97134955D01*
X119780001Y-97114318D01*
X119779999Y-97114318D01*
X119623239Y-97134955D01*
X119623234Y-97134957D01*
X119540366Y-97169282D01*
X119470897Y-97176751D01*
X119408418Y-97145475D01*
X119372766Y-97085386D01*
X119370805Y-97076288D01*
X119365588Y-97046700D01*
X119365585Y-97046695D01*
X119365585Y-97046693D01*
X119363760Y-97041678D01*
X119356820Y-97024921D01*
X119354554Y-97020064D01*
X119354554Y-97020061D01*
X119332892Y-96989124D01*
X119327080Y-96980001D01*
X119308196Y-96947293D01*
X119308191Y-96947287D01*
X119279255Y-96923007D01*
X119271280Y-96915699D01*
X116861819Y-94506238D01*
X116828334Y-94444915D01*
X116825500Y-94418557D01*
X116825500Y-93488204D01*
X116845185Y-93421165D01*
X116897989Y-93375410D01*
X116967147Y-93365466D01*
X117030703Y-93394491D01*
X117060314Y-93435558D01*
X117061091Y-93435143D01*
X117153334Y-93607718D01*
X117153338Y-93607725D01*
X117273616Y-93754283D01*
X117420174Y-93874561D01*
X117420181Y-93874565D01*
X117587377Y-93963933D01*
X117587378Y-93963933D01*
X117587385Y-93963937D01*
X117768817Y-94018973D01*
X117768816Y-94018973D01*
X117785733Y-94020639D01*
X117957500Y-94037557D01*
X118146183Y-94018973D01*
X118327615Y-93963937D01*
X118494824Y-93874562D01*
X118641383Y-93754283D01*
X118761662Y-93607724D01*
X118851037Y-93440515D01*
X118906073Y-93259083D01*
X118924657Y-93070400D01*
X118906073Y-92881717D01*
X118851037Y-92700285D01*
X118761662Y-92533076D01*
X118761661Y-92533074D01*
X118641383Y-92386516D01*
X118494825Y-92266238D01*
X118494818Y-92266234D01*
X118327622Y-92176866D01*
X118327619Y-92176865D01*
X118327618Y-92176864D01*
X118327615Y-92176863D01*
X118146183Y-92121827D01*
X118146181Y-92121826D01*
X118146183Y-92121826D01*
X117957500Y-92103243D01*
X117768818Y-92121826D01*
X117661694Y-92154321D01*
X117587385Y-92176863D01*
X117587382Y-92176864D01*
X117587380Y-92176865D01*
X117587377Y-92176866D01*
X117420181Y-92266234D01*
X117420174Y-92266238D01*
X117273616Y-92386516D01*
X117153338Y-92533074D01*
X117153334Y-92533081D01*
X117061091Y-92705657D01*
X117060007Y-92705077D01*
X117020220Y-92754451D01*
X116953926Y-92776516D01*
X116886227Y-92759237D01*
X116838616Y-92708100D01*
X116825500Y-92652595D01*
X116825500Y-90948204D01*
X116845185Y-90881165D01*
X116897989Y-90835410D01*
X116967147Y-90825466D01*
X117030703Y-90854491D01*
X117060314Y-90895558D01*
X117061091Y-90895143D01*
X117153334Y-91067718D01*
X117153338Y-91067725D01*
X117273616Y-91214283D01*
X117420174Y-91334561D01*
X117420181Y-91334565D01*
X117587377Y-91423933D01*
X117587378Y-91423933D01*
X117587385Y-91423937D01*
X117768817Y-91478973D01*
X117768816Y-91478973D01*
X117785733Y-91480639D01*
X117957500Y-91497557D01*
X118146183Y-91478973D01*
X118327615Y-91423937D01*
X118494824Y-91334562D01*
X118641383Y-91214283D01*
X118761662Y-91067724D01*
X118851037Y-90900515D01*
X118906073Y-90719083D01*
X118924657Y-90530400D01*
X118906073Y-90341717D01*
X118851037Y-90160285D01*
X118761662Y-89993076D01*
X118761661Y-89993074D01*
X118641383Y-89846516D01*
X118494825Y-89726238D01*
X118494818Y-89726234D01*
X118327622Y-89636866D01*
X118327619Y-89636865D01*
X118327618Y-89636864D01*
X118327615Y-89636863D01*
X118146183Y-89581827D01*
X118146181Y-89581826D01*
X118146183Y-89581826D01*
X117957500Y-89563243D01*
X117768818Y-89581826D01*
X117661694Y-89614321D01*
X117587385Y-89636863D01*
X117587382Y-89636864D01*
X117587380Y-89636865D01*
X117587377Y-89636866D01*
X117420181Y-89726234D01*
X117420174Y-89726238D01*
X117273616Y-89846516D01*
X117153338Y-89993074D01*
X117153334Y-89993081D01*
X117061091Y-90165657D01*
X117060007Y-90165077D01*
X117020220Y-90214451D01*
X116953926Y-90236516D01*
X116886227Y-90219237D01*
X116838616Y-90168100D01*
X116825500Y-90112595D01*
X116825500Y-88408204D01*
X116845185Y-88341165D01*
X116897989Y-88295410D01*
X116967147Y-88285466D01*
X117030703Y-88314491D01*
X117060314Y-88355558D01*
X117061091Y-88355143D01*
X117153334Y-88527718D01*
X117153338Y-88527725D01*
X117273616Y-88674283D01*
X117420174Y-88794561D01*
X117420181Y-88794565D01*
X117587377Y-88883933D01*
X117587378Y-88883933D01*
X117587385Y-88883937D01*
X117768817Y-88938973D01*
X117768816Y-88938973D01*
X117785733Y-88940639D01*
X117957500Y-88957557D01*
X118146183Y-88938973D01*
X118327615Y-88883937D01*
X118494824Y-88794562D01*
X118641383Y-88674283D01*
X118761662Y-88527724D01*
X118851037Y-88360515D01*
X118906073Y-88179083D01*
X118924657Y-87990400D01*
X118906073Y-87801717D01*
X118851037Y-87620285D01*
X118851033Y-87620277D01*
X118761665Y-87453081D01*
X118761661Y-87453074D01*
X118641383Y-87306516D01*
X118494825Y-87186238D01*
X118494818Y-87186234D01*
X118327622Y-87096866D01*
X118327619Y-87096865D01*
X118327618Y-87096864D01*
X118327615Y-87096863D01*
X118146183Y-87041827D01*
X118146181Y-87041826D01*
X118146183Y-87041826D01*
X117957500Y-87023243D01*
X117768818Y-87041826D01*
X117661694Y-87074321D01*
X117587385Y-87096863D01*
X117587382Y-87096864D01*
X117587380Y-87096865D01*
X117587377Y-87096866D01*
X117420181Y-87186234D01*
X117420174Y-87186238D01*
X117273616Y-87306516D01*
X117153338Y-87453074D01*
X117153334Y-87453081D01*
X117061091Y-87625657D01*
X117060007Y-87625077D01*
X117020220Y-87674451D01*
X116953926Y-87696516D01*
X116886227Y-87679237D01*
X116838616Y-87628100D01*
X116825500Y-87572595D01*
X116825500Y-87094088D01*
X116845185Y-87027049D01*
X116861819Y-87006407D01*
X117172781Y-86695445D01*
X117486422Y-86381803D01*
X117547743Y-86348320D01*
X117610091Y-86350824D01*
X117768817Y-86398973D01*
X117957500Y-86417557D01*
X118146183Y-86398973D01*
X118327615Y-86343937D01*
X118494824Y-86254562D01*
X118641383Y-86134283D01*
X118761662Y-85987724D01*
X118851037Y-85820515D01*
X118906073Y-85639083D01*
X118924657Y-85450400D01*
X118906073Y-85261717D01*
X118851037Y-85080285D01*
X118839849Y-85059353D01*
X118761665Y-84913081D01*
X118761661Y-84913074D01*
X118641383Y-84766516D01*
X118494825Y-84646238D01*
X118494818Y-84646234D01*
X118327622Y-84556866D01*
X118327619Y-84556865D01*
X118327618Y-84556864D01*
X118327615Y-84556863D01*
X118146183Y-84501827D01*
X118146181Y-84501826D01*
X118146183Y-84501826D01*
X117957500Y-84483243D01*
X117768818Y-84501826D01*
X117661694Y-84534321D01*
X117587385Y-84556863D01*
X117587382Y-84556864D01*
X117587380Y-84556865D01*
X117587377Y-84556866D01*
X117420181Y-84646234D01*
X117420174Y-84646238D01*
X117273616Y-84766516D01*
X117153338Y-84913074D01*
X117153334Y-84913081D01*
X117063966Y-85080277D01*
X117063965Y-85080280D01*
X117063964Y-85080282D01*
X117063963Y-85080285D01*
X117041421Y-85154594D01*
X117008926Y-85261718D01*
X116990343Y-85450400D01*
X117008926Y-85639081D01*
X117057073Y-85797802D01*
X117057696Y-85867669D01*
X117026093Y-85921478D01*
X116283715Y-86663857D01*
X116275742Y-86671164D01*
X116254208Y-86689234D01*
X116190200Y-86717248D01*
X116121208Y-86706210D01*
X116069136Y-86659624D01*
X116050500Y-86594246D01*
X116050500Y-82561188D01*
X116070185Y-82494149D01*
X116086819Y-82473507D01*
X116741108Y-81819219D01*
X116802431Y-81785734D01*
X116828789Y-81782900D01*
X117530063Y-81782900D01*
X117597102Y-81802585D01*
G37*
%TD.AperFunction*%
%TD*%
M02*
