M48
; DRILL file {KiCad 7.0.10} date Tue Jun 11 23:21:10 2024
; FORMAT={-:-/ absolute / metric / decimal}
; #@! TF.CreationDate,2024-06-11T23:21:10-07:00
; #@! TF.GenerationSoftware,Kicad,Pcbnew,7.0.10
; #@! TF.FileFunction,Plated,1,2,PTH
FMAT,2
METRIC
; #@! TA.AperFunction,Plated,PTH,ViaDrill
T1C0.400
; #@! TA.AperFunction,Plated,PTH,ComponentDrill
T2C0.762
; #@! TA.AperFunction,Plated,PTH,ComponentDrill
T3C0.800
; #@! TA.AperFunction,Plated,PTH,ComponentDrill
T4C0.813
; #@! TA.AperFunction,Plated,PTH,ComponentDrill
T5C1.000
; #@! TA.AperFunction,Plated,PTH,ComponentDrill
T6C1.100
; #@! TA.AperFunction,Plated,PTH,ComponentDrill
T7C1.270
%
G90
G05
T1
X115.9Y-125.0
X116.4Y-134.8
X116.7Y-139.6
X117.0Y-123.2
X117.2Y-84.2
X117.4Y-114.0
X117.4Y-116.4
X117.9Y-76.0
X118.3Y-94.8
X118.6Y-118.6
X119.0Y-86.7
X119.1Y-100.6
X119.78Y-97.72
X120.0Y-118.6
X120.6Y-125.5
X120.6Y-132.1
X120.8Y-117.3
X120.8Y-120.3
X120.8Y-135.2
X120.862Y-80.462
X121.0Y-128.9
X121.6Y-100.3
X121.7Y-103.8
X122.5Y-81.1
X122.8Y-121.0
X123.0Y-79.2
X123.4Y-113.6
X123.7Y-100.0
X124.4Y-84.3
X124.4Y-90.2
X125.1Y-88.5
X125.2Y-94.5
X125.4Y-111.5
X126.0Y-80.6
X126.0Y-81.8
X126.4Y-115.7
X126.4Y-121.2
X126.4Y-126.0
X126.6Y-95.8
X126.8Y-106.7
X127.1Y-77.4
X127.7Y-80.7
X128.4Y-99.3
X129.4Y-116.7
X129.4Y-124.4
X129.7Y-88.3
X129.7Y-98.0
X130.5Y-102.4
X131.1Y-77.0
X131.4Y-80.5
X131.9Y-100.6
X131.9Y-122.7
X132.6Y-128.8
X132.9Y-125.7
X133.1Y-95.0
X133.8Y-117.4
X134.8Y-108.6
X134.8Y-139.6
X135.1Y-76.0
X135.2Y-90.6
X135.9Y-96.2
T2
X117.957Y-77.83
X117.957Y-80.37
X117.957Y-82.91
X117.957Y-85.45
X117.957Y-87.99
X117.957Y-90.53
X117.957Y-93.07
X133.257Y-77.83
X133.257Y-80.37
X133.257Y-82.91
X133.257Y-85.45
X133.257Y-87.99
X133.257Y-90.53
X133.257Y-93.07
T3
X117.025Y-128.8
X117.035Y-131.9
X124.645Y-128.8
X124.655Y-131.9
X126.835Y-128.8
X126.835Y-131.9
X134.455Y-128.8
X134.455Y-131.9
T4
X125.325Y-100.06
X125.325Y-102.6
X125.325Y-105.14
T5
X118.9Y-135.225
X118.9Y-137.765
X122.6Y-135.225
X122.6Y-137.765
X126.3Y-135.225
X126.3Y-137.765
X130.0Y-135.26
X130.0Y-137.8
X132.54Y-135.26
X132.54Y-137.8
T6
X117.6Y-97.72
X117.6Y-107.88
X121.7Y-97.72
X121.7Y-107.88
T7
X134.12Y-114.49
X134.12Y-122.11
M30
