%TF.GenerationSoftware,KiCad,Pcbnew,7.0.10*%
%TF.CreationDate,2024-06-11T23:21:11-07:00*%
%TF.ProjectId,NB002,4e423030-322e-46b6-9963-61645f706362,rev?*%
%TF.SameCoordinates,Original*%
%TF.FileFunction,Drillmap*%
%TF.FilePolarity,Positive*%
%FSLAX45Y45*%
G04 Gerber Fmt 4.5, Leading zero omitted, Abs format (unit mm)*
G04 Created by KiCad (PCBNEW 7.0.10) date 2024-06-11 23:21:11*
%MOMM*%
%LPD*%
G01*
G04 APERTURE LIST*
%ADD10C,0.400000*%
%ADD11C,0.150000*%
%ADD12C,0.200000*%
%ADD13C,0.208280*%
G04 APERTURE END LIST*
D10*
X11460000Y-7310000D02*
X13660000Y-7310000D01*
X13660000Y-14590000D01*
X11460000Y-14590000D01*
X11460000Y-7310000D01*
D11*
X12720000Y-14290000D02*
G75*
G03*
X12400000Y-14290000I-160000J0D01*
G01*
X12400000Y-14290000D02*
G75*
G03*
X12720000Y-14290000I160000J0D01*
G01*
D12*
D13*
X12545860Y-11725860D02*
X12754140Y-11934140D01*
X12754140Y-11725860D02*
X12545860Y-11934140D01*
D12*
X11700777Y-14921484D02*
X11700777Y-14721484D01*
X11700777Y-14721484D02*
X11748396Y-14721484D01*
X11748396Y-14721484D02*
X11776967Y-14731008D01*
X11776967Y-14731008D02*
X11796015Y-14750055D01*
X11796015Y-14750055D02*
X11805539Y-14769103D01*
X11805539Y-14769103D02*
X11815062Y-14807198D01*
X11815062Y-14807198D02*
X11815062Y-14835769D01*
X11815062Y-14835769D02*
X11805539Y-14873865D01*
X11805539Y-14873865D02*
X11796015Y-14892912D01*
X11796015Y-14892912D02*
X11776967Y-14911960D01*
X11776967Y-14911960D02*
X11748396Y-14921484D01*
X11748396Y-14921484D02*
X11700777Y-14921484D01*
X11900777Y-14921484D02*
X11900777Y-14788150D01*
X11900777Y-14826246D02*
X11910301Y-14807198D01*
X11910301Y-14807198D02*
X11919824Y-14797674D01*
X11919824Y-14797674D02*
X11938872Y-14788150D01*
X11938872Y-14788150D02*
X11957920Y-14788150D01*
X12024586Y-14921484D02*
X12024586Y-14788150D01*
X12024586Y-14721484D02*
X12015062Y-14731008D01*
X12015062Y-14731008D02*
X12024586Y-14740531D01*
X12024586Y-14740531D02*
X12034110Y-14731008D01*
X12034110Y-14731008D02*
X12024586Y-14721484D01*
X12024586Y-14721484D02*
X12024586Y-14740531D01*
X12148396Y-14921484D02*
X12129348Y-14911960D01*
X12129348Y-14911960D02*
X12119824Y-14892912D01*
X12119824Y-14892912D02*
X12119824Y-14721484D01*
X12253158Y-14921484D02*
X12234110Y-14911960D01*
X12234110Y-14911960D02*
X12224586Y-14892912D01*
X12224586Y-14892912D02*
X12224586Y-14721484D01*
X12481729Y-14921484D02*
X12481729Y-14721484D01*
X12481729Y-14721484D02*
X12548396Y-14864341D01*
X12548396Y-14864341D02*
X12615062Y-14721484D01*
X12615062Y-14721484D02*
X12615062Y-14921484D01*
X12796015Y-14921484D02*
X12796015Y-14816722D01*
X12796015Y-14816722D02*
X12786491Y-14797674D01*
X12786491Y-14797674D02*
X12767443Y-14788150D01*
X12767443Y-14788150D02*
X12729348Y-14788150D01*
X12729348Y-14788150D02*
X12710301Y-14797674D01*
X12796015Y-14911960D02*
X12776967Y-14921484D01*
X12776967Y-14921484D02*
X12729348Y-14921484D01*
X12729348Y-14921484D02*
X12710301Y-14911960D01*
X12710301Y-14911960D02*
X12700777Y-14892912D01*
X12700777Y-14892912D02*
X12700777Y-14873865D01*
X12700777Y-14873865D02*
X12710301Y-14854817D01*
X12710301Y-14854817D02*
X12729348Y-14845293D01*
X12729348Y-14845293D02*
X12776967Y-14845293D01*
X12776967Y-14845293D02*
X12796015Y-14835769D01*
X12891253Y-14788150D02*
X12891253Y-14988150D01*
X12891253Y-14797674D02*
X12910301Y-14788150D01*
X12910301Y-14788150D02*
X12948396Y-14788150D01*
X12948396Y-14788150D02*
X12967443Y-14797674D01*
X12967443Y-14797674D02*
X12976967Y-14807198D01*
X12976967Y-14807198D02*
X12986491Y-14826246D01*
X12986491Y-14826246D02*
X12986491Y-14883388D01*
X12986491Y-14883388D02*
X12976967Y-14902436D01*
X12976967Y-14902436D02*
X12967443Y-14911960D01*
X12967443Y-14911960D02*
X12948396Y-14921484D01*
X12948396Y-14921484D02*
X12910301Y-14921484D01*
X12910301Y-14921484D02*
X12891253Y-14911960D01*
X13072205Y-14902436D02*
X13081729Y-14911960D01*
X13081729Y-14911960D02*
X13072205Y-14921484D01*
X13072205Y-14921484D02*
X13062682Y-14911960D01*
X13062682Y-14911960D02*
X13072205Y-14902436D01*
X13072205Y-14902436D02*
X13072205Y-14921484D01*
X13072205Y-14797674D02*
X13081729Y-14807198D01*
X13081729Y-14807198D02*
X13072205Y-14816722D01*
X13072205Y-14816722D02*
X13062682Y-14807198D01*
X13062682Y-14807198D02*
X13072205Y-14797674D01*
X13072205Y-14797674D02*
X13072205Y-14816722D01*
X11240000Y-15150000D02*
X11440000Y-15350000D01*
X11440000Y-15150000D02*
X11240000Y-15350000D01*
X11691253Y-15160531D02*
X11700777Y-15151008D01*
X11700777Y-15151008D02*
X11719824Y-15141484D01*
X11719824Y-15141484D02*
X11767443Y-15141484D01*
X11767443Y-15141484D02*
X11786491Y-15151008D01*
X11786491Y-15151008D02*
X11796015Y-15160531D01*
X11796015Y-15160531D02*
X11805539Y-15179579D01*
X11805539Y-15179579D02*
X11805539Y-15198627D01*
X11805539Y-15198627D02*
X11796015Y-15227198D01*
X11796015Y-15227198D02*
X11681729Y-15341484D01*
X11681729Y-15341484D02*
X11805539Y-15341484D01*
X11891253Y-15322436D02*
X11900777Y-15331960D01*
X11900777Y-15331960D02*
X11891253Y-15341484D01*
X11891253Y-15341484D02*
X11881729Y-15331960D01*
X11881729Y-15331960D02*
X11891253Y-15322436D01*
X11891253Y-15322436D02*
X11891253Y-15341484D01*
X12024586Y-15141484D02*
X12043634Y-15141484D01*
X12043634Y-15141484D02*
X12062682Y-15151008D01*
X12062682Y-15151008D02*
X12072205Y-15160531D01*
X12072205Y-15160531D02*
X12081729Y-15179579D01*
X12081729Y-15179579D02*
X12091253Y-15217674D01*
X12091253Y-15217674D02*
X12091253Y-15265293D01*
X12091253Y-15265293D02*
X12081729Y-15303388D01*
X12081729Y-15303388D02*
X12072205Y-15322436D01*
X12072205Y-15322436D02*
X12062682Y-15331960D01*
X12062682Y-15331960D02*
X12043634Y-15341484D01*
X12043634Y-15341484D02*
X12024586Y-15341484D01*
X12024586Y-15341484D02*
X12005539Y-15331960D01*
X12005539Y-15331960D02*
X11996015Y-15322436D01*
X11996015Y-15322436D02*
X11986491Y-15303388D01*
X11986491Y-15303388D02*
X11976967Y-15265293D01*
X11976967Y-15265293D02*
X11976967Y-15217674D01*
X11976967Y-15217674D02*
X11986491Y-15179579D01*
X11986491Y-15179579D02*
X11996015Y-15160531D01*
X11996015Y-15160531D02*
X12005539Y-15151008D01*
X12005539Y-15151008D02*
X12024586Y-15141484D01*
X12205539Y-15227198D02*
X12186491Y-15217674D01*
X12186491Y-15217674D02*
X12176967Y-15208150D01*
X12176967Y-15208150D02*
X12167443Y-15189103D01*
X12167443Y-15189103D02*
X12167443Y-15179579D01*
X12167443Y-15179579D02*
X12176967Y-15160531D01*
X12176967Y-15160531D02*
X12186491Y-15151008D01*
X12186491Y-15151008D02*
X12205539Y-15141484D01*
X12205539Y-15141484D02*
X12243634Y-15141484D01*
X12243634Y-15141484D02*
X12262682Y-15151008D01*
X12262682Y-15151008D02*
X12272205Y-15160531D01*
X12272205Y-15160531D02*
X12281729Y-15179579D01*
X12281729Y-15179579D02*
X12281729Y-15189103D01*
X12281729Y-15189103D02*
X12272205Y-15208150D01*
X12272205Y-15208150D02*
X12262682Y-15217674D01*
X12262682Y-15217674D02*
X12243634Y-15227198D01*
X12243634Y-15227198D02*
X12205539Y-15227198D01*
X12205539Y-15227198D02*
X12186491Y-15236722D01*
X12186491Y-15236722D02*
X12176967Y-15246246D01*
X12176967Y-15246246D02*
X12167443Y-15265293D01*
X12167443Y-15265293D02*
X12167443Y-15303388D01*
X12167443Y-15303388D02*
X12176967Y-15322436D01*
X12176967Y-15322436D02*
X12186491Y-15331960D01*
X12186491Y-15331960D02*
X12205539Y-15341484D01*
X12205539Y-15341484D02*
X12243634Y-15341484D01*
X12243634Y-15341484D02*
X12262682Y-15331960D01*
X12262682Y-15331960D02*
X12272205Y-15322436D01*
X12272205Y-15322436D02*
X12281729Y-15303388D01*
X12281729Y-15303388D02*
X12281729Y-15265293D01*
X12281729Y-15265293D02*
X12272205Y-15246246D01*
X12272205Y-15246246D02*
X12262682Y-15236722D01*
X12262682Y-15236722D02*
X12243634Y-15227198D01*
X12348396Y-15141484D02*
X12472205Y-15141484D01*
X12472205Y-15141484D02*
X12405539Y-15217674D01*
X12405539Y-15217674D02*
X12434110Y-15217674D01*
X12434110Y-15217674D02*
X12453158Y-15227198D01*
X12453158Y-15227198D02*
X12462682Y-15236722D01*
X12462682Y-15236722D02*
X12472205Y-15255769D01*
X12472205Y-15255769D02*
X12472205Y-15303388D01*
X12472205Y-15303388D02*
X12462682Y-15322436D01*
X12462682Y-15322436D02*
X12453158Y-15331960D01*
X12453158Y-15331960D02*
X12434110Y-15341484D01*
X12434110Y-15341484D02*
X12376967Y-15341484D01*
X12376967Y-15341484D02*
X12357920Y-15331960D01*
X12357920Y-15331960D02*
X12348396Y-15322436D01*
X12557920Y-15341484D02*
X12557920Y-15208150D01*
X12557920Y-15227198D02*
X12567443Y-15217674D01*
X12567443Y-15217674D02*
X12586491Y-15208150D01*
X12586491Y-15208150D02*
X12615063Y-15208150D01*
X12615063Y-15208150D02*
X12634110Y-15217674D01*
X12634110Y-15217674D02*
X12643634Y-15236722D01*
X12643634Y-15236722D02*
X12643634Y-15341484D01*
X12643634Y-15236722D02*
X12653158Y-15217674D01*
X12653158Y-15217674D02*
X12672205Y-15208150D01*
X12672205Y-15208150D02*
X12700777Y-15208150D01*
X12700777Y-15208150D02*
X12719824Y-15217674D01*
X12719824Y-15217674D02*
X12729348Y-15236722D01*
X12729348Y-15236722D02*
X12729348Y-15341484D01*
X12824586Y-15341484D02*
X12824586Y-15208150D01*
X12824586Y-15227198D02*
X12834110Y-15217674D01*
X12834110Y-15217674D02*
X12853158Y-15208150D01*
X12853158Y-15208150D02*
X12881729Y-15208150D01*
X12881729Y-15208150D02*
X12900777Y-15217674D01*
X12900777Y-15217674D02*
X12910301Y-15236722D01*
X12910301Y-15236722D02*
X12910301Y-15341484D01*
X12910301Y-15236722D02*
X12919824Y-15217674D01*
X12919824Y-15217674D02*
X12938872Y-15208150D01*
X12938872Y-15208150D02*
X12967443Y-15208150D01*
X12967443Y-15208150D02*
X12986491Y-15217674D01*
X12986491Y-15217674D02*
X12996015Y-15236722D01*
X12996015Y-15236722D02*
X12996015Y-15341484D01*
X13386491Y-15131960D02*
X13215063Y-15389103D01*
X13643634Y-15141484D02*
X13662682Y-15141484D01*
X13662682Y-15141484D02*
X13681729Y-15151008D01*
X13681729Y-15151008D02*
X13691253Y-15160531D01*
X13691253Y-15160531D02*
X13700777Y-15179579D01*
X13700777Y-15179579D02*
X13710301Y-15217674D01*
X13710301Y-15217674D02*
X13710301Y-15265293D01*
X13710301Y-15265293D02*
X13700777Y-15303388D01*
X13700777Y-15303388D02*
X13691253Y-15322436D01*
X13691253Y-15322436D02*
X13681729Y-15331960D01*
X13681729Y-15331960D02*
X13662682Y-15341484D01*
X13662682Y-15341484D02*
X13643634Y-15341484D01*
X13643634Y-15341484D02*
X13624586Y-15331960D01*
X13624586Y-15331960D02*
X13615063Y-15322436D01*
X13615063Y-15322436D02*
X13605539Y-15303388D01*
X13605539Y-15303388D02*
X13596015Y-15265293D01*
X13596015Y-15265293D02*
X13596015Y-15217674D01*
X13596015Y-15217674D02*
X13605539Y-15179579D01*
X13605539Y-15179579D02*
X13615063Y-15160531D01*
X13615063Y-15160531D02*
X13624586Y-15151008D01*
X13624586Y-15151008D02*
X13643634Y-15141484D01*
X13796015Y-15322436D02*
X13805539Y-15331960D01*
X13805539Y-15331960D02*
X13796015Y-15341484D01*
X13796015Y-15341484D02*
X13786491Y-15331960D01*
X13786491Y-15331960D02*
X13796015Y-15322436D01*
X13796015Y-15322436D02*
X13796015Y-15341484D01*
X13929348Y-15141484D02*
X13948396Y-15141484D01*
X13948396Y-15141484D02*
X13967444Y-15151008D01*
X13967444Y-15151008D02*
X13976967Y-15160531D01*
X13976967Y-15160531D02*
X13986491Y-15179579D01*
X13986491Y-15179579D02*
X13996015Y-15217674D01*
X13996015Y-15217674D02*
X13996015Y-15265293D01*
X13996015Y-15265293D02*
X13986491Y-15303388D01*
X13986491Y-15303388D02*
X13976967Y-15322436D01*
X13976967Y-15322436D02*
X13967444Y-15331960D01*
X13967444Y-15331960D02*
X13948396Y-15341484D01*
X13948396Y-15341484D02*
X13929348Y-15341484D01*
X13929348Y-15341484D02*
X13910301Y-15331960D01*
X13910301Y-15331960D02*
X13900777Y-15322436D01*
X13900777Y-15322436D02*
X13891253Y-15303388D01*
X13891253Y-15303388D02*
X13881729Y-15265293D01*
X13881729Y-15265293D02*
X13881729Y-15217674D01*
X13881729Y-15217674D02*
X13891253Y-15179579D01*
X13891253Y-15179579D02*
X13900777Y-15160531D01*
X13900777Y-15160531D02*
X13910301Y-15151008D01*
X13910301Y-15151008D02*
X13929348Y-15141484D01*
X14110301Y-15227198D02*
X14091253Y-15217674D01*
X14091253Y-15217674D02*
X14081729Y-15208150D01*
X14081729Y-15208150D02*
X14072206Y-15189103D01*
X14072206Y-15189103D02*
X14072206Y-15179579D01*
X14072206Y-15179579D02*
X14081729Y-15160531D01*
X14081729Y-15160531D02*
X14091253Y-15151008D01*
X14091253Y-15151008D02*
X14110301Y-15141484D01*
X14110301Y-15141484D02*
X14148396Y-15141484D01*
X14148396Y-15141484D02*
X14167444Y-15151008D01*
X14167444Y-15151008D02*
X14176967Y-15160531D01*
X14176967Y-15160531D02*
X14186491Y-15179579D01*
X14186491Y-15179579D02*
X14186491Y-15189103D01*
X14186491Y-15189103D02*
X14176967Y-15208150D01*
X14176967Y-15208150D02*
X14167444Y-15217674D01*
X14167444Y-15217674D02*
X14148396Y-15227198D01*
X14148396Y-15227198D02*
X14110301Y-15227198D01*
X14110301Y-15227198D02*
X14091253Y-15236722D01*
X14091253Y-15236722D02*
X14081729Y-15246246D01*
X14081729Y-15246246D02*
X14072206Y-15265293D01*
X14072206Y-15265293D02*
X14072206Y-15303388D01*
X14072206Y-15303388D02*
X14081729Y-15322436D01*
X14081729Y-15322436D02*
X14091253Y-15331960D01*
X14091253Y-15331960D02*
X14110301Y-15341484D01*
X14110301Y-15341484D02*
X14148396Y-15341484D01*
X14148396Y-15341484D02*
X14167444Y-15331960D01*
X14167444Y-15331960D02*
X14176967Y-15322436D01*
X14176967Y-15322436D02*
X14186491Y-15303388D01*
X14186491Y-15303388D02*
X14186491Y-15265293D01*
X14186491Y-15265293D02*
X14176967Y-15246246D01*
X14176967Y-15246246D02*
X14167444Y-15236722D01*
X14167444Y-15236722D02*
X14148396Y-15227198D01*
X14262682Y-15160531D02*
X14272206Y-15151008D01*
X14272206Y-15151008D02*
X14291253Y-15141484D01*
X14291253Y-15141484D02*
X14338872Y-15141484D01*
X14338872Y-15141484D02*
X14357920Y-15151008D01*
X14357920Y-15151008D02*
X14367444Y-15160531D01*
X14367444Y-15160531D02*
X14376967Y-15179579D01*
X14376967Y-15179579D02*
X14376967Y-15198627D01*
X14376967Y-15198627D02*
X14367444Y-15227198D01*
X14367444Y-15227198D02*
X14253158Y-15341484D01*
X14253158Y-15341484D02*
X14376967Y-15341484D01*
X14500777Y-15141484D02*
X14519825Y-15141484D01*
X14519825Y-15141484D02*
X14538872Y-15151008D01*
X14538872Y-15151008D02*
X14548396Y-15160531D01*
X14548396Y-15160531D02*
X14557920Y-15179579D01*
X14557920Y-15179579D02*
X14567444Y-15217674D01*
X14567444Y-15217674D02*
X14567444Y-15265293D01*
X14567444Y-15265293D02*
X14557920Y-15303388D01*
X14557920Y-15303388D02*
X14548396Y-15322436D01*
X14548396Y-15322436D02*
X14538872Y-15331960D01*
X14538872Y-15331960D02*
X14519825Y-15341484D01*
X14519825Y-15341484D02*
X14500777Y-15341484D01*
X14500777Y-15341484D02*
X14481729Y-15331960D01*
X14481729Y-15331960D02*
X14472206Y-15322436D01*
X14472206Y-15322436D02*
X14462682Y-15303388D01*
X14462682Y-15303388D02*
X14453158Y-15265293D01*
X14453158Y-15265293D02*
X14453158Y-15217674D01*
X14453158Y-15217674D02*
X14462682Y-15179579D01*
X14462682Y-15179579D02*
X14472206Y-15160531D01*
X14472206Y-15160531D02*
X14481729Y-15151008D01*
X14481729Y-15151008D02*
X14500777Y-15141484D01*
X14643634Y-15141484D02*
X14643634Y-15179579D01*
X14719825Y-15141484D02*
X14719825Y-15179579D01*
X15015063Y-15417674D02*
X15005539Y-15408150D01*
X15005539Y-15408150D02*
X14986491Y-15379579D01*
X14986491Y-15379579D02*
X14976968Y-15360531D01*
X14976968Y-15360531D02*
X14967444Y-15331960D01*
X14967444Y-15331960D02*
X14957920Y-15284341D01*
X14957920Y-15284341D02*
X14957920Y-15246246D01*
X14957920Y-15246246D02*
X14967444Y-15198627D01*
X14967444Y-15198627D02*
X14976968Y-15170055D01*
X14976968Y-15170055D02*
X14986491Y-15151008D01*
X14986491Y-15151008D02*
X15005539Y-15122436D01*
X15005539Y-15122436D02*
X15015063Y-15112912D01*
X15196015Y-15341484D02*
X15081729Y-15341484D01*
X15138872Y-15341484D02*
X15138872Y-15141484D01*
X15138872Y-15141484D02*
X15119825Y-15170055D01*
X15119825Y-15170055D02*
X15100777Y-15189103D01*
X15100777Y-15189103D02*
X15081729Y-15198627D01*
X15434110Y-15341484D02*
X15434110Y-15141484D01*
X15519825Y-15341484D02*
X15519825Y-15236722D01*
X15519825Y-15236722D02*
X15510301Y-15217674D01*
X15510301Y-15217674D02*
X15491253Y-15208150D01*
X15491253Y-15208150D02*
X15462682Y-15208150D01*
X15462682Y-15208150D02*
X15443634Y-15217674D01*
X15443634Y-15217674D02*
X15434110Y-15227198D01*
X15643634Y-15341484D02*
X15624587Y-15331960D01*
X15624587Y-15331960D02*
X15615063Y-15322436D01*
X15615063Y-15322436D02*
X15605539Y-15303388D01*
X15605539Y-15303388D02*
X15605539Y-15246246D01*
X15605539Y-15246246D02*
X15615063Y-15227198D01*
X15615063Y-15227198D02*
X15624587Y-15217674D01*
X15624587Y-15217674D02*
X15643634Y-15208150D01*
X15643634Y-15208150D02*
X15672206Y-15208150D01*
X15672206Y-15208150D02*
X15691253Y-15217674D01*
X15691253Y-15217674D02*
X15700777Y-15227198D01*
X15700777Y-15227198D02*
X15710301Y-15246246D01*
X15710301Y-15246246D02*
X15710301Y-15303388D01*
X15710301Y-15303388D02*
X15700777Y-15322436D01*
X15700777Y-15322436D02*
X15691253Y-15331960D01*
X15691253Y-15331960D02*
X15672206Y-15341484D01*
X15672206Y-15341484D02*
X15643634Y-15341484D01*
X15824587Y-15341484D02*
X15805539Y-15331960D01*
X15805539Y-15331960D02*
X15796015Y-15312912D01*
X15796015Y-15312912D02*
X15796015Y-15141484D01*
X15976968Y-15331960D02*
X15957920Y-15341484D01*
X15957920Y-15341484D02*
X15919825Y-15341484D01*
X15919825Y-15341484D02*
X15900777Y-15331960D01*
X15900777Y-15331960D02*
X15891253Y-15312912D01*
X15891253Y-15312912D02*
X15891253Y-15236722D01*
X15891253Y-15236722D02*
X15900777Y-15217674D01*
X15900777Y-15217674D02*
X15919825Y-15208150D01*
X15919825Y-15208150D02*
X15957920Y-15208150D01*
X15957920Y-15208150D02*
X15976968Y-15217674D01*
X15976968Y-15217674D02*
X15986491Y-15236722D01*
X15986491Y-15236722D02*
X15986491Y-15255769D01*
X15986491Y-15255769D02*
X15891253Y-15274817D01*
X16053158Y-15417674D02*
X16062682Y-15408150D01*
X16062682Y-15408150D02*
X16081730Y-15379579D01*
X16081730Y-15379579D02*
X16091253Y-15360531D01*
X16091253Y-15360531D02*
X16100777Y-15331960D01*
X16100777Y-15331960D02*
X16110301Y-15284341D01*
X16110301Y-15284341D02*
X16110301Y-15246246D01*
X16110301Y-15246246D02*
X16100777Y-15198627D01*
X16100777Y-15198627D02*
X16091253Y-15170055D01*
X16091253Y-15170055D02*
X16081730Y-15151008D01*
X16081730Y-15151008D02*
X16062682Y-15122436D01*
X16062682Y-15122436D02*
X16053158Y-15112912D01*
X16415063Y-15417674D02*
X16405539Y-15408150D01*
X16405539Y-15408150D02*
X16386491Y-15379579D01*
X16386491Y-15379579D02*
X16376968Y-15360531D01*
X16376968Y-15360531D02*
X16367444Y-15331960D01*
X16367444Y-15331960D02*
X16357920Y-15284341D01*
X16357920Y-15284341D02*
X16357920Y-15246246D01*
X16357920Y-15246246D02*
X16367444Y-15198627D01*
X16367444Y-15198627D02*
X16376968Y-15170055D01*
X16376968Y-15170055D02*
X16386491Y-15151008D01*
X16386491Y-15151008D02*
X16405539Y-15122436D01*
X16405539Y-15122436D02*
X16415063Y-15112912D01*
X16491253Y-15208150D02*
X16491253Y-15341484D01*
X16491253Y-15227198D02*
X16500777Y-15217674D01*
X16500777Y-15217674D02*
X16519825Y-15208150D01*
X16519825Y-15208150D02*
X16548396Y-15208150D01*
X16548396Y-15208150D02*
X16567444Y-15217674D01*
X16567444Y-15217674D02*
X16576968Y-15236722D01*
X16576968Y-15236722D02*
X16576968Y-15341484D01*
X16700777Y-15341484D02*
X16681730Y-15331960D01*
X16681730Y-15331960D02*
X16672206Y-15322436D01*
X16672206Y-15322436D02*
X16662682Y-15303388D01*
X16662682Y-15303388D02*
X16662682Y-15246246D01*
X16662682Y-15246246D02*
X16672206Y-15227198D01*
X16672206Y-15227198D02*
X16681730Y-15217674D01*
X16681730Y-15217674D02*
X16700777Y-15208150D01*
X16700777Y-15208150D02*
X16729349Y-15208150D01*
X16729349Y-15208150D02*
X16748396Y-15217674D01*
X16748396Y-15217674D02*
X16757920Y-15227198D01*
X16757920Y-15227198D02*
X16767444Y-15246246D01*
X16767444Y-15246246D02*
X16767444Y-15303388D01*
X16767444Y-15303388D02*
X16757920Y-15322436D01*
X16757920Y-15322436D02*
X16748396Y-15331960D01*
X16748396Y-15331960D02*
X16729349Y-15341484D01*
X16729349Y-15341484D02*
X16700777Y-15341484D01*
X16824587Y-15208150D02*
X16900777Y-15208150D01*
X16853158Y-15141484D02*
X16853158Y-15312912D01*
X16853158Y-15312912D02*
X16862682Y-15331960D01*
X16862682Y-15331960D02*
X16881730Y-15341484D01*
X16881730Y-15341484D02*
X16900777Y-15341484D01*
X17119825Y-15208150D02*
X17119825Y-15408150D01*
X17119825Y-15217674D02*
X17138873Y-15208150D01*
X17138873Y-15208150D02*
X17176968Y-15208150D01*
X17176968Y-15208150D02*
X17196015Y-15217674D01*
X17196015Y-15217674D02*
X17205539Y-15227198D01*
X17205539Y-15227198D02*
X17215063Y-15246246D01*
X17215063Y-15246246D02*
X17215063Y-15303388D01*
X17215063Y-15303388D02*
X17205539Y-15322436D01*
X17205539Y-15322436D02*
X17196015Y-15331960D01*
X17196015Y-15331960D02*
X17176968Y-15341484D01*
X17176968Y-15341484D02*
X17138873Y-15341484D01*
X17138873Y-15341484D02*
X17119825Y-15331960D01*
X17329349Y-15341484D02*
X17310301Y-15331960D01*
X17310301Y-15331960D02*
X17300777Y-15312912D01*
X17300777Y-15312912D02*
X17300777Y-15141484D01*
X17491254Y-15341484D02*
X17491254Y-15236722D01*
X17491254Y-15236722D02*
X17481730Y-15217674D01*
X17481730Y-15217674D02*
X17462682Y-15208150D01*
X17462682Y-15208150D02*
X17424587Y-15208150D01*
X17424587Y-15208150D02*
X17405539Y-15217674D01*
X17491254Y-15331960D02*
X17472206Y-15341484D01*
X17472206Y-15341484D02*
X17424587Y-15341484D01*
X17424587Y-15341484D02*
X17405539Y-15331960D01*
X17405539Y-15331960D02*
X17396015Y-15312912D01*
X17396015Y-15312912D02*
X17396015Y-15293865D01*
X17396015Y-15293865D02*
X17405539Y-15274817D01*
X17405539Y-15274817D02*
X17424587Y-15265293D01*
X17424587Y-15265293D02*
X17472206Y-15265293D01*
X17472206Y-15265293D02*
X17491254Y-15255769D01*
X17557920Y-15208150D02*
X17634111Y-15208150D01*
X17586492Y-15141484D02*
X17586492Y-15312912D01*
X17586492Y-15312912D02*
X17596015Y-15331960D01*
X17596015Y-15331960D02*
X17615063Y-15341484D01*
X17615063Y-15341484D02*
X17634111Y-15341484D01*
X17776968Y-15331960D02*
X17757920Y-15341484D01*
X17757920Y-15341484D02*
X17719825Y-15341484D01*
X17719825Y-15341484D02*
X17700777Y-15331960D01*
X17700777Y-15331960D02*
X17691254Y-15312912D01*
X17691254Y-15312912D02*
X17691254Y-15236722D01*
X17691254Y-15236722D02*
X17700777Y-15217674D01*
X17700777Y-15217674D02*
X17719825Y-15208150D01*
X17719825Y-15208150D02*
X17757920Y-15208150D01*
X17757920Y-15208150D02*
X17776968Y-15217674D01*
X17776968Y-15217674D02*
X17786492Y-15236722D01*
X17786492Y-15236722D02*
X17786492Y-15255769D01*
X17786492Y-15255769D02*
X17691254Y-15274817D01*
X17957920Y-15341484D02*
X17957920Y-15141484D01*
X17957920Y-15331960D02*
X17938873Y-15341484D01*
X17938873Y-15341484D02*
X17900777Y-15341484D01*
X17900777Y-15341484D02*
X17881730Y-15331960D01*
X17881730Y-15331960D02*
X17872206Y-15322436D01*
X17872206Y-15322436D02*
X17862682Y-15303388D01*
X17862682Y-15303388D02*
X17862682Y-15246246D01*
X17862682Y-15246246D02*
X17872206Y-15227198D01*
X17872206Y-15227198D02*
X17881730Y-15217674D01*
X17881730Y-15217674D02*
X17900777Y-15208150D01*
X17900777Y-15208150D02*
X17938873Y-15208150D01*
X17938873Y-15208150D02*
X17957920Y-15217674D01*
X18034111Y-15417674D02*
X18043635Y-15408150D01*
X18043635Y-15408150D02*
X18062682Y-15379579D01*
X18062682Y-15379579D02*
X18072206Y-15360531D01*
X18072206Y-15360531D02*
X18081730Y-15331960D01*
X18081730Y-15331960D02*
X18091254Y-15284341D01*
X18091254Y-15284341D02*
X18091254Y-15246246D01*
X18091254Y-15246246D02*
X18081730Y-15198627D01*
X18081730Y-15198627D02*
X18072206Y-15170055D01*
X18072206Y-15170055D02*
X18062682Y-15151008D01*
X18062682Y-15151008D02*
X18043635Y-15122436D01*
X18043635Y-15122436D02*
X18034111Y-15112912D01*
M02*
