%TF.GenerationSoftware,KiCad,Pcbnew,7.0.10*%
%TF.CreationDate,2024-06-11T00:53:48-07:00*%
%TF.ProjectId,FloatSID,466c6f61-7453-4494-942e-6b696361645f,rev?*%
%TF.SameCoordinates,Original*%
%TF.FileFunction,Legend,Top*%
%TF.FilePolarity,Positive*%
%FSLAX46Y46*%
G04 Gerber Fmt 4.6, Leading zero omitted, Abs format (unit mm)*
G04 Created by KiCad (PCBNEW 7.0.10) date 2024-06-11 00:53:48*
%MOMM*%
%LPD*%
G01*
G04 APERTURE LIST*
G04 Aperture macros list*
%AMRoundRect*
0 Rectangle with rounded corners*
0 $1 Rounding radius*
0 $2 $3 $4 $5 $6 $7 $8 $9 X,Y pos of 4 corners*
0 Add a 4 corners polygon primitive as box body*
4,1,4,$2,$3,$4,$5,$6,$7,$8,$9,$2,$3,0*
0 Add four circle primitives for the rounded corners*
1,1,$1+$1,$2,$3*
1,1,$1+$1,$4,$5*
1,1,$1+$1,$6,$7*
1,1,$1+$1,$8,$9*
0 Add four rect primitives between the rounded corners*
20,1,$1+$1,$2,$3,$4,$5,0*
20,1,$1+$1,$4,$5,$6,$7,0*
20,1,$1+$1,$6,$7,$8,$9,0*
20,1,$1+$1,$8,$9,$2,$3,0*%
G04 Aperture macros list end*
%ADD10C,0.150000*%
%ADD11C,0.100000*%
%ADD12C,0.120000*%
%ADD13C,0.152400*%
%ADD14C,0.127000*%
%ADD15C,1.524000*%
%ADD16C,1.600000*%
%ADD17O,1.600000X1.600000*%
%ADD18C,1.320800*%
%ADD19R,1.700000X1.700000*%
%ADD20O,1.700000X1.700000*%
%ADD21O,2.200000X2.200000*%
%ADD22R,2.200000X2.200000*%
%ADD23R,0.812800X0.228600*%
%ADD24RoundRect,0.250000X1.450000X-0.537500X1.450000X0.537500X-1.450000X0.537500X-1.450000X-0.537500X0*%
%ADD25RoundRect,0.250000X-0.537500X-1.450000X0.537500X-1.450000X0.537500X1.450000X-0.537500X1.450000X0*%
%ADD26C,2.082800*%
%ADD27C,2.109000*%
G04 APERTURE END LIST*
D10*
X128200000Y-140100000D02*
X127600000Y-139700000D01*
X128600000Y-140100000D02*
X128200000Y-140100000D01*
X123922493Y-110569819D02*
X123922493Y-111284104D01*
X123922493Y-111284104D02*
X123874874Y-111426961D01*
X123874874Y-111426961D02*
X123779636Y-111522200D01*
X123779636Y-111522200D02*
X123636779Y-111569819D01*
X123636779Y-111569819D02*
X123541541Y-111569819D01*
X124874874Y-111569819D02*
X124398684Y-111569819D01*
X124398684Y-111569819D02*
X124398684Y-110569819D01*
X125779636Y-111474580D02*
X125732017Y-111522200D01*
X125732017Y-111522200D02*
X125589160Y-111569819D01*
X125589160Y-111569819D02*
X125493922Y-111569819D01*
X125493922Y-111569819D02*
X125351065Y-111522200D01*
X125351065Y-111522200D02*
X125255827Y-111426961D01*
X125255827Y-111426961D02*
X125208208Y-111331723D01*
X125208208Y-111331723D02*
X125160589Y-111141247D01*
X125160589Y-111141247D02*
X125160589Y-110998390D01*
X125160589Y-110998390D02*
X125208208Y-110807914D01*
X125208208Y-110807914D02*
X125255827Y-110712676D01*
X125255827Y-110712676D02*
X125351065Y-110617438D01*
X125351065Y-110617438D02*
X125493922Y-110569819D01*
X125493922Y-110569819D02*
X125589160Y-110569819D01*
X125589160Y-110569819D02*
X125732017Y-110617438D01*
X125732017Y-110617438D02*
X125779636Y-110665057D01*
X126493922Y-110569819D02*
X126493922Y-111284104D01*
X126493922Y-111284104D02*
X126446303Y-111426961D01*
X126446303Y-111426961D02*
X126351065Y-111522200D01*
X126351065Y-111522200D02*
X126208208Y-111569819D01*
X126208208Y-111569819D02*
X126112970Y-111569819D01*
X127446303Y-111569819D02*
X126970113Y-111569819D01*
X126970113Y-111569819D02*
X126970113Y-110569819D01*
X128351065Y-111474580D02*
X128303446Y-111522200D01*
X128303446Y-111522200D02*
X128160589Y-111569819D01*
X128160589Y-111569819D02*
X128065351Y-111569819D01*
X128065351Y-111569819D02*
X127922494Y-111522200D01*
X127922494Y-111522200D02*
X127827256Y-111426961D01*
X127827256Y-111426961D02*
X127779637Y-111331723D01*
X127779637Y-111331723D02*
X127732018Y-111141247D01*
X127732018Y-111141247D02*
X127732018Y-110998390D01*
X127732018Y-110998390D02*
X127779637Y-110807914D01*
X127779637Y-110807914D02*
X127827256Y-110712676D01*
X127827256Y-110712676D02*
X127922494Y-110617438D01*
X127922494Y-110617438D02*
X128065351Y-110569819D01*
X128065351Y-110569819D02*
X128160589Y-110569819D01*
X128160589Y-110569819D02*
X128303446Y-110617438D01*
X128303446Y-110617438D02*
X128351065Y-110665057D01*
X129065351Y-110569819D02*
X129065351Y-111284104D01*
X129065351Y-111284104D02*
X129017732Y-111426961D01*
X129017732Y-111426961D02*
X128922494Y-111522200D01*
X128922494Y-111522200D02*
X128779637Y-111569819D01*
X128779637Y-111569819D02*
X128684399Y-111569819D01*
X130017732Y-111569819D02*
X129541542Y-111569819D01*
X129541542Y-111569819D02*
X129541542Y-110569819D01*
X130922494Y-111474580D02*
X130874875Y-111522200D01*
X130874875Y-111522200D02*
X130732018Y-111569819D01*
X130732018Y-111569819D02*
X130636780Y-111569819D01*
X130636780Y-111569819D02*
X130493923Y-111522200D01*
X130493923Y-111522200D02*
X130398685Y-111426961D01*
X130398685Y-111426961D02*
X130351066Y-111331723D01*
X130351066Y-111331723D02*
X130303447Y-111141247D01*
X130303447Y-111141247D02*
X130303447Y-110998390D01*
X130303447Y-110998390D02*
X130351066Y-110807914D01*
X130351066Y-110807914D02*
X130398685Y-110712676D01*
X130398685Y-110712676D02*
X130493923Y-110617438D01*
X130493923Y-110617438D02*
X130636780Y-110569819D01*
X130636780Y-110569819D02*
X130732018Y-110569819D01*
X130732018Y-110569819D02*
X130874875Y-110617438D01*
X130874875Y-110617438D02*
X130922494Y-110665057D01*
X131636780Y-110569819D02*
X131636780Y-111284104D01*
X131636780Y-111284104D02*
X131589161Y-111426961D01*
X131589161Y-111426961D02*
X131493923Y-111522200D01*
X131493923Y-111522200D02*
X131351066Y-111569819D01*
X131351066Y-111569819D02*
X131255828Y-111569819D01*
X132589161Y-111569819D02*
X132112971Y-111569819D01*
X132112971Y-111569819D02*
X132112971Y-110569819D01*
X133493923Y-111474580D02*
X133446304Y-111522200D01*
X133446304Y-111522200D02*
X133303447Y-111569819D01*
X133303447Y-111569819D02*
X133208209Y-111569819D01*
X133208209Y-111569819D02*
X133065352Y-111522200D01*
X133065352Y-111522200D02*
X132970114Y-111426961D01*
X132970114Y-111426961D02*
X132922495Y-111331723D01*
X132922495Y-111331723D02*
X132874876Y-111141247D01*
X132874876Y-111141247D02*
X132874876Y-110998390D01*
X132874876Y-110998390D02*
X132922495Y-110807914D01*
X132922495Y-110807914D02*
X132970114Y-110712676D01*
X132970114Y-110712676D02*
X133065352Y-110617438D01*
X133065352Y-110617438D02*
X133208209Y-110569819D01*
X133208209Y-110569819D02*
X133303447Y-110569819D01*
X133303447Y-110569819D02*
X133446304Y-110617438D01*
X133446304Y-110617438D02*
X133493923Y-110665057D01*
X116359819Y-124363220D02*
X115359819Y-124363220D01*
X115359819Y-124363220D02*
X116359819Y-123791792D01*
X116359819Y-123791792D02*
X115359819Y-123791792D01*
X116359819Y-122887030D02*
X115836009Y-122887030D01*
X115836009Y-122887030D02*
X115740771Y-122934649D01*
X115740771Y-122934649D02*
X115693152Y-123029887D01*
X115693152Y-123029887D02*
X115693152Y-123220363D01*
X115693152Y-123220363D02*
X115740771Y-123315601D01*
X116312200Y-122887030D02*
X116359819Y-122982268D01*
X116359819Y-122982268D02*
X116359819Y-123220363D01*
X116359819Y-123220363D02*
X116312200Y-123315601D01*
X116312200Y-123315601D02*
X116216961Y-123363220D01*
X116216961Y-123363220D02*
X116121723Y-123363220D01*
X116121723Y-123363220D02*
X116026485Y-123315601D01*
X116026485Y-123315601D02*
X115978866Y-123220363D01*
X115978866Y-123220363D02*
X115978866Y-122982268D01*
X115978866Y-122982268D02*
X115931247Y-122887030D01*
X115693152Y-122410839D02*
X116359819Y-122410839D01*
X115788390Y-122410839D02*
X115740771Y-122363220D01*
X115740771Y-122363220D02*
X115693152Y-122267982D01*
X115693152Y-122267982D02*
X115693152Y-122125125D01*
X115693152Y-122125125D02*
X115740771Y-122029887D01*
X115740771Y-122029887D02*
X115836009Y-121982268D01*
X115836009Y-121982268D02*
X116359819Y-121982268D01*
X116359819Y-121363220D02*
X116312200Y-121458458D01*
X116312200Y-121458458D02*
X116264580Y-121506077D01*
X116264580Y-121506077D02*
X116169342Y-121553696D01*
X116169342Y-121553696D02*
X115883628Y-121553696D01*
X115883628Y-121553696D02*
X115788390Y-121506077D01*
X115788390Y-121506077D02*
X115740771Y-121458458D01*
X115740771Y-121458458D02*
X115693152Y-121363220D01*
X115693152Y-121363220D02*
X115693152Y-121220363D01*
X115693152Y-121220363D02*
X115740771Y-121125125D01*
X115740771Y-121125125D02*
X115788390Y-121077506D01*
X115788390Y-121077506D02*
X115883628Y-121029887D01*
X115883628Y-121029887D02*
X116169342Y-121029887D01*
X116169342Y-121029887D02*
X116264580Y-121077506D01*
X116264580Y-121077506D02*
X116312200Y-121125125D01*
X116312200Y-121125125D02*
X116359819Y-121220363D01*
X116359819Y-121220363D02*
X116359819Y-121363220D01*
X115836009Y-120267982D02*
X115883628Y-120125125D01*
X115883628Y-120125125D02*
X115931247Y-120077506D01*
X115931247Y-120077506D02*
X116026485Y-120029887D01*
X116026485Y-120029887D02*
X116169342Y-120029887D01*
X116169342Y-120029887D02*
X116264580Y-120077506D01*
X116264580Y-120077506D02*
X116312200Y-120125125D01*
X116312200Y-120125125D02*
X116359819Y-120220363D01*
X116359819Y-120220363D02*
X116359819Y-120601315D01*
X116359819Y-120601315D02*
X115359819Y-120601315D01*
X115359819Y-120601315D02*
X115359819Y-120267982D01*
X115359819Y-120267982D02*
X115407438Y-120172744D01*
X115407438Y-120172744D02*
X115455057Y-120125125D01*
X115455057Y-120125125D02*
X115550295Y-120077506D01*
X115550295Y-120077506D02*
X115645533Y-120077506D01*
X115645533Y-120077506D02*
X115740771Y-120125125D01*
X115740771Y-120125125D02*
X115788390Y-120172744D01*
X115788390Y-120172744D02*
X115836009Y-120267982D01*
X115836009Y-120267982D02*
X115836009Y-120601315D01*
X116359819Y-119458458D02*
X116312200Y-119553696D01*
X116312200Y-119553696D02*
X116264580Y-119601315D01*
X116264580Y-119601315D02*
X116169342Y-119648934D01*
X116169342Y-119648934D02*
X115883628Y-119648934D01*
X115883628Y-119648934D02*
X115788390Y-119601315D01*
X115788390Y-119601315D02*
X115740771Y-119553696D01*
X115740771Y-119553696D02*
X115693152Y-119458458D01*
X115693152Y-119458458D02*
X115693152Y-119315601D01*
X115693152Y-119315601D02*
X115740771Y-119220363D01*
X115740771Y-119220363D02*
X115788390Y-119172744D01*
X115788390Y-119172744D02*
X115883628Y-119125125D01*
X115883628Y-119125125D02*
X116169342Y-119125125D01*
X116169342Y-119125125D02*
X116264580Y-119172744D01*
X116264580Y-119172744D02*
X116312200Y-119220363D01*
X116312200Y-119220363D02*
X116359819Y-119315601D01*
X116359819Y-119315601D02*
X116359819Y-119458458D01*
X116359819Y-118267982D02*
X115836009Y-118267982D01*
X115836009Y-118267982D02*
X115740771Y-118315601D01*
X115740771Y-118315601D02*
X115693152Y-118410839D01*
X115693152Y-118410839D02*
X115693152Y-118601315D01*
X115693152Y-118601315D02*
X115740771Y-118696553D01*
X116312200Y-118267982D02*
X116359819Y-118363220D01*
X116359819Y-118363220D02*
X116359819Y-118601315D01*
X116359819Y-118601315D02*
X116312200Y-118696553D01*
X116312200Y-118696553D02*
X116216961Y-118744172D01*
X116216961Y-118744172D02*
X116121723Y-118744172D01*
X116121723Y-118744172D02*
X116026485Y-118696553D01*
X116026485Y-118696553D02*
X115978866Y-118601315D01*
X115978866Y-118601315D02*
X115978866Y-118363220D01*
X115978866Y-118363220D02*
X115931247Y-118267982D01*
X116359819Y-117791791D02*
X115693152Y-117791791D01*
X115883628Y-117791791D02*
X115788390Y-117744172D01*
X115788390Y-117744172D02*
X115740771Y-117696553D01*
X115740771Y-117696553D02*
X115693152Y-117601315D01*
X115693152Y-117601315D02*
X115693152Y-117506077D01*
X116359819Y-116744172D02*
X115359819Y-116744172D01*
X116312200Y-116744172D02*
X116359819Y-116839410D01*
X116359819Y-116839410D02*
X116359819Y-117029886D01*
X116359819Y-117029886D02*
X116312200Y-117125124D01*
X116312200Y-117125124D02*
X116264580Y-117172743D01*
X116264580Y-117172743D02*
X116169342Y-117220362D01*
X116169342Y-117220362D02*
X115883628Y-117220362D01*
X115883628Y-117220362D02*
X115788390Y-117172743D01*
X115788390Y-117172743D02*
X115740771Y-117125124D01*
X115740771Y-117125124D02*
X115693152Y-117029886D01*
X115693152Y-117029886D02*
X115693152Y-116839410D01*
X115693152Y-116839410D02*
X115740771Y-116744172D01*
X115693152Y-115601314D02*
X116359819Y-115363219D01*
X116359819Y-115363219D02*
X115693152Y-115125124D01*
X115359819Y-114553695D02*
X115359819Y-114458457D01*
X115359819Y-114458457D02*
X115407438Y-114363219D01*
X115407438Y-114363219D02*
X115455057Y-114315600D01*
X115455057Y-114315600D02*
X115550295Y-114267981D01*
X115550295Y-114267981D02*
X115740771Y-114220362D01*
X115740771Y-114220362D02*
X115978866Y-114220362D01*
X115978866Y-114220362D02*
X116169342Y-114267981D01*
X116169342Y-114267981D02*
X116264580Y-114315600D01*
X116264580Y-114315600D02*
X116312200Y-114363219D01*
X116312200Y-114363219D02*
X116359819Y-114458457D01*
X116359819Y-114458457D02*
X116359819Y-114553695D01*
X116359819Y-114553695D02*
X116312200Y-114648933D01*
X116312200Y-114648933D02*
X116264580Y-114696552D01*
X116264580Y-114696552D02*
X116169342Y-114744171D01*
X116169342Y-114744171D02*
X115978866Y-114791790D01*
X115978866Y-114791790D02*
X115740771Y-114791790D01*
X115740771Y-114791790D02*
X115550295Y-114744171D01*
X115550295Y-114744171D02*
X115455057Y-114696552D01*
X115455057Y-114696552D02*
X115407438Y-114648933D01*
X115407438Y-114648933D02*
X115359819Y-114553695D01*
X116264580Y-113791790D02*
X116312200Y-113744171D01*
X116312200Y-113744171D02*
X116359819Y-113791790D01*
X116359819Y-113791790D02*
X116312200Y-113839409D01*
X116312200Y-113839409D02*
X116264580Y-113791790D01*
X116264580Y-113791790D02*
X116359819Y-113791790D01*
X115359819Y-113125124D02*
X115359819Y-113029886D01*
X115359819Y-113029886D02*
X115407438Y-112934648D01*
X115407438Y-112934648D02*
X115455057Y-112887029D01*
X115455057Y-112887029D02*
X115550295Y-112839410D01*
X115550295Y-112839410D02*
X115740771Y-112791791D01*
X115740771Y-112791791D02*
X115978866Y-112791791D01*
X115978866Y-112791791D02*
X116169342Y-112839410D01*
X116169342Y-112839410D02*
X116264580Y-112887029D01*
X116264580Y-112887029D02*
X116312200Y-112934648D01*
X116312200Y-112934648D02*
X116359819Y-113029886D01*
X116359819Y-113029886D02*
X116359819Y-113125124D01*
X116359819Y-113125124D02*
X116312200Y-113220362D01*
X116312200Y-113220362D02*
X116264580Y-113267981D01*
X116264580Y-113267981D02*
X116169342Y-113315600D01*
X116169342Y-113315600D02*
X115978866Y-113363219D01*
X115978866Y-113363219D02*
X115740771Y-113363219D01*
X115740771Y-113363219D02*
X115550295Y-113315600D01*
X115550295Y-113315600D02*
X115455057Y-113267981D01*
X115455057Y-113267981D02*
X115407438Y-113220362D01*
X115407438Y-113220362D02*
X115359819Y-113125124D01*
X116264580Y-112363219D02*
X116312200Y-112315600D01*
X116312200Y-112315600D02*
X116359819Y-112363219D01*
X116359819Y-112363219D02*
X116312200Y-112410838D01*
X116312200Y-112410838D02*
X116264580Y-112363219D01*
X116264580Y-112363219D02*
X116359819Y-112363219D01*
X116359819Y-111363220D02*
X116359819Y-111934648D01*
X116359819Y-111648934D02*
X115359819Y-111648934D01*
X115359819Y-111648934D02*
X115502676Y-111744172D01*
X115502676Y-111744172D02*
X115597914Y-111839410D01*
X115597914Y-111839410D02*
X115645533Y-111934648D01*
X117922200Y-124410839D02*
X117969819Y-124267982D01*
X117969819Y-124267982D02*
X117969819Y-124029887D01*
X117969819Y-124029887D02*
X117922200Y-123934649D01*
X117922200Y-123934649D02*
X117874580Y-123887030D01*
X117874580Y-123887030D02*
X117779342Y-123839411D01*
X117779342Y-123839411D02*
X117684104Y-123839411D01*
X117684104Y-123839411D02*
X117588866Y-123887030D01*
X117588866Y-123887030D02*
X117541247Y-123934649D01*
X117541247Y-123934649D02*
X117493628Y-124029887D01*
X117493628Y-124029887D02*
X117446009Y-124220363D01*
X117446009Y-124220363D02*
X117398390Y-124315601D01*
X117398390Y-124315601D02*
X117350771Y-124363220D01*
X117350771Y-124363220D02*
X117255533Y-124410839D01*
X117255533Y-124410839D02*
X117160295Y-124410839D01*
X117160295Y-124410839D02*
X117065057Y-124363220D01*
X117065057Y-124363220D02*
X117017438Y-124315601D01*
X117017438Y-124315601D02*
X116969819Y-124220363D01*
X116969819Y-124220363D02*
X116969819Y-123982268D01*
X116969819Y-123982268D02*
X117017438Y-123839411D01*
X117874580Y-123410839D02*
X117922200Y-123363220D01*
X117922200Y-123363220D02*
X117969819Y-123410839D01*
X117969819Y-123410839D02*
X117922200Y-123458458D01*
X117922200Y-123458458D02*
X117874580Y-123410839D01*
X117874580Y-123410839D02*
X117969819Y-123410839D01*
X117684104Y-122220363D02*
X117684104Y-121744173D01*
X117969819Y-122315601D02*
X116969819Y-121982268D01*
X116969819Y-121982268D02*
X117969819Y-121648935D01*
X117303152Y-121410839D02*
X117969819Y-121172744D01*
X117969819Y-121172744D02*
X117303152Y-120934649D01*
X117922200Y-120172744D02*
X117969819Y-120267982D01*
X117969819Y-120267982D02*
X117969819Y-120458458D01*
X117969819Y-120458458D02*
X117922200Y-120553696D01*
X117922200Y-120553696D02*
X117826961Y-120601315D01*
X117826961Y-120601315D02*
X117446009Y-120601315D01*
X117446009Y-120601315D02*
X117350771Y-120553696D01*
X117350771Y-120553696D02*
X117303152Y-120458458D01*
X117303152Y-120458458D02*
X117303152Y-120267982D01*
X117303152Y-120267982D02*
X117350771Y-120172744D01*
X117350771Y-120172744D02*
X117446009Y-120125125D01*
X117446009Y-120125125D02*
X117541247Y-120125125D01*
X117541247Y-120125125D02*
X117636485Y-120601315D01*
X117303152Y-119839410D02*
X117303152Y-119458458D01*
X116969819Y-119696553D02*
X117826961Y-119696553D01*
X117826961Y-119696553D02*
X117922200Y-119648934D01*
X117922200Y-119648934D02*
X117969819Y-119553696D01*
X117969819Y-119553696D02*
X117969819Y-119458458D01*
X117969819Y-119125124D02*
X117303152Y-119125124D01*
X116969819Y-119125124D02*
X117017438Y-119172743D01*
X117017438Y-119172743D02*
X117065057Y-119125124D01*
X117065057Y-119125124D02*
X117017438Y-119077505D01*
X117017438Y-119077505D02*
X116969819Y-119125124D01*
X116969819Y-119125124D02*
X117065057Y-119125124D01*
X117922200Y-118696553D02*
X117969819Y-118601315D01*
X117969819Y-118601315D02*
X117969819Y-118410839D01*
X117969819Y-118410839D02*
X117922200Y-118315601D01*
X117922200Y-118315601D02*
X117826961Y-118267982D01*
X117826961Y-118267982D02*
X117779342Y-118267982D01*
X117779342Y-118267982D02*
X117684104Y-118315601D01*
X117684104Y-118315601D02*
X117636485Y-118410839D01*
X117636485Y-118410839D02*
X117636485Y-118553696D01*
X117636485Y-118553696D02*
X117588866Y-118648934D01*
X117588866Y-118648934D02*
X117493628Y-118696553D01*
X117493628Y-118696553D02*
X117446009Y-118696553D01*
X117446009Y-118696553D02*
X117350771Y-118648934D01*
X117350771Y-118648934D02*
X117303152Y-118553696D01*
X117303152Y-118553696D02*
X117303152Y-118410839D01*
X117303152Y-118410839D02*
X117350771Y-118315601D01*
X117303152Y-117934648D02*
X117969819Y-117696553D01*
X117303152Y-117458458D02*
X117969819Y-117696553D01*
X117969819Y-117696553D02*
X118207914Y-117791791D01*
X118207914Y-117791791D02*
X118255533Y-117839410D01*
X118255533Y-117839410D02*
X118303152Y-117934648D01*
X117969819Y-116648934D02*
X117446009Y-116648934D01*
X117446009Y-116648934D02*
X117350771Y-116696553D01*
X117350771Y-116696553D02*
X117303152Y-116791791D01*
X117303152Y-116791791D02*
X117303152Y-116982267D01*
X117303152Y-116982267D02*
X117350771Y-117077505D01*
X117922200Y-116648934D02*
X117969819Y-116744172D01*
X117969819Y-116744172D02*
X117969819Y-116982267D01*
X117969819Y-116982267D02*
X117922200Y-117077505D01*
X117922200Y-117077505D02*
X117826961Y-117125124D01*
X117826961Y-117125124D02*
X117731723Y-117125124D01*
X117731723Y-117125124D02*
X117636485Y-117077505D01*
X117636485Y-117077505D02*
X117588866Y-116982267D01*
X117588866Y-116982267D02*
X117588866Y-116744172D01*
X117588866Y-116744172D02*
X117541247Y-116648934D01*
X117303152Y-116172743D02*
X117969819Y-116172743D01*
X117398390Y-116172743D02*
X117350771Y-116125124D01*
X117350771Y-116125124D02*
X117303152Y-116029886D01*
X117303152Y-116029886D02*
X117303152Y-115887029D01*
X117303152Y-115887029D02*
X117350771Y-115791791D01*
X117350771Y-115791791D02*
X117446009Y-115744172D01*
X117446009Y-115744172D02*
X117969819Y-115744172D01*
D11*
X124795595Y-92407819D02*
X124795595Y-93217342D01*
X124795595Y-93217342D02*
X124843214Y-93312580D01*
X124843214Y-93312580D02*
X124890833Y-93360200D01*
X124890833Y-93360200D02*
X124986071Y-93407819D01*
X124986071Y-93407819D02*
X125176547Y-93407819D01*
X125176547Y-93407819D02*
X125271785Y-93360200D01*
X125271785Y-93360200D02*
X125319404Y-93312580D01*
X125319404Y-93312580D02*
X125367023Y-93217342D01*
X125367023Y-93217342D02*
X125367023Y-92407819D01*
X126271785Y-92741152D02*
X126271785Y-93407819D01*
X126033690Y-92360200D02*
X125795595Y-93074485D01*
X125795595Y-93074485D02*
X126414642Y-93074485D01*
D10*
X120678433Y-132354819D02*
X120345100Y-131878628D01*
X120107005Y-132354819D02*
X120107005Y-131354819D01*
X120107005Y-131354819D02*
X120487957Y-131354819D01*
X120487957Y-131354819D02*
X120583195Y-131402438D01*
X120583195Y-131402438D02*
X120630814Y-131450057D01*
X120630814Y-131450057D02*
X120678433Y-131545295D01*
X120678433Y-131545295D02*
X120678433Y-131688152D01*
X120678433Y-131688152D02*
X120630814Y-131783390D01*
X120630814Y-131783390D02*
X120583195Y-131831009D01*
X120583195Y-131831009D02*
X120487957Y-131878628D01*
X120487957Y-131878628D02*
X120107005Y-131878628D01*
X121630814Y-132354819D02*
X121059386Y-132354819D01*
X121345100Y-132354819D02*
X121345100Y-131354819D01*
X121345100Y-131354819D02*
X121249862Y-131497676D01*
X121249862Y-131497676D02*
X121154624Y-131592914D01*
X121154624Y-131592914D02*
X121059386Y-131640533D01*
X120633333Y-129254819D02*
X120300000Y-128778628D01*
X120061905Y-129254819D02*
X120061905Y-128254819D01*
X120061905Y-128254819D02*
X120442857Y-128254819D01*
X120442857Y-128254819D02*
X120538095Y-128302438D01*
X120538095Y-128302438D02*
X120585714Y-128350057D01*
X120585714Y-128350057D02*
X120633333Y-128445295D01*
X120633333Y-128445295D02*
X120633333Y-128588152D01*
X120633333Y-128588152D02*
X120585714Y-128683390D01*
X120585714Y-128683390D02*
X120538095Y-128731009D01*
X120538095Y-128731009D02*
X120442857Y-128778628D01*
X120442857Y-128778628D02*
X120061905Y-128778628D01*
X121490476Y-128588152D02*
X121490476Y-129254819D01*
X121252381Y-128207200D02*
X121014286Y-128921485D01*
X121014286Y-128921485D02*
X121633333Y-128921485D01*
X127772100Y-103933332D02*
X127819719Y-103790475D01*
X127819719Y-103790475D02*
X127819719Y-103552380D01*
X127819719Y-103552380D02*
X127772100Y-103457142D01*
X127772100Y-103457142D02*
X127724480Y-103409523D01*
X127724480Y-103409523D02*
X127629242Y-103361904D01*
X127629242Y-103361904D02*
X127534004Y-103361904D01*
X127534004Y-103361904D02*
X127438766Y-103409523D01*
X127438766Y-103409523D02*
X127391147Y-103457142D01*
X127391147Y-103457142D02*
X127343528Y-103552380D01*
X127343528Y-103552380D02*
X127295909Y-103742856D01*
X127295909Y-103742856D02*
X127248290Y-103838094D01*
X127248290Y-103838094D02*
X127200671Y-103885713D01*
X127200671Y-103885713D02*
X127105433Y-103933332D01*
X127105433Y-103933332D02*
X127010195Y-103933332D01*
X127010195Y-103933332D02*
X126914957Y-103885713D01*
X126914957Y-103885713D02*
X126867338Y-103838094D01*
X126867338Y-103838094D02*
X126819719Y-103742856D01*
X126819719Y-103742856D02*
X126819719Y-103504761D01*
X126819719Y-103504761D02*
X126867338Y-103361904D01*
X126819719Y-103028570D02*
X127819719Y-102790475D01*
X127819719Y-102790475D02*
X127105433Y-102599999D01*
X127105433Y-102599999D02*
X127819719Y-102409523D01*
X127819719Y-102409523D02*
X126819719Y-102171428D01*
X127819719Y-101266666D02*
X127819719Y-101838094D01*
X127819719Y-101552380D02*
X126819719Y-101552380D01*
X126819719Y-101552380D02*
X126962576Y-101647618D01*
X126962576Y-101647618D02*
X127057814Y-101742856D01*
X127057814Y-101742856D02*
X127105433Y-101838094D01*
X134238095Y-135954819D02*
X134238095Y-136764342D01*
X134238095Y-136764342D02*
X134285714Y-136859580D01*
X134285714Y-136859580D02*
X134333333Y-136907200D01*
X134333333Y-136907200D02*
X134428571Y-136954819D01*
X134428571Y-136954819D02*
X134619047Y-136954819D01*
X134619047Y-136954819D02*
X134714285Y-136907200D01*
X134714285Y-136907200D02*
X134761904Y-136859580D01*
X134761904Y-136859580D02*
X134809523Y-136764342D01*
X134809523Y-136764342D02*
X134809523Y-135954819D01*
X135238095Y-136050057D02*
X135285714Y-136002438D01*
X135285714Y-136002438D02*
X135380952Y-135954819D01*
X135380952Y-135954819D02*
X135619047Y-135954819D01*
X135619047Y-135954819D02*
X135714285Y-136002438D01*
X135714285Y-136002438D02*
X135761904Y-136050057D01*
X135761904Y-136050057D02*
X135809523Y-136145295D01*
X135809523Y-136145295D02*
X135809523Y-136240533D01*
X135809523Y-136240533D02*
X135761904Y-136383390D01*
X135761904Y-136383390D02*
X135190476Y-136954819D01*
X135190476Y-136954819D02*
X135809523Y-136954819D01*
X118054819Y-103138094D02*
X117054819Y-103138094D01*
X117054819Y-103138094D02*
X117054819Y-102899999D01*
X117054819Y-102899999D02*
X117102438Y-102757142D01*
X117102438Y-102757142D02*
X117197676Y-102661904D01*
X117197676Y-102661904D02*
X117292914Y-102614285D01*
X117292914Y-102614285D02*
X117483390Y-102566666D01*
X117483390Y-102566666D02*
X117626247Y-102566666D01*
X117626247Y-102566666D02*
X117816723Y-102614285D01*
X117816723Y-102614285D02*
X117911961Y-102661904D01*
X117911961Y-102661904D02*
X118007200Y-102757142D01*
X118007200Y-102757142D02*
X118054819Y-102899999D01*
X118054819Y-102899999D02*
X118054819Y-103138094D01*
X118054819Y-101614285D02*
X118054819Y-102185713D01*
X118054819Y-101899999D02*
X117054819Y-101899999D01*
X117054819Y-101899999D02*
X117197676Y-101995237D01*
X117197676Y-101995237D02*
X117292914Y-102090475D01*
X117292914Y-102090475D02*
X117340533Y-102185713D01*
X118054819Y-110261904D02*
X117054819Y-110261904D01*
X118054819Y-109690476D02*
X117483390Y-110119047D01*
X117054819Y-109690476D02*
X117626247Y-110261904D01*
X116707200Y-139033332D02*
X116754819Y-138890475D01*
X116754819Y-138890475D02*
X116754819Y-138652380D01*
X116754819Y-138652380D02*
X116707200Y-138557142D01*
X116707200Y-138557142D02*
X116659580Y-138509523D01*
X116659580Y-138509523D02*
X116564342Y-138461904D01*
X116564342Y-138461904D02*
X116469104Y-138461904D01*
X116469104Y-138461904D02*
X116373866Y-138509523D01*
X116373866Y-138509523D02*
X116326247Y-138557142D01*
X116326247Y-138557142D02*
X116278628Y-138652380D01*
X116278628Y-138652380D02*
X116231009Y-138842856D01*
X116231009Y-138842856D02*
X116183390Y-138938094D01*
X116183390Y-138938094D02*
X116135771Y-138985713D01*
X116135771Y-138985713D02*
X116040533Y-139033332D01*
X116040533Y-139033332D02*
X115945295Y-139033332D01*
X115945295Y-139033332D02*
X115850057Y-138985713D01*
X115850057Y-138985713D02*
X115802438Y-138938094D01*
X115802438Y-138938094D02*
X115754819Y-138842856D01*
X115754819Y-138842856D02*
X115754819Y-138604761D01*
X115754819Y-138604761D02*
X115802438Y-138461904D01*
X115754819Y-138128570D02*
X116754819Y-137890475D01*
X116754819Y-137890475D02*
X116040533Y-137699999D01*
X116040533Y-137699999D02*
X116754819Y-137509523D01*
X116754819Y-137509523D02*
X115754819Y-137271428D01*
X115850057Y-136938094D02*
X115802438Y-136890475D01*
X115802438Y-136890475D02*
X115754819Y-136795237D01*
X115754819Y-136795237D02*
X115754819Y-136557142D01*
X115754819Y-136557142D02*
X115802438Y-136461904D01*
X115802438Y-136461904D02*
X115850057Y-136414285D01*
X115850057Y-136414285D02*
X115945295Y-136366666D01*
X115945295Y-136366666D02*
X116040533Y-136366666D01*
X116040533Y-136366666D02*
X116183390Y-136414285D01*
X116183390Y-136414285D02*
X116754819Y-136985713D01*
X116754819Y-136985713D02*
X116754819Y-136366666D01*
X128938095Y-85154819D02*
X128938095Y-84154819D01*
X128938095Y-84631009D02*
X129509523Y-84631009D01*
X129509523Y-85154819D02*
X129509523Y-84154819D01*
X130509523Y-85154819D02*
X129938095Y-85154819D01*
X130223809Y-85154819D02*
X130223809Y-84154819D01*
X130223809Y-84154819D02*
X130128571Y-84297676D01*
X130128571Y-84297676D02*
X130033333Y-84392914D01*
X130033333Y-84392914D02*
X129938095Y-84440533D01*
X122059580Y-85866666D02*
X122107200Y-85914285D01*
X122107200Y-85914285D02*
X122154819Y-86057142D01*
X122154819Y-86057142D02*
X122154819Y-86152380D01*
X122154819Y-86152380D02*
X122107200Y-86295237D01*
X122107200Y-86295237D02*
X122011961Y-86390475D01*
X122011961Y-86390475D02*
X121916723Y-86438094D01*
X121916723Y-86438094D02*
X121726247Y-86485713D01*
X121726247Y-86485713D02*
X121583390Y-86485713D01*
X121583390Y-86485713D02*
X121392914Y-86438094D01*
X121392914Y-86438094D02*
X121297676Y-86390475D01*
X121297676Y-86390475D02*
X121202438Y-86295237D01*
X121202438Y-86295237D02*
X121154819Y-86152380D01*
X121154819Y-86152380D02*
X121154819Y-86057142D01*
X121154819Y-86057142D02*
X121202438Y-85914285D01*
X121202438Y-85914285D02*
X121250057Y-85866666D01*
X121250057Y-85485713D02*
X121202438Y-85438094D01*
X121202438Y-85438094D02*
X121154819Y-85342856D01*
X121154819Y-85342856D02*
X121154819Y-85104761D01*
X121154819Y-85104761D02*
X121202438Y-85009523D01*
X121202438Y-85009523D02*
X121250057Y-84961904D01*
X121250057Y-84961904D02*
X121345295Y-84914285D01*
X121345295Y-84914285D02*
X121440533Y-84914285D01*
X121440533Y-84914285D02*
X121583390Y-84961904D01*
X121583390Y-84961904D02*
X122154819Y-85533332D01*
X122154819Y-85533332D02*
X122154819Y-84914285D01*
X129459580Y-92466666D02*
X129507200Y-92514285D01*
X129507200Y-92514285D02*
X129554819Y-92657142D01*
X129554819Y-92657142D02*
X129554819Y-92752380D01*
X129554819Y-92752380D02*
X129507200Y-92895237D01*
X129507200Y-92895237D02*
X129411961Y-92990475D01*
X129411961Y-92990475D02*
X129316723Y-93038094D01*
X129316723Y-93038094D02*
X129126247Y-93085713D01*
X129126247Y-93085713D02*
X128983390Y-93085713D01*
X128983390Y-93085713D02*
X128792914Y-93038094D01*
X128792914Y-93038094D02*
X128697676Y-92990475D01*
X128697676Y-92990475D02*
X128602438Y-92895237D01*
X128602438Y-92895237D02*
X128554819Y-92752380D01*
X128554819Y-92752380D02*
X128554819Y-92657142D01*
X128554819Y-92657142D02*
X128602438Y-92514285D01*
X128602438Y-92514285D02*
X128650057Y-92466666D01*
X129554819Y-91514285D02*
X129554819Y-92085713D01*
X129554819Y-91799999D02*
X128554819Y-91799999D01*
X128554819Y-91799999D02*
X128697676Y-91895237D01*
X128697676Y-91895237D02*
X128792914Y-91990475D01*
X128792914Y-91990475D02*
X128840533Y-92085713D01*
X129195238Y-140331009D02*
X129338095Y-140378628D01*
X129338095Y-140378628D02*
X129385714Y-140426247D01*
X129385714Y-140426247D02*
X129433333Y-140521485D01*
X129433333Y-140521485D02*
X129433333Y-140664342D01*
X129433333Y-140664342D02*
X129385714Y-140759580D01*
X129385714Y-140759580D02*
X129338095Y-140807200D01*
X129338095Y-140807200D02*
X129242857Y-140854819D01*
X129242857Y-140854819D02*
X128861905Y-140854819D01*
X128861905Y-140854819D02*
X128861905Y-139854819D01*
X128861905Y-139854819D02*
X129195238Y-139854819D01*
X129195238Y-139854819D02*
X129290476Y-139902438D01*
X129290476Y-139902438D02*
X129338095Y-139950057D01*
X129338095Y-139950057D02*
X129385714Y-140045295D01*
X129385714Y-140045295D02*
X129385714Y-140140533D01*
X129385714Y-140140533D02*
X129338095Y-140235771D01*
X129338095Y-140235771D02*
X129290476Y-140283390D01*
X129290476Y-140283390D02*
X129195238Y-140331009D01*
X129195238Y-140331009D02*
X128861905Y-140331009D01*
X130290476Y-140188152D02*
X130290476Y-140854819D01*
X130052381Y-139807200D02*
X129814286Y-140521485D01*
X129814286Y-140521485D02*
X130433333Y-140521485D01*
X122833333Y-77759580D02*
X122785714Y-77807200D01*
X122785714Y-77807200D02*
X122642857Y-77854819D01*
X122642857Y-77854819D02*
X122547619Y-77854819D01*
X122547619Y-77854819D02*
X122404762Y-77807200D01*
X122404762Y-77807200D02*
X122309524Y-77711961D01*
X122309524Y-77711961D02*
X122261905Y-77616723D01*
X122261905Y-77616723D02*
X122214286Y-77426247D01*
X122214286Y-77426247D02*
X122214286Y-77283390D01*
X122214286Y-77283390D02*
X122261905Y-77092914D01*
X122261905Y-77092914D02*
X122309524Y-76997676D01*
X122309524Y-76997676D02*
X122404762Y-76902438D01*
X122404762Y-76902438D02*
X122547619Y-76854819D01*
X122547619Y-76854819D02*
X122642857Y-76854819D01*
X122642857Y-76854819D02*
X122785714Y-76902438D01*
X122785714Y-76902438D02*
X122833333Y-76950057D01*
X123690476Y-77188152D02*
X123690476Y-77854819D01*
X123452381Y-76807200D02*
X123214286Y-77521485D01*
X123214286Y-77521485D02*
X123833333Y-77521485D01*
X132431009Y-118633333D02*
X132431009Y-118966666D01*
X132954819Y-118966666D02*
X131954819Y-118966666D01*
X131954819Y-118966666D02*
X131954819Y-118490476D01*
X132954819Y-117585714D02*
X132954819Y-118157142D01*
X132954819Y-117871428D02*
X131954819Y-117871428D01*
X131954819Y-117871428D02*
X132097676Y-117966666D01*
X132097676Y-117966666D02*
X132192914Y-118061904D01*
X132192914Y-118061904D02*
X132240533Y-118157142D01*
X130478433Y-129254819D02*
X130145100Y-128778628D01*
X129907005Y-129254819D02*
X129907005Y-128254819D01*
X129907005Y-128254819D02*
X130287957Y-128254819D01*
X130287957Y-128254819D02*
X130383195Y-128302438D01*
X130383195Y-128302438D02*
X130430814Y-128350057D01*
X130430814Y-128350057D02*
X130478433Y-128445295D01*
X130478433Y-128445295D02*
X130478433Y-128588152D01*
X130478433Y-128588152D02*
X130430814Y-128683390D01*
X130430814Y-128683390D02*
X130383195Y-128731009D01*
X130383195Y-128731009D02*
X130287957Y-128778628D01*
X130287957Y-128778628D02*
X129907005Y-128778628D01*
X130859386Y-128350057D02*
X130907005Y-128302438D01*
X130907005Y-128302438D02*
X131002243Y-128254819D01*
X131002243Y-128254819D02*
X131240338Y-128254819D01*
X131240338Y-128254819D02*
X131335576Y-128302438D01*
X131335576Y-128302438D02*
X131383195Y-128350057D01*
X131383195Y-128350057D02*
X131430814Y-128445295D01*
X131430814Y-128445295D02*
X131430814Y-128540533D01*
X131430814Y-128540533D02*
X131383195Y-128683390D01*
X131383195Y-128683390D02*
X130811767Y-129254819D01*
X130811767Y-129254819D02*
X131430814Y-129254819D01*
X120890476Y-140854819D02*
X120890476Y-139854819D01*
X120890476Y-139854819D02*
X121223809Y-140569104D01*
X121223809Y-140569104D02*
X121557142Y-139854819D01*
X121557142Y-139854819D02*
X121557142Y-140854819D01*
X122557142Y-140854819D02*
X121985714Y-140854819D01*
X122271428Y-140854819D02*
X122271428Y-139854819D01*
X122271428Y-139854819D02*
X122176190Y-139997676D01*
X122176190Y-139997676D02*
X122080952Y-140092914D01*
X122080952Y-140092914D02*
X121985714Y-140140533D01*
X122154819Y-103138094D02*
X121154819Y-103138094D01*
X121154819Y-103138094D02*
X121154819Y-102899999D01*
X121154819Y-102899999D02*
X121202438Y-102757142D01*
X121202438Y-102757142D02*
X121297676Y-102661904D01*
X121297676Y-102661904D02*
X121392914Y-102614285D01*
X121392914Y-102614285D02*
X121583390Y-102566666D01*
X121583390Y-102566666D02*
X121726247Y-102566666D01*
X121726247Y-102566666D02*
X121916723Y-102614285D01*
X121916723Y-102614285D02*
X122011961Y-102661904D01*
X122011961Y-102661904D02*
X122107200Y-102757142D01*
X122107200Y-102757142D02*
X122154819Y-102899999D01*
X122154819Y-102899999D02*
X122154819Y-103138094D01*
X121250057Y-102185713D02*
X121202438Y-102138094D01*
X121202438Y-102138094D02*
X121154819Y-102042856D01*
X121154819Y-102042856D02*
X121154819Y-101804761D01*
X121154819Y-101804761D02*
X121202438Y-101709523D01*
X121202438Y-101709523D02*
X121250057Y-101661904D01*
X121250057Y-101661904D02*
X121345295Y-101614285D01*
X121345295Y-101614285D02*
X121440533Y-101614285D01*
X121440533Y-101614285D02*
X121583390Y-101661904D01*
X121583390Y-101661904D02*
X122154819Y-102233332D01*
X122154819Y-102233332D02*
X122154819Y-101614285D01*
X121454819Y-110261904D02*
X120454819Y-110261904D01*
X121454819Y-109690476D02*
X120883390Y-110119047D01*
X120454819Y-109690476D02*
X121026247Y-110261904D01*
X130433333Y-132354819D02*
X130100000Y-131878628D01*
X129861905Y-132354819D02*
X129861905Y-131354819D01*
X129861905Y-131354819D02*
X130242857Y-131354819D01*
X130242857Y-131354819D02*
X130338095Y-131402438D01*
X130338095Y-131402438D02*
X130385714Y-131450057D01*
X130385714Y-131450057D02*
X130433333Y-131545295D01*
X130433333Y-131545295D02*
X130433333Y-131688152D01*
X130433333Y-131688152D02*
X130385714Y-131783390D01*
X130385714Y-131783390D02*
X130338095Y-131831009D01*
X130338095Y-131831009D02*
X130242857Y-131878628D01*
X130242857Y-131878628D02*
X129861905Y-131878628D01*
X130766667Y-131354819D02*
X131385714Y-131354819D01*
X131385714Y-131354819D02*
X131052381Y-131735771D01*
X131052381Y-131735771D02*
X131195238Y-131735771D01*
X131195238Y-131735771D02*
X131290476Y-131783390D01*
X131290476Y-131783390D02*
X131338095Y-131831009D01*
X131338095Y-131831009D02*
X131385714Y-131926247D01*
X131385714Y-131926247D02*
X131385714Y-132164342D01*
X131385714Y-132164342D02*
X131338095Y-132259580D01*
X131338095Y-132259580D02*
X131290476Y-132307200D01*
X131290476Y-132307200D02*
X131195238Y-132354819D01*
X131195238Y-132354819D02*
X130909524Y-132354819D01*
X130909524Y-132354819D02*
X130814286Y-132307200D01*
X130814286Y-132307200D02*
X130766667Y-132259580D01*
X122059580Y-92466666D02*
X122107200Y-92514285D01*
X122107200Y-92514285D02*
X122154819Y-92657142D01*
X122154819Y-92657142D02*
X122154819Y-92752380D01*
X122154819Y-92752380D02*
X122107200Y-92895237D01*
X122107200Y-92895237D02*
X122011961Y-92990475D01*
X122011961Y-92990475D02*
X121916723Y-93038094D01*
X121916723Y-93038094D02*
X121726247Y-93085713D01*
X121726247Y-93085713D02*
X121583390Y-93085713D01*
X121583390Y-93085713D02*
X121392914Y-93038094D01*
X121392914Y-93038094D02*
X121297676Y-92990475D01*
X121297676Y-92990475D02*
X121202438Y-92895237D01*
X121202438Y-92895237D02*
X121154819Y-92752380D01*
X121154819Y-92752380D02*
X121154819Y-92657142D01*
X121154819Y-92657142D02*
X121202438Y-92514285D01*
X121202438Y-92514285D02*
X121250057Y-92466666D01*
X121154819Y-92133332D02*
X121154819Y-91514285D01*
X121154819Y-91514285D02*
X121535771Y-91847618D01*
X121535771Y-91847618D02*
X121535771Y-91704761D01*
X121535771Y-91704761D02*
X121583390Y-91609523D01*
X121583390Y-91609523D02*
X121631009Y-91561904D01*
X121631009Y-91561904D02*
X121726247Y-91514285D01*
X121726247Y-91514285D02*
X121964342Y-91514285D01*
X121964342Y-91514285D02*
X122059580Y-91561904D01*
X122059580Y-91561904D02*
X122107200Y-91609523D01*
X122107200Y-91609523D02*
X122154819Y-91704761D01*
X122154819Y-91704761D02*
X122154819Y-91990475D01*
X122154819Y-91990475D02*
X122107200Y-92085713D01*
X122107200Y-92085713D02*
X122059580Y-92133332D01*
D11*
%TO.C,U4*%
X132946840Y-96139740D02*
G75*
G03*
X134446840Y-94639740I0J1500000D01*
G01*
X134447500Y-76420400D02*
G75*
G03*
X132947500Y-74920400I-1500000J0D01*
G01*
X116667500Y-94640400D02*
G75*
G03*
X118167500Y-96140400I1500001J1D01*
G01*
X118168160Y-74921060D02*
G75*
G03*
X116668160Y-76421060I1J-1500001D01*
G01*
X121002500Y-73425000D02*
X130112500Y-73425000D01*
X130112500Y-73425000D02*
X130112500Y-75160400D01*
X130112500Y-75160400D02*
X121002500Y-75160400D01*
X121002500Y-75160400D02*
X121002500Y-73425000D01*
X134447500Y-76420400D02*
X134446840Y-94639740D01*
X132947500Y-74920400D02*
X130117500Y-74920400D01*
X132946840Y-96139740D02*
X118167500Y-96140400D01*
X118168160Y-74921060D02*
X120997500Y-74920400D01*
X116667500Y-94640400D02*
X116668160Y-76421060D01*
D12*
%TO.C,R1*%
X117575100Y-130530000D02*
X124115100Y-130530000D01*
X117575100Y-130860000D02*
X117575100Y-130530000D01*
X117575100Y-132940000D02*
X117575100Y-133270000D01*
X117575100Y-133270000D02*
X124115100Y-133270000D01*
X124115100Y-130530000D02*
X124115100Y-130860000D01*
X124115100Y-133270000D02*
X124115100Y-132940000D01*
%TO.C,R4*%
X117565100Y-127430000D02*
X124105100Y-127430000D01*
X117565100Y-127760000D02*
X117565100Y-127430000D01*
X117565100Y-129840000D02*
X117565100Y-130170000D01*
X117565100Y-130170000D02*
X124105100Y-130170000D01*
X124105100Y-127430000D02*
X124105100Y-127760000D01*
X124105100Y-130170000D02*
X124105100Y-129840000D01*
D13*
%TO.C,SW1*%
X125197900Y-107730800D02*
X134062500Y-107730800D01*
X134062500Y-107730800D02*
X134062500Y-97469200D01*
X125197900Y-106124986D02*
X125197900Y-107730800D01*
X125197900Y-103584986D02*
X125197900Y-104155014D01*
X125197900Y-101044986D02*
X125197900Y-101615014D01*
X125197900Y-97469200D02*
X125197900Y-99075014D01*
X134062500Y-97469200D02*
X125197900Y-97469200D01*
D12*
%TO.C,U2*%
X128670000Y-136530000D02*
X128670000Y-139130000D01*
X128670000Y-136530000D02*
X131270000Y-136530000D01*
X131270000Y-133930000D02*
X133870000Y-133930000D01*
X131270000Y-136530000D02*
X131270000Y-133930000D01*
X128670000Y-133930000D02*
X130000000Y-133930000D01*
X128670000Y-139130000D02*
X133870000Y-139130000D01*
X133870000Y-133930000D02*
X133870000Y-139130000D01*
X128670000Y-135260000D02*
X128670000Y-133930000D01*
%TO.C,D1*%
X117600000Y-99060000D02*
X117600000Y-100080000D01*
X119070000Y-100080000D02*
X116130000Y-100080000D01*
X116130000Y-100080000D02*
X116130000Y-105520000D01*
X116130000Y-104500000D02*
X119070000Y-104500000D01*
X116130000Y-104620000D02*
X119070000Y-104620000D01*
X116130000Y-104740000D02*
X119070000Y-104740000D01*
X119070000Y-105520000D02*
X119070000Y-100080000D01*
X116130000Y-105520000D02*
X119070000Y-105520000D01*
X117600000Y-106540000D02*
X117600000Y-105520000D01*
%TO.C,SW2*%
X117570000Y-133895000D02*
X118900000Y-133895000D01*
X117570000Y-135225000D02*
X117570000Y-133895000D01*
X117570000Y-136495000D02*
X117570000Y-139095000D01*
X117570000Y-136495000D02*
X120230000Y-136495000D01*
X117570000Y-139095000D02*
X120230000Y-139095000D01*
X120230000Y-136495000D02*
X120230000Y-139095000D01*
D13*
%TO.C,H1*%
X128874400Y-83577901D02*
X130423800Y-83577901D01*
X130423800Y-81622101D02*
X128874400Y-81622101D01*
X127942600Y-82100001D02*
G75*
G03*
X127739400Y-82100001I-101600J0D01*
G01*
X127739400Y-82100001D02*
G75*
G03*
X127942600Y-82100001I101600J0D01*
G01*
D12*
%TO.C,C2*%
X119990000Y-86861252D02*
X119990000Y-84538748D01*
X123410000Y-86861252D02*
X123410000Y-84538748D01*
%TO.C,C1*%
X127390000Y-93461252D02*
X127390000Y-91138748D01*
X130810000Y-93461252D02*
X130810000Y-91138748D01*
%TO.C,B4*%
X124970000Y-133895000D02*
X126300000Y-133895000D01*
X124970000Y-135225000D02*
X124970000Y-133895000D01*
X124970000Y-136495000D02*
X124970000Y-139095000D01*
X124970000Y-136495000D02*
X127630000Y-136495000D01*
X124970000Y-139095000D02*
X127630000Y-139095000D01*
X127630000Y-136495000D02*
X127630000Y-139095000D01*
%TO.C,C4*%
X121838748Y-75690000D02*
X124161252Y-75690000D01*
X121838748Y-79110000D02*
X124161252Y-79110000D01*
D14*
%TO.C,F1*%
X134831200Y-109664000D02*
X121928000Y-109664000D01*
X121928000Y-109664000D02*
X121928000Y-126936000D01*
X134831200Y-113200000D02*
X134831200Y-109664000D01*
X134831200Y-120830000D02*
X134831200Y-115770000D01*
X134831200Y-126936000D02*
X134831200Y-123400000D01*
X121928000Y-126936000D02*
X134831200Y-126936000D01*
D12*
%TO.C,R2*%
X127375100Y-127430000D02*
X133915100Y-127430000D01*
X127375100Y-127760000D02*
X127375100Y-127430000D01*
X127375100Y-129840000D02*
X127375100Y-130170000D01*
X127375100Y-130170000D02*
X133915100Y-130170000D01*
X133915100Y-127430000D02*
X133915100Y-127760000D01*
X133915100Y-130170000D02*
X133915100Y-129840000D01*
%TO.C,M1*%
X121270000Y-133895000D02*
X122600000Y-133895000D01*
X121270000Y-135225000D02*
X121270000Y-133895000D01*
X121270000Y-136495000D02*
X121270000Y-139095000D01*
X121270000Y-136495000D02*
X123930000Y-136495000D01*
X121270000Y-139095000D02*
X123930000Y-139095000D01*
X123930000Y-136495000D02*
X123930000Y-139095000D01*
%TO.C,D2*%
X121700000Y-99060000D02*
X121700000Y-100080000D01*
X123170000Y-100080000D02*
X120230000Y-100080000D01*
X120230000Y-100080000D02*
X120230000Y-105520000D01*
X120230000Y-104500000D02*
X123170000Y-104500000D01*
X120230000Y-104620000D02*
X123170000Y-104620000D01*
X120230000Y-104740000D02*
X123170000Y-104740000D01*
X123170000Y-105520000D02*
X123170000Y-100080000D01*
X120230000Y-105520000D02*
X123170000Y-105520000D01*
X121700000Y-106540000D02*
X121700000Y-105520000D01*
%TO.C,R3*%
X133915100Y-133270000D02*
X127375100Y-133270000D01*
X133915100Y-132940000D02*
X133915100Y-133270000D01*
X133915100Y-130860000D02*
X133915100Y-130530000D01*
X133915100Y-130530000D02*
X127375100Y-130530000D01*
X127375100Y-133270000D02*
X127375100Y-132940000D01*
X127375100Y-130530000D02*
X127375100Y-130860000D01*
%TO.C,C3*%
X119990000Y-93461252D02*
X119990000Y-91138748D01*
X123410000Y-93461252D02*
X123410000Y-91138748D01*
%TD*%
%LPC*%
D15*
%TO.C,U4*%
X133257500Y-80370400D03*
X133257500Y-85450400D03*
X133257500Y-87990400D03*
X133257500Y-90530400D03*
X133257500Y-93070400D03*
X117957500Y-93070400D03*
X133257500Y-77830400D03*
X117957500Y-90530400D03*
X117957500Y-87990400D03*
X133257500Y-82910400D03*
X117957500Y-85450400D03*
X117957500Y-82910400D03*
X117957500Y-80370400D03*
X117957500Y-77830400D03*
%TD*%
D16*
%TO.C,R1*%
X117035100Y-131900000D03*
D17*
X124655100Y-131900000D03*
%TD*%
D16*
%TO.C,R4*%
X117025100Y-128800000D03*
D17*
X124645100Y-128800000D03*
%TD*%
D18*
%TO.C,SW1*%
X125324900Y-102600000D03*
X125324900Y-100060000D03*
X125324900Y-105140000D03*
%TD*%
D19*
%TO.C,U2*%
X130000000Y-135260000D03*
D20*
X132540000Y-135260000D03*
X130000000Y-137800000D03*
X132540000Y-137800000D03*
%TD*%
D21*
%TO.C,D1*%
X117600000Y-97720000D03*
D22*
X117600000Y-107880000D03*
%TD*%
D19*
%TO.C,SW2*%
X118900000Y-135225000D03*
D20*
X118900000Y-137765000D03*
%TD*%
D23*
%TO.C,H1*%
X128798200Y-82100002D03*
X128798200Y-82600001D03*
X128798200Y-83100000D03*
X130500000Y-83100000D03*
X130500000Y-82600001D03*
X130500000Y-82100002D03*
%TD*%
D24*
%TO.C,C2*%
X121700000Y-87837500D03*
X121700000Y-83562500D03*
%TD*%
%TO.C,C1*%
X129100000Y-94437500D03*
X129100000Y-90162500D03*
%TD*%
D19*
%TO.C,B4*%
X126300000Y-135225000D03*
D20*
X126300000Y-137765000D03*
%TD*%
D25*
%TO.C,C4*%
X120862500Y-77400000D03*
X125137500Y-77400000D03*
%TD*%
D26*
%TO.C,F1*%
X126500000Y-118300000D03*
D27*
X134120000Y-114490000D03*
X134120000Y-122110000D03*
%TD*%
D16*
%TO.C,R2*%
X126835100Y-128800000D03*
D17*
X134455100Y-128800000D03*
%TD*%
D19*
%TO.C,M1*%
X122600000Y-135225000D03*
D20*
X122600000Y-137765000D03*
%TD*%
D21*
%TO.C,D2*%
X121700000Y-97720000D03*
D22*
X121700000Y-107880000D03*
%TD*%
D16*
%TO.C,R3*%
X134455100Y-131900000D03*
D17*
X126835100Y-131900000D03*
%TD*%
D24*
%TO.C,C3*%
X121700000Y-94437500D03*
X121700000Y-90162500D03*
%TD*%
%LPD*%
M02*
