%TF.GenerationSoftware,KiCad,Pcbnew,7.0.10*%
%TF.CreationDate,2024-03-11T00:13:40-07:00*%
%TF.ProjectId,Pressure_Sensor_Mount,50726573-7375-4726-955f-53656e736f72,rev?*%
%TF.SameCoordinates,Original*%
%TF.FileFunction,Drillmap*%
%TF.FilePolarity,Positive*%
%FSLAX45Y45*%
G04 Gerber Fmt 4.5, Leading zero omitted, Abs format (unit mm)*
G04 Created by KiCad (PCBNEW 7.0.10) date 2024-03-11 00:13:40*
%MOMM*%
%LPD*%
G01*
G04 APERTURE LIST*
%ADD10C,0.100000*%
%ADD11C,0.200000*%
G04 APERTURE END LIST*
D10*
X13840000Y-8580000D02*
X15030000Y-8580000D01*
X15030000Y-9430000D01*
X13840000Y-9430000D01*
X13840000Y-8580000D01*
D11*
D10*
X14002000Y-8750000D02*
X14102000Y-8850000D01*
X14102000Y-8750000D02*
X14002000Y-8850000D01*
X14256000Y-8750000D02*
X14356000Y-8850000D01*
X14356000Y-8750000D02*
X14256000Y-8850000D01*
X14510000Y-8750000D02*
X14610000Y-8850000D01*
X14610000Y-8750000D02*
X14510000Y-8850000D01*
X14764000Y-8750000D02*
X14864000Y-8850000D01*
X14864000Y-8750000D02*
X14764000Y-8850000D01*
D11*
X14095777Y-9746484D02*
X14095777Y-9546484D01*
X14095777Y-9546484D02*
X14143396Y-9546484D01*
X14143396Y-9546484D02*
X14171967Y-9556008D01*
X14171967Y-9556008D02*
X14191015Y-9575055D01*
X14191015Y-9575055D02*
X14200539Y-9594103D01*
X14200539Y-9594103D02*
X14210062Y-9632198D01*
X14210062Y-9632198D02*
X14210062Y-9660770D01*
X14210062Y-9660770D02*
X14200539Y-9698865D01*
X14200539Y-9698865D02*
X14191015Y-9717912D01*
X14191015Y-9717912D02*
X14171967Y-9736960D01*
X14171967Y-9736960D02*
X14143396Y-9746484D01*
X14143396Y-9746484D02*
X14095777Y-9746484D01*
X14295777Y-9746484D02*
X14295777Y-9613150D01*
X14295777Y-9651246D02*
X14305301Y-9632198D01*
X14305301Y-9632198D02*
X14314824Y-9622674D01*
X14314824Y-9622674D02*
X14333872Y-9613150D01*
X14333872Y-9613150D02*
X14352920Y-9613150D01*
X14419586Y-9746484D02*
X14419586Y-9613150D01*
X14419586Y-9546484D02*
X14410062Y-9556008D01*
X14410062Y-9556008D02*
X14419586Y-9565531D01*
X14419586Y-9565531D02*
X14429110Y-9556008D01*
X14429110Y-9556008D02*
X14419586Y-9546484D01*
X14419586Y-9546484D02*
X14419586Y-9565531D01*
X14543396Y-9746484D02*
X14524348Y-9736960D01*
X14524348Y-9736960D02*
X14514824Y-9717912D01*
X14514824Y-9717912D02*
X14514824Y-9546484D01*
X14648158Y-9746484D02*
X14629110Y-9736960D01*
X14629110Y-9736960D02*
X14619586Y-9717912D01*
X14619586Y-9717912D02*
X14619586Y-9546484D01*
X14876729Y-9746484D02*
X14876729Y-9546484D01*
X14876729Y-9546484D02*
X14943396Y-9689341D01*
X14943396Y-9689341D02*
X15010062Y-9546484D01*
X15010062Y-9546484D02*
X15010062Y-9746484D01*
X15191015Y-9746484D02*
X15191015Y-9641722D01*
X15191015Y-9641722D02*
X15181491Y-9622674D01*
X15181491Y-9622674D02*
X15162443Y-9613150D01*
X15162443Y-9613150D02*
X15124348Y-9613150D01*
X15124348Y-9613150D02*
X15105301Y-9622674D01*
X15191015Y-9736960D02*
X15171967Y-9746484D01*
X15171967Y-9746484D02*
X15124348Y-9746484D01*
X15124348Y-9746484D02*
X15105301Y-9736960D01*
X15105301Y-9736960D02*
X15095777Y-9717912D01*
X15095777Y-9717912D02*
X15095777Y-9698865D01*
X15095777Y-9698865D02*
X15105301Y-9679817D01*
X15105301Y-9679817D02*
X15124348Y-9670293D01*
X15124348Y-9670293D02*
X15171967Y-9670293D01*
X15171967Y-9670293D02*
X15191015Y-9660770D01*
X15286253Y-9613150D02*
X15286253Y-9813150D01*
X15286253Y-9622674D02*
X15305301Y-9613150D01*
X15305301Y-9613150D02*
X15343396Y-9613150D01*
X15343396Y-9613150D02*
X15362443Y-9622674D01*
X15362443Y-9622674D02*
X15371967Y-9632198D01*
X15371967Y-9632198D02*
X15381491Y-9651246D01*
X15381491Y-9651246D02*
X15381491Y-9708389D01*
X15381491Y-9708389D02*
X15371967Y-9727436D01*
X15371967Y-9727436D02*
X15362443Y-9736960D01*
X15362443Y-9736960D02*
X15343396Y-9746484D01*
X15343396Y-9746484D02*
X15305301Y-9746484D01*
X15305301Y-9746484D02*
X15286253Y-9736960D01*
X15467205Y-9727436D02*
X15476729Y-9736960D01*
X15476729Y-9736960D02*
X15467205Y-9746484D01*
X15467205Y-9746484D02*
X15457682Y-9736960D01*
X15457682Y-9736960D02*
X15467205Y-9727436D01*
X15467205Y-9727436D02*
X15467205Y-9746484D01*
X15467205Y-9622674D02*
X15476729Y-9632198D01*
X15476729Y-9632198D02*
X15467205Y-9641722D01*
X15467205Y-9641722D02*
X15457682Y-9632198D01*
X15457682Y-9632198D02*
X15467205Y-9622674D01*
X15467205Y-9622674D02*
X15467205Y-9641722D01*
D10*
X13735000Y-10025000D02*
X13835000Y-10125000D01*
X13835000Y-10025000D02*
X13735000Y-10125000D01*
D11*
X14200539Y-10166484D02*
X14086253Y-10166484D01*
X14143396Y-10166484D02*
X14143396Y-9966484D01*
X14143396Y-9966484D02*
X14124348Y-9995055D01*
X14124348Y-9995055D02*
X14105301Y-10014103D01*
X14105301Y-10014103D02*
X14086253Y-10023627D01*
X14286253Y-10147436D02*
X14295777Y-10156960D01*
X14295777Y-10156960D02*
X14286253Y-10166484D01*
X14286253Y-10166484D02*
X14276729Y-10156960D01*
X14276729Y-10156960D02*
X14286253Y-10147436D01*
X14286253Y-10147436D02*
X14286253Y-10166484D01*
X14419586Y-9966484D02*
X14438634Y-9966484D01*
X14438634Y-9966484D02*
X14457682Y-9976008D01*
X14457682Y-9976008D02*
X14467205Y-9985531D01*
X14467205Y-9985531D02*
X14476729Y-10004579D01*
X14476729Y-10004579D02*
X14486253Y-10042674D01*
X14486253Y-10042674D02*
X14486253Y-10090293D01*
X14486253Y-10090293D02*
X14476729Y-10128389D01*
X14476729Y-10128389D02*
X14467205Y-10147436D01*
X14467205Y-10147436D02*
X14457682Y-10156960D01*
X14457682Y-10156960D02*
X14438634Y-10166484D01*
X14438634Y-10166484D02*
X14419586Y-10166484D01*
X14419586Y-10166484D02*
X14400539Y-10156960D01*
X14400539Y-10156960D02*
X14391015Y-10147436D01*
X14391015Y-10147436D02*
X14381491Y-10128389D01*
X14381491Y-10128389D02*
X14371967Y-10090293D01*
X14371967Y-10090293D02*
X14371967Y-10042674D01*
X14371967Y-10042674D02*
X14381491Y-10004579D01*
X14381491Y-10004579D02*
X14391015Y-9985531D01*
X14391015Y-9985531D02*
X14400539Y-9976008D01*
X14400539Y-9976008D02*
X14419586Y-9966484D01*
X14610062Y-9966484D02*
X14629110Y-9966484D01*
X14629110Y-9966484D02*
X14648158Y-9976008D01*
X14648158Y-9976008D02*
X14657682Y-9985531D01*
X14657682Y-9985531D02*
X14667205Y-10004579D01*
X14667205Y-10004579D02*
X14676729Y-10042674D01*
X14676729Y-10042674D02*
X14676729Y-10090293D01*
X14676729Y-10090293D02*
X14667205Y-10128389D01*
X14667205Y-10128389D02*
X14657682Y-10147436D01*
X14657682Y-10147436D02*
X14648158Y-10156960D01*
X14648158Y-10156960D02*
X14629110Y-10166484D01*
X14629110Y-10166484D02*
X14610062Y-10166484D01*
X14610062Y-10166484D02*
X14591015Y-10156960D01*
X14591015Y-10156960D02*
X14581491Y-10147436D01*
X14581491Y-10147436D02*
X14571967Y-10128389D01*
X14571967Y-10128389D02*
X14562443Y-10090293D01*
X14562443Y-10090293D02*
X14562443Y-10042674D01*
X14562443Y-10042674D02*
X14571967Y-10004579D01*
X14571967Y-10004579D02*
X14581491Y-9985531D01*
X14581491Y-9985531D02*
X14591015Y-9976008D01*
X14591015Y-9976008D02*
X14610062Y-9966484D01*
X14800539Y-9966484D02*
X14819586Y-9966484D01*
X14819586Y-9966484D02*
X14838634Y-9976008D01*
X14838634Y-9976008D02*
X14848158Y-9985531D01*
X14848158Y-9985531D02*
X14857682Y-10004579D01*
X14857682Y-10004579D02*
X14867205Y-10042674D01*
X14867205Y-10042674D02*
X14867205Y-10090293D01*
X14867205Y-10090293D02*
X14857682Y-10128389D01*
X14857682Y-10128389D02*
X14848158Y-10147436D01*
X14848158Y-10147436D02*
X14838634Y-10156960D01*
X14838634Y-10156960D02*
X14819586Y-10166484D01*
X14819586Y-10166484D02*
X14800539Y-10166484D01*
X14800539Y-10166484D02*
X14781491Y-10156960D01*
X14781491Y-10156960D02*
X14771967Y-10147436D01*
X14771967Y-10147436D02*
X14762443Y-10128389D01*
X14762443Y-10128389D02*
X14752920Y-10090293D01*
X14752920Y-10090293D02*
X14752920Y-10042674D01*
X14752920Y-10042674D02*
X14762443Y-10004579D01*
X14762443Y-10004579D02*
X14771967Y-9985531D01*
X14771967Y-9985531D02*
X14781491Y-9976008D01*
X14781491Y-9976008D02*
X14800539Y-9966484D01*
X14952920Y-10166484D02*
X14952920Y-10033150D01*
X14952920Y-10052198D02*
X14962443Y-10042674D01*
X14962443Y-10042674D02*
X14981491Y-10033150D01*
X14981491Y-10033150D02*
X15010063Y-10033150D01*
X15010063Y-10033150D02*
X15029110Y-10042674D01*
X15029110Y-10042674D02*
X15038634Y-10061722D01*
X15038634Y-10061722D02*
X15038634Y-10166484D01*
X15038634Y-10061722D02*
X15048158Y-10042674D01*
X15048158Y-10042674D02*
X15067205Y-10033150D01*
X15067205Y-10033150D02*
X15095777Y-10033150D01*
X15095777Y-10033150D02*
X15114824Y-10042674D01*
X15114824Y-10042674D02*
X15124348Y-10061722D01*
X15124348Y-10061722D02*
X15124348Y-10166484D01*
X15219586Y-10166484D02*
X15219586Y-10033150D01*
X15219586Y-10052198D02*
X15229110Y-10042674D01*
X15229110Y-10042674D02*
X15248158Y-10033150D01*
X15248158Y-10033150D02*
X15276729Y-10033150D01*
X15276729Y-10033150D02*
X15295777Y-10042674D01*
X15295777Y-10042674D02*
X15305301Y-10061722D01*
X15305301Y-10061722D02*
X15305301Y-10166484D01*
X15305301Y-10061722D02*
X15314824Y-10042674D01*
X15314824Y-10042674D02*
X15333872Y-10033150D01*
X15333872Y-10033150D02*
X15362443Y-10033150D01*
X15362443Y-10033150D02*
X15381491Y-10042674D01*
X15381491Y-10042674D02*
X15391015Y-10061722D01*
X15391015Y-10061722D02*
X15391015Y-10166484D01*
X15781491Y-9956960D02*
X15610063Y-10214103D01*
X16038634Y-9966484D02*
X16057682Y-9966484D01*
X16057682Y-9966484D02*
X16076729Y-9976008D01*
X16076729Y-9976008D02*
X16086253Y-9985531D01*
X16086253Y-9985531D02*
X16095777Y-10004579D01*
X16095777Y-10004579D02*
X16105301Y-10042674D01*
X16105301Y-10042674D02*
X16105301Y-10090293D01*
X16105301Y-10090293D02*
X16095777Y-10128389D01*
X16095777Y-10128389D02*
X16086253Y-10147436D01*
X16086253Y-10147436D02*
X16076729Y-10156960D01*
X16076729Y-10156960D02*
X16057682Y-10166484D01*
X16057682Y-10166484D02*
X16038634Y-10166484D01*
X16038634Y-10166484D02*
X16019586Y-10156960D01*
X16019586Y-10156960D02*
X16010063Y-10147436D01*
X16010063Y-10147436D02*
X16000539Y-10128389D01*
X16000539Y-10128389D02*
X15991015Y-10090293D01*
X15991015Y-10090293D02*
X15991015Y-10042674D01*
X15991015Y-10042674D02*
X16000539Y-10004579D01*
X16000539Y-10004579D02*
X16010063Y-9985531D01*
X16010063Y-9985531D02*
X16019586Y-9976008D01*
X16019586Y-9976008D02*
X16038634Y-9966484D01*
X16191015Y-10147436D02*
X16200539Y-10156960D01*
X16200539Y-10156960D02*
X16191015Y-10166484D01*
X16191015Y-10166484D02*
X16181491Y-10156960D01*
X16181491Y-10156960D02*
X16191015Y-10147436D01*
X16191015Y-10147436D02*
X16191015Y-10166484D01*
X16324348Y-9966484D02*
X16343396Y-9966484D01*
X16343396Y-9966484D02*
X16362444Y-9976008D01*
X16362444Y-9976008D02*
X16371967Y-9985531D01*
X16371967Y-9985531D02*
X16381491Y-10004579D01*
X16381491Y-10004579D02*
X16391015Y-10042674D01*
X16391015Y-10042674D02*
X16391015Y-10090293D01*
X16391015Y-10090293D02*
X16381491Y-10128389D01*
X16381491Y-10128389D02*
X16371967Y-10147436D01*
X16371967Y-10147436D02*
X16362444Y-10156960D01*
X16362444Y-10156960D02*
X16343396Y-10166484D01*
X16343396Y-10166484D02*
X16324348Y-10166484D01*
X16324348Y-10166484D02*
X16305301Y-10156960D01*
X16305301Y-10156960D02*
X16295777Y-10147436D01*
X16295777Y-10147436D02*
X16286253Y-10128389D01*
X16286253Y-10128389D02*
X16276729Y-10090293D01*
X16276729Y-10090293D02*
X16276729Y-10042674D01*
X16276729Y-10042674D02*
X16286253Y-10004579D01*
X16286253Y-10004579D02*
X16295777Y-9985531D01*
X16295777Y-9985531D02*
X16305301Y-9976008D01*
X16305301Y-9976008D02*
X16324348Y-9966484D01*
X16457682Y-9966484D02*
X16581491Y-9966484D01*
X16581491Y-9966484D02*
X16514825Y-10042674D01*
X16514825Y-10042674D02*
X16543396Y-10042674D01*
X16543396Y-10042674D02*
X16562444Y-10052198D01*
X16562444Y-10052198D02*
X16571967Y-10061722D01*
X16571967Y-10061722D02*
X16581491Y-10080770D01*
X16581491Y-10080770D02*
X16581491Y-10128389D01*
X16581491Y-10128389D02*
X16571967Y-10147436D01*
X16571967Y-10147436D02*
X16562444Y-10156960D01*
X16562444Y-10156960D02*
X16543396Y-10166484D01*
X16543396Y-10166484D02*
X16486253Y-10166484D01*
X16486253Y-10166484D02*
X16467206Y-10156960D01*
X16467206Y-10156960D02*
X16457682Y-10147436D01*
X16676729Y-10166484D02*
X16714825Y-10166484D01*
X16714825Y-10166484D02*
X16733872Y-10156960D01*
X16733872Y-10156960D02*
X16743396Y-10147436D01*
X16743396Y-10147436D02*
X16762444Y-10118865D01*
X16762444Y-10118865D02*
X16771967Y-10080770D01*
X16771967Y-10080770D02*
X16771967Y-10004579D01*
X16771967Y-10004579D02*
X16762444Y-9985531D01*
X16762444Y-9985531D02*
X16752920Y-9976008D01*
X16752920Y-9976008D02*
X16733872Y-9966484D01*
X16733872Y-9966484D02*
X16695777Y-9966484D01*
X16695777Y-9966484D02*
X16676729Y-9976008D01*
X16676729Y-9976008D02*
X16667206Y-9985531D01*
X16667206Y-9985531D02*
X16657682Y-10004579D01*
X16657682Y-10004579D02*
X16657682Y-10052198D01*
X16657682Y-10052198D02*
X16667206Y-10071246D01*
X16667206Y-10071246D02*
X16676729Y-10080770D01*
X16676729Y-10080770D02*
X16695777Y-10090293D01*
X16695777Y-10090293D02*
X16733872Y-10090293D01*
X16733872Y-10090293D02*
X16752920Y-10080770D01*
X16752920Y-10080770D02*
X16762444Y-10071246D01*
X16762444Y-10071246D02*
X16771967Y-10052198D01*
X16943396Y-10033150D02*
X16943396Y-10166484D01*
X16895777Y-9956960D02*
X16848158Y-10099817D01*
X16848158Y-10099817D02*
X16971968Y-10099817D01*
X17038634Y-9966484D02*
X17038634Y-10004579D01*
X17114825Y-9966484D02*
X17114825Y-10004579D01*
X17410063Y-10242674D02*
X17400539Y-10233150D01*
X17400539Y-10233150D02*
X17381491Y-10204579D01*
X17381491Y-10204579D02*
X17371968Y-10185531D01*
X17371968Y-10185531D02*
X17362444Y-10156960D01*
X17362444Y-10156960D02*
X17352920Y-10109341D01*
X17352920Y-10109341D02*
X17352920Y-10071246D01*
X17352920Y-10071246D02*
X17362444Y-10023627D01*
X17362444Y-10023627D02*
X17371968Y-9995055D01*
X17371968Y-9995055D02*
X17381491Y-9976008D01*
X17381491Y-9976008D02*
X17400539Y-9947436D01*
X17400539Y-9947436D02*
X17410063Y-9937912D01*
X17571968Y-10033150D02*
X17571968Y-10166484D01*
X17524349Y-9956960D02*
X17476730Y-10099817D01*
X17476730Y-10099817D02*
X17600539Y-10099817D01*
X17829111Y-10166484D02*
X17829111Y-9966484D01*
X17914825Y-10166484D02*
X17914825Y-10061722D01*
X17914825Y-10061722D02*
X17905301Y-10042674D01*
X17905301Y-10042674D02*
X17886253Y-10033150D01*
X17886253Y-10033150D02*
X17857682Y-10033150D01*
X17857682Y-10033150D02*
X17838634Y-10042674D01*
X17838634Y-10042674D02*
X17829111Y-10052198D01*
X18038634Y-10166484D02*
X18019587Y-10156960D01*
X18019587Y-10156960D02*
X18010063Y-10147436D01*
X18010063Y-10147436D02*
X18000539Y-10128389D01*
X18000539Y-10128389D02*
X18000539Y-10071246D01*
X18000539Y-10071246D02*
X18010063Y-10052198D01*
X18010063Y-10052198D02*
X18019587Y-10042674D01*
X18019587Y-10042674D02*
X18038634Y-10033150D01*
X18038634Y-10033150D02*
X18067206Y-10033150D01*
X18067206Y-10033150D02*
X18086253Y-10042674D01*
X18086253Y-10042674D02*
X18095777Y-10052198D01*
X18095777Y-10052198D02*
X18105301Y-10071246D01*
X18105301Y-10071246D02*
X18105301Y-10128389D01*
X18105301Y-10128389D02*
X18095777Y-10147436D01*
X18095777Y-10147436D02*
X18086253Y-10156960D01*
X18086253Y-10156960D02*
X18067206Y-10166484D01*
X18067206Y-10166484D02*
X18038634Y-10166484D01*
X18219587Y-10166484D02*
X18200539Y-10156960D01*
X18200539Y-10156960D02*
X18191015Y-10137912D01*
X18191015Y-10137912D02*
X18191015Y-9966484D01*
X18371968Y-10156960D02*
X18352920Y-10166484D01*
X18352920Y-10166484D02*
X18314825Y-10166484D01*
X18314825Y-10166484D02*
X18295777Y-10156960D01*
X18295777Y-10156960D02*
X18286253Y-10137912D01*
X18286253Y-10137912D02*
X18286253Y-10061722D01*
X18286253Y-10061722D02*
X18295777Y-10042674D01*
X18295777Y-10042674D02*
X18314825Y-10033150D01*
X18314825Y-10033150D02*
X18352920Y-10033150D01*
X18352920Y-10033150D02*
X18371968Y-10042674D01*
X18371968Y-10042674D02*
X18381492Y-10061722D01*
X18381492Y-10061722D02*
X18381492Y-10080770D01*
X18381492Y-10080770D02*
X18286253Y-10099817D01*
X18457682Y-10156960D02*
X18476730Y-10166484D01*
X18476730Y-10166484D02*
X18514825Y-10166484D01*
X18514825Y-10166484D02*
X18533873Y-10156960D01*
X18533873Y-10156960D02*
X18543396Y-10137912D01*
X18543396Y-10137912D02*
X18543396Y-10128389D01*
X18543396Y-10128389D02*
X18533873Y-10109341D01*
X18533873Y-10109341D02*
X18514825Y-10099817D01*
X18514825Y-10099817D02*
X18486253Y-10099817D01*
X18486253Y-10099817D02*
X18467206Y-10090293D01*
X18467206Y-10090293D02*
X18457682Y-10071246D01*
X18457682Y-10071246D02*
X18457682Y-10061722D01*
X18457682Y-10061722D02*
X18467206Y-10042674D01*
X18467206Y-10042674D02*
X18486253Y-10033150D01*
X18486253Y-10033150D02*
X18514825Y-10033150D01*
X18514825Y-10033150D02*
X18533873Y-10042674D01*
X18610063Y-10242674D02*
X18619587Y-10233150D01*
X18619587Y-10233150D02*
X18638634Y-10204579D01*
X18638634Y-10204579D02*
X18648158Y-10185531D01*
X18648158Y-10185531D02*
X18657682Y-10156960D01*
X18657682Y-10156960D02*
X18667206Y-10109341D01*
X18667206Y-10109341D02*
X18667206Y-10071246D01*
X18667206Y-10071246D02*
X18657682Y-10023627D01*
X18657682Y-10023627D02*
X18648158Y-9995055D01*
X18648158Y-9995055D02*
X18638634Y-9976008D01*
X18638634Y-9976008D02*
X18619587Y-9947436D01*
X18619587Y-9947436D02*
X18610063Y-9937912D01*
M02*
