G04 #@! TF.GenerationSoftware,KiCad,Pcbnew,7.0.10*
G04 #@! TF.CreationDate,2024-03-10T23:50:27-07:00*
G04 #@! TF.ProjectId,Pressure_Sensor_Mount,50726573-7375-4726-955f-53656e736f72,rev?*
G04 #@! TF.SameCoordinates,Original*
G04 #@! TF.FileFunction,Legend,Top*
G04 #@! TF.FilePolarity,Positive*
%FSLAX46Y46*%
G04 Gerber Fmt 4.6, Leading zero omitted, Abs format (unit mm)*
G04 Created by KiCad (PCBNEW 7.0.10) date 2024-03-10 23:50:27*
%MOMM*%
%LPD*%
G01*
G04 APERTURE LIST*
%ADD10C,0.100000*%
%ADD11C,0.150000*%
%ADD12C,0.152400*%
%ADD13R,0.990600X0.990600*%
%ADD14R,1.700000X1.700000*%
%ADD15O,1.700000X1.700000*%
G04 APERTURE END LIST*
D10*
X147575312Y-86234990D02*
X147499122Y-86196895D01*
X147499122Y-86196895D02*
X147384836Y-86196895D01*
X147384836Y-86196895D02*
X147270550Y-86234990D01*
X147270550Y-86234990D02*
X147194360Y-86311180D01*
X147194360Y-86311180D02*
X147156265Y-86387371D01*
X147156265Y-86387371D02*
X147118169Y-86539752D01*
X147118169Y-86539752D02*
X147118169Y-86654038D01*
X147118169Y-86654038D02*
X147156265Y-86806419D01*
X147156265Y-86806419D02*
X147194360Y-86882609D01*
X147194360Y-86882609D02*
X147270550Y-86958800D01*
X147270550Y-86958800D02*
X147384836Y-86996895D01*
X147384836Y-86996895D02*
X147461027Y-86996895D01*
X147461027Y-86996895D02*
X147575312Y-86958800D01*
X147575312Y-86958800D02*
X147613408Y-86920704D01*
X147613408Y-86920704D02*
X147613408Y-86654038D01*
X147613408Y-86654038D02*
X147461027Y-86654038D01*
X147956265Y-86996895D02*
X147956265Y-86196895D01*
X147956265Y-86196895D02*
X148413408Y-86996895D01*
X148413408Y-86996895D02*
X148413408Y-86196895D01*
X148794360Y-86996895D02*
X148794360Y-86196895D01*
X148794360Y-86196895D02*
X148984836Y-86196895D01*
X148984836Y-86196895D02*
X149099122Y-86234990D01*
X149099122Y-86234990D02*
X149175312Y-86311180D01*
X149175312Y-86311180D02*
X149213407Y-86387371D01*
X149213407Y-86387371D02*
X149251503Y-86539752D01*
X149251503Y-86539752D02*
X149251503Y-86654038D01*
X149251503Y-86654038D02*
X149213407Y-86806419D01*
X149213407Y-86806419D02*
X149175312Y-86882609D01*
X149175312Y-86882609D02*
X149099122Y-86958800D01*
X149099122Y-86958800D02*
X148984836Y-86996895D01*
X148984836Y-86996895D02*
X148794360Y-86996895D01*
X144541979Y-86196895D02*
X144808646Y-86996895D01*
X144808646Y-86996895D02*
X145075312Y-86196895D01*
X145341979Y-86996895D02*
X145341979Y-86196895D01*
X145341979Y-86196895D02*
X145532455Y-86196895D01*
X145532455Y-86196895D02*
X145646741Y-86234990D01*
X145646741Y-86234990D02*
X145722931Y-86311180D01*
X145722931Y-86311180D02*
X145761026Y-86387371D01*
X145761026Y-86387371D02*
X145799122Y-86539752D01*
X145799122Y-86539752D02*
X145799122Y-86654038D01*
X145799122Y-86654038D02*
X145761026Y-86806419D01*
X145761026Y-86806419D02*
X145722931Y-86882609D01*
X145722931Y-86882609D02*
X145646741Y-86958800D01*
X145646741Y-86958800D02*
X145532455Y-86996895D01*
X145532455Y-86996895D02*
X145341979Y-86996895D01*
X146141979Y-86996895D02*
X146141979Y-86196895D01*
X146141979Y-86196895D02*
X146332455Y-86196895D01*
X146332455Y-86196895D02*
X146446741Y-86234990D01*
X146446741Y-86234990D02*
X146522931Y-86311180D01*
X146522931Y-86311180D02*
X146561026Y-86387371D01*
X146561026Y-86387371D02*
X146599122Y-86539752D01*
X146599122Y-86539752D02*
X146599122Y-86654038D01*
X146599122Y-86654038D02*
X146561026Y-86806419D01*
X146561026Y-86806419D02*
X146522931Y-86882609D01*
X146522931Y-86882609D02*
X146446741Y-86958800D01*
X146446741Y-86958800D02*
X146332455Y-86996895D01*
X146332455Y-86996895D02*
X146141979Y-86996895D01*
X142118169Y-86958800D02*
X142232455Y-86996895D01*
X142232455Y-86996895D02*
X142422931Y-86996895D01*
X142422931Y-86996895D02*
X142499122Y-86958800D01*
X142499122Y-86958800D02*
X142537217Y-86920704D01*
X142537217Y-86920704D02*
X142575312Y-86844514D01*
X142575312Y-86844514D02*
X142575312Y-86768323D01*
X142575312Y-86768323D02*
X142537217Y-86692133D01*
X142537217Y-86692133D02*
X142499122Y-86654038D01*
X142499122Y-86654038D02*
X142422931Y-86615942D01*
X142422931Y-86615942D02*
X142270550Y-86577847D01*
X142270550Y-86577847D02*
X142194360Y-86539752D01*
X142194360Y-86539752D02*
X142156265Y-86501657D01*
X142156265Y-86501657D02*
X142118169Y-86425466D01*
X142118169Y-86425466D02*
X142118169Y-86349276D01*
X142118169Y-86349276D02*
X142156265Y-86273085D01*
X142156265Y-86273085D02*
X142194360Y-86234990D01*
X142194360Y-86234990D02*
X142270550Y-86196895D01*
X142270550Y-86196895D02*
X142461027Y-86196895D01*
X142461027Y-86196895D02*
X142575312Y-86234990D01*
X143375313Y-86920704D02*
X143337217Y-86958800D01*
X143337217Y-86958800D02*
X143222932Y-86996895D01*
X143222932Y-86996895D02*
X143146741Y-86996895D01*
X143146741Y-86996895D02*
X143032455Y-86958800D01*
X143032455Y-86958800D02*
X142956265Y-86882609D01*
X142956265Y-86882609D02*
X142918170Y-86806419D01*
X142918170Y-86806419D02*
X142880074Y-86654038D01*
X142880074Y-86654038D02*
X142880074Y-86539752D01*
X142880074Y-86539752D02*
X142918170Y-86387371D01*
X142918170Y-86387371D02*
X142956265Y-86311180D01*
X142956265Y-86311180D02*
X143032455Y-86234990D01*
X143032455Y-86234990D02*
X143146741Y-86196895D01*
X143146741Y-86196895D02*
X143222932Y-86196895D01*
X143222932Y-86196895D02*
X143337217Y-86234990D01*
X143337217Y-86234990D02*
X143375313Y-86273085D01*
X144099122Y-86996895D02*
X143718170Y-86996895D01*
X143718170Y-86996895D02*
X143718170Y-86196895D01*
X138956265Y-92408895D02*
X138956265Y-91608895D01*
X138956265Y-91608895D02*
X139261027Y-91608895D01*
X139261027Y-91608895D02*
X139337217Y-91646990D01*
X139337217Y-91646990D02*
X139375312Y-91685085D01*
X139375312Y-91685085D02*
X139413408Y-91761276D01*
X139413408Y-91761276D02*
X139413408Y-91875561D01*
X139413408Y-91875561D02*
X139375312Y-91951752D01*
X139375312Y-91951752D02*
X139337217Y-91989847D01*
X139337217Y-91989847D02*
X139261027Y-92027942D01*
X139261027Y-92027942D02*
X138956265Y-92027942D01*
X139718169Y-92370800D02*
X139832455Y-92408895D01*
X139832455Y-92408895D02*
X140022931Y-92408895D01*
X140022931Y-92408895D02*
X140099122Y-92370800D01*
X140099122Y-92370800D02*
X140137217Y-92332704D01*
X140137217Y-92332704D02*
X140175312Y-92256514D01*
X140175312Y-92256514D02*
X140175312Y-92180323D01*
X140175312Y-92180323D02*
X140137217Y-92104133D01*
X140137217Y-92104133D02*
X140099122Y-92066038D01*
X140099122Y-92066038D02*
X140022931Y-92027942D01*
X140022931Y-92027942D02*
X139870550Y-91989847D01*
X139870550Y-91989847D02*
X139794360Y-91951752D01*
X139794360Y-91951752D02*
X139756265Y-91913657D01*
X139756265Y-91913657D02*
X139718169Y-91837466D01*
X139718169Y-91837466D02*
X139718169Y-91761276D01*
X139718169Y-91761276D02*
X139756265Y-91685085D01*
X139756265Y-91685085D02*
X139794360Y-91646990D01*
X139794360Y-91646990D02*
X139870550Y-91608895D01*
X139870550Y-91608895D02*
X140061027Y-91608895D01*
X140061027Y-91608895D02*
X140175312Y-91646990D01*
X140518170Y-92408895D02*
X140518170Y-91608895D01*
X140518170Y-91608895D02*
X140784836Y-92180323D01*
X140784836Y-92180323D02*
X141051503Y-91608895D01*
X141051503Y-91608895D02*
X141051503Y-92408895D01*
X141965789Y-91875561D02*
X142156265Y-92408895D01*
X142156265Y-92408895D02*
X142346742Y-91875561D01*
X142803885Y-91608895D02*
X142880075Y-91608895D01*
X142880075Y-91608895D02*
X142956266Y-91646990D01*
X142956266Y-91646990D02*
X142994361Y-91685085D01*
X142994361Y-91685085D02*
X143032456Y-91761276D01*
X143032456Y-91761276D02*
X143070551Y-91913657D01*
X143070551Y-91913657D02*
X143070551Y-92104133D01*
X143070551Y-92104133D02*
X143032456Y-92256514D01*
X143032456Y-92256514D02*
X142994361Y-92332704D01*
X142994361Y-92332704D02*
X142956266Y-92370800D01*
X142956266Y-92370800D02*
X142880075Y-92408895D01*
X142880075Y-92408895D02*
X142803885Y-92408895D01*
X142803885Y-92408895D02*
X142727694Y-92370800D01*
X142727694Y-92370800D02*
X142689599Y-92332704D01*
X142689599Y-92332704D02*
X142651504Y-92256514D01*
X142651504Y-92256514D02*
X142613408Y-92104133D01*
X142613408Y-92104133D02*
X142613408Y-91913657D01*
X142613408Y-91913657D02*
X142651504Y-91761276D01*
X142651504Y-91761276D02*
X142689599Y-91685085D01*
X142689599Y-91685085D02*
X142727694Y-91646990D01*
X142727694Y-91646990D02*
X142803885Y-91608895D01*
X143413409Y-92332704D02*
X143451504Y-92370800D01*
X143451504Y-92370800D02*
X143413409Y-92408895D01*
X143413409Y-92408895D02*
X143375313Y-92370800D01*
X143375313Y-92370800D02*
X143413409Y-92332704D01*
X143413409Y-92332704D02*
X143413409Y-92408895D01*
X144213408Y-92408895D02*
X143756265Y-92408895D01*
X143984837Y-92408895D02*
X143984837Y-91608895D01*
X143984837Y-91608895D02*
X143908646Y-91723180D01*
X143908646Y-91723180D02*
X143832456Y-91799371D01*
X143832456Y-91799371D02*
X143756265Y-91837466D01*
X138918169Y-93658800D02*
X139032455Y-93696895D01*
X139032455Y-93696895D02*
X139222931Y-93696895D01*
X139222931Y-93696895D02*
X139299122Y-93658800D01*
X139299122Y-93658800D02*
X139337217Y-93620704D01*
X139337217Y-93620704D02*
X139375312Y-93544514D01*
X139375312Y-93544514D02*
X139375312Y-93468323D01*
X139375312Y-93468323D02*
X139337217Y-93392133D01*
X139337217Y-93392133D02*
X139299122Y-93354038D01*
X139299122Y-93354038D02*
X139222931Y-93315942D01*
X139222931Y-93315942D02*
X139070550Y-93277847D01*
X139070550Y-93277847D02*
X138994360Y-93239752D01*
X138994360Y-93239752D02*
X138956265Y-93201657D01*
X138956265Y-93201657D02*
X138918169Y-93125466D01*
X138918169Y-93125466D02*
X138918169Y-93049276D01*
X138918169Y-93049276D02*
X138956265Y-92973085D01*
X138956265Y-92973085D02*
X138994360Y-92934990D01*
X138994360Y-92934990D02*
X139070550Y-92896895D01*
X139070550Y-92896895D02*
X139261027Y-92896895D01*
X139261027Y-92896895D02*
X139375312Y-92934990D01*
X139718170Y-93620704D02*
X139756265Y-93658800D01*
X139756265Y-93658800D02*
X139718170Y-93696895D01*
X139718170Y-93696895D02*
X139680074Y-93658800D01*
X139680074Y-93658800D02*
X139718170Y-93620704D01*
X139718170Y-93620704D02*
X139718170Y-93696895D01*
X140670550Y-93468323D02*
X141051503Y-93468323D01*
X140594360Y-93696895D02*
X140861027Y-92896895D01*
X140861027Y-92896895D02*
X141127693Y-93696895D01*
X141318169Y-93163561D02*
X141508645Y-93696895D01*
X141508645Y-93696895D02*
X141699122Y-93163561D01*
X142308646Y-93658800D02*
X142232455Y-93696895D01*
X142232455Y-93696895D02*
X142080074Y-93696895D01*
X142080074Y-93696895D02*
X142003884Y-93658800D01*
X142003884Y-93658800D02*
X141965788Y-93582609D01*
X141965788Y-93582609D02*
X141965788Y-93277847D01*
X141965788Y-93277847D02*
X142003884Y-93201657D01*
X142003884Y-93201657D02*
X142080074Y-93163561D01*
X142080074Y-93163561D02*
X142232455Y-93163561D01*
X142232455Y-93163561D02*
X142308646Y-93201657D01*
X142308646Y-93201657D02*
X142346741Y-93277847D01*
X142346741Y-93277847D02*
X142346741Y-93354038D01*
X142346741Y-93354038D02*
X141965788Y-93430228D01*
X142575312Y-93163561D02*
X142880074Y-93163561D01*
X142689598Y-92896895D02*
X142689598Y-93582609D01*
X142689598Y-93582609D02*
X142727693Y-93658800D01*
X142727693Y-93658800D02*
X142803883Y-93696895D01*
X142803883Y-93696895D02*
X142880074Y-93696895D01*
X143146741Y-93696895D02*
X143146741Y-93163561D01*
X143146741Y-92896895D02*
X143108645Y-92934990D01*
X143108645Y-92934990D02*
X143146741Y-92973085D01*
X143146741Y-92973085D02*
X143184836Y-92934990D01*
X143184836Y-92934990D02*
X143146741Y-92896895D01*
X143146741Y-92896895D02*
X143146741Y-92973085D01*
X143489597Y-93658800D02*
X143565788Y-93696895D01*
X143565788Y-93696895D02*
X143718169Y-93696895D01*
X143718169Y-93696895D02*
X143794359Y-93658800D01*
X143794359Y-93658800D02*
X143832455Y-93582609D01*
X143832455Y-93582609D02*
X143832455Y-93544514D01*
X143832455Y-93544514D02*
X143794359Y-93468323D01*
X143794359Y-93468323D02*
X143718169Y-93430228D01*
X143718169Y-93430228D02*
X143603883Y-93430228D01*
X143603883Y-93430228D02*
X143527693Y-93392133D01*
X143527693Y-93392133D02*
X143489597Y-93315942D01*
X143489597Y-93315942D02*
X143489597Y-93277847D01*
X143489597Y-93277847D02*
X143527693Y-93201657D01*
X143527693Y-93201657D02*
X143603883Y-93163561D01*
X143603883Y-93163561D02*
X143718169Y-93163561D01*
X143718169Y-93163561D02*
X143794359Y-93201657D01*
X144099121Y-93163561D02*
X144289597Y-93696895D01*
X144480074Y-93163561D02*
X144289597Y-93696895D01*
X144289597Y-93696895D02*
X144213407Y-93887371D01*
X144213407Y-93887371D02*
X144175312Y-93925466D01*
X144175312Y-93925466D02*
X144099121Y-93963561D01*
X145127693Y-93696895D02*
X145127693Y-93277847D01*
X145127693Y-93277847D02*
X145089598Y-93201657D01*
X145089598Y-93201657D02*
X145013407Y-93163561D01*
X145013407Y-93163561D02*
X144861026Y-93163561D01*
X144861026Y-93163561D02*
X144784836Y-93201657D01*
X145127693Y-93658800D02*
X145051502Y-93696895D01*
X145051502Y-93696895D02*
X144861026Y-93696895D01*
X144861026Y-93696895D02*
X144784836Y-93658800D01*
X144784836Y-93658800D02*
X144746740Y-93582609D01*
X144746740Y-93582609D02*
X144746740Y-93506419D01*
X144746740Y-93506419D02*
X144784836Y-93430228D01*
X144784836Y-93430228D02*
X144861026Y-93392133D01*
X144861026Y-93392133D02*
X145051502Y-93392133D01*
X145051502Y-93392133D02*
X145127693Y-93354038D01*
X145508646Y-93163561D02*
X145508646Y-93696895D01*
X145508646Y-93239752D02*
X145546741Y-93201657D01*
X145546741Y-93201657D02*
X145622931Y-93163561D01*
X145622931Y-93163561D02*
X145737217Y-93163561D01*
X145737217Y-93163561D02*
X145813408Y-93201657D01*
X145813408Y-93201657D02*
X145851503Y-93277847D01*
X145851503Y-93277847D02*
X145851503Y-93696895D01*
X139518169Y-86958800D02*
X139632455Y-86996895D01*
X139632455Y-86996895D02*
X139822931Y-86996895D01*
X139822931Y-86996895D02*
X139899122Y-86958800D01*
X139899122Y-86958800D02*
X139937217Y-86920704D01*
X139937217Y-86920704D02*
X139975312Y-86844514D01*
X139975312Y-86844514D02*
X139975312Y-86768323D01*
X139975312Y-86768323D02*
X139937217Y-86692133D01*
X139937217Y-86692133D02*
X139899122Y-86654038D01*
X139899122Y-86654038D02*
X139822931Y-86615942D01*
X139822931Y-86615942D02*
X139670550Y-86577847D01*
X139670550Y-86577847D02*
X139594360Y-86539752D01*
X139594360Y-86539752D02*
X139556265Y-86501657D01*
X139556265Y-86501657D02*
X139518169Y-86425466D01*
X139518169Y-86425466D02*
X139518169Y-86349276D01*
X139518169Y-86349276D02*
X139556265Y-86273085D01*
X139556265Y-86273085D02*
X139594360Y-86234990D01*
X139594360Y-86234990D02*
X139670550Y-86196895D01*
X139670550Y-86196895D02*
X139861027Y-86196895D01*
X139861027Y-86196895D02*
X139975312Y-86234990D01*
X140318170Y-86996895D02*
X140318170Y-86196895D01*
X140318170Y-86196895D02*
X140508646Y-86196895D01*
X140508646Y-86196895D02*
X140622932Y-86234990D01*
X140622932Y-86234990D02*
X140699122Y-86311180D01*
X140699122Y-86311180D02*
X140737217Y-86387371D01*
X140737217Y-86387371D02*
X140775313Y-86539752D01*
X140775313Y-86539752D02*
X140775313Y-86654038D01*
X140775313Y-86654038D02*
X140737217Y-86806419D01*
X140737217Y-86806419D02*
X140699122Y-86882609D01*
X140699122Y-86882609D02*
X140622932Y-86958800D01*
X140622932Y-86958800D02*
X140508646Y-86996895D01*
X140508646Y-86996895D02*
X140318170Y-86996895D01*
X141080074Y-86768323D02*
X141461027Y-86768323D01*
X141003884Y-86996895D02*
X141270551Y-86196895D01*
X141270551Y-86196895D02*
X141537217Y-86996895D01*
D11*
X144238095Y-89654819D02*
X144238095Y-90464342D01*
X144238095Y-90464342D02*
X144285714Y-90559580D01*
X144285714Y-90559580D02*
X144333333Y-90607200D01*
X144333333Y-90607200D02*
X144428571Y-90654819D01*
X144428571Y-90654819D02*
X144619047Y-90654819D01*
X144619047Y-90654819D02*
X144714285Y-90607200D01*
X144714285Y-90607200D02*
X144761904Y-90559580D01*
X144761904Y-90559580D02*
X144809523Y-90464342D01*
X144809523Y-90464342D02*
X144809523Y-89654819D01*
X145809523Y-90654819D02*
X145238095Y-90654819D01*
X145523809Y-90654819D02*
X145523809Y-89654819D01*
X145523809Y-89654819D02*
X145428571Y-89797676D01*
X145428571Y-89797676D02*
X145333333Y-89892914D01*
X145333333Y-89892914D02*
X145238095Y-89940533D01*
D12*
X146120400Y-90120400D02*
X146120400Y-93879600D01*
X146120400Y-93879600D02*
X149879600Y-93879600D01*
X149879600Y-90120400D02*
X146120400Y-90120400D01*
X149879600Y-93879600D02*
X149879600Y-90120400D01*
X145479300Y-91000000D02*
G75*
G03*
X145326900Y-91000000I-76200J0D01*
G01*
X145326900Y-91000000D02*
G75*
G03*
X145479300Y-91000000I76200J0D01*
G01*
%LPC*%
G36*
X147495299Y-91495299D02*
G01*
X146504699Y-91495299D01*
X146504699Y-90504699D01*
X147495299Y-90504699D01*
X147495299Y-91495299D01*
G37*
G36*
X147495299Y-93495301D02*
G01*
X146504699Y-93495301D01*
X146504699Y-92504701D01*
X147495299Y-92504701D01*
X147495299Y-93495301D01*
G37*
G36*
X149495301Y-91495299D02*
G01*
X148504701Y-91495299D01*
X148504701Y-90504699D01*
X149495301Y-90504699D01*
X149495301Y-91495299D01*
G37*
G36*
X149495301Y-93495301D02*
G01*
X148504701Y-93495301D01*
X148504701Y-92504701D01*
X149495301Y-92504701D01*
X149495301Y-93495301D01*
G37*
D13*
X146999999Y-90999999D03*
X146999999Y-93000001D03*
X149000001Y-93000001D03*
X149000001Y-90999999D03*
D14*
X148140000Y-88000000D03*
D15*
X145600000Y-88000000D03*
X143060000Y-88000000D03*
X140520000Y-88000000D03*
%LPD*%
M02*
