G04 #@! TF.GenerationSoftware,KiCad,Pcbnew,7.0.10*
G04 #@! TF.CreationDate,2024-03-10T23:50:27-07:00*
G04 #@! TF.ProjectId,Pressure_Sensor_Mount,50726573-7375-4726-955f-53656e736f72,rev?*
G04 #@! TF.SameCoordinates,Original*
G04 #@! TF.FileFunction,Legend,Bot*
G04 #@! TF.FilePolarity,Positive*
%FSLAX46Y46*%
G04 Gerber Fmt 4.6, Leading zero omitted, Abs format (unit mm)*
G04 Created by KiCad (PCBNEW 7.0.10) date 2024-03-10 23:50:27*
%MOMM*%
%LPD*%
G01*
G04 APERTURE LIST*
%ADD10C,0.100000*%
%ADD11C,0.150000*%
%ADD12C,0.120000*%
%ADD13R,1.700000X1.700000*%
%ADD14O,1.700000X1.700000*%
G04 APERTURE END LIST*
D10*
X148724687Y-89634990D02*
X148800877Y-89596895D01*
X148800877Y-89596895D02*
X148915163Y-89596895D01*
X148915163Y-89596895D02*
X149029449Y-89634990D01*
X149029449Y-89634990D02*
X149105639Y-89711180D01*
X149105639Y-89711180D02*
X149143734Y-89787371D01*
X149143734Y-89787371D02*
X149181830Y-89939752D01*
X149181830Y-89939752D02*
X149181830Y-90054038D01*
X149181830Y-90054038D02*
X149143734Y-90206419D01*
X149143734Y-90206419D02*
X149105639Y-90282609D01*
X149105639Y-90282609D02*
X149029449Y-90358800D01*
X149029449Y-90358800D02*
X148915163Y-90396895D01*
X148915163Y-90396895D02*
X148838972Y-90396895D01*
X148838972Y-90396895D02*
X148724687Y-90358800D01*
X148724687Y-90358800D02*
X148686591Y-90320704D01*
X148686591Y-90320704D02*
X148686591Y-90054038D01*
X148686591Y-90054038D02*
X148838972Y-90054038D01*
X148343734Y-90396895D02*
X148343734Y-89596895D01*
X148343734Y-89596895D02*
X147886591Y-90396895D01*
X147886591Y-90396895D02*
X147886591Y-89596895D01*
X147505639Y-90396895D02*
X147505639Y-89596895D01*
X147505639Y-89596895D02*
X147315163Y-89596895D01*
X147315163Y-89596895D02*
X147200877Y-89634990D01*
X147200877Y-89634990D02*
X147124687Y-89711180D01*
X147124687Y-89711180D02*
X147086592Y-89787371D01*
X147086592Y-89787371D02*
X147048496Y-89939752D01*
X147048496Y-89939752D02*
X147048496Y-90054038D01*
X147048496Y-90054038D02*
X147086592Y-90206419D01*
X147086592Y-90206419D02*
X147124687Y-90282609D01*
X147124687Y-90282609D02*
X147200877Y-90358800D01*
X147200877Y-90358800D02*
X147315163Y-90396895D01*
X147315163Y-90396895D02*
X147505639Y-90396895D01*
X141481830Y-90358800D02*
X141367544Y-90396895D01*
X141367544Y-90396895D02*
X141177068Y-90396895D01*
X141177068Y-90396895D02*
X141100877Y-90358800D01*
X141100877Y-90358800D02*
X141062782Y-90320704D01*
X141062782Y-90320704D02*
X141024687Y-90244514D01*
X141024687Y-90244514D02*
X141024687Y-90168323D01*
X141024687Y-90168323D02*
X141062782Y-90092133D01*
X141062782Y-90092133D02*
X141100877Y-90054038D01*
X141100877Y-90054038D02*
X141177068Y-90015942D01*
X141177068Y-90015942D02*
X141329449Y-89977847D01*
X141329449Y-89977847D02*
X141405639Y-89939752D01*
X141405639Y-89939752D02*
X141443734Y-89901657D01*
X141443734Y-89901657D02*
X141481830Y-89825466D01*
X141481830Y-89825466D02*
X141481830Y-89749276D01*
X141481830Y-89749276D02*
X141443734Y-89673085D01*
X141443734Y-89673085D02*
X141405639Y-89634990D01*
X141405639Y-89634990D02*
X141329449Y-89596895D01*
X141329449Y-89596895D02*
X141138972Y-89596895D01*
X141138972Y-89596895D02*
X141024687Y-89634990D01*
X140681829Y-90396895D02*
X140681829Y-89596895D01*
X140681829Y-89596895D02*
X140491353Y-89596895D01*
X140491353Y-89596895D02*
X140377067Y-89634990D01*
X140377067Y-89634990D02*
X140300877Y-89711180D01*
X140300877Y-89711180D02*
X140262782Y-89787371D01*
X140262782Y-89787371D02*
X140224686Y-89939752D01*
X140224686Y-89939752D02*
X140224686Y-90054038D01*
X140224686Y-90054038D02*
X140262782Y-90206419D01*
X140262782Y-90206419D02*
X140300877Y-90282609D01*
X140300877Y-90282609D02*
X140377067Y-90358800D01*
X140377067Y-90358800D02*
X140491353Y-90396895D01*
X140491353Y-90396895D02*
X140681829Y-90396895D01*
X139919925Y-90168323D02*
X139538972Y-90168323D01*
X139996115Y-90396895D02*
X139729448Y-89596895D01*
X139729448Y-89596895D02*
X139462782Y-90396895D01*
X143981830Y-90358800D02*
X143867544Y-90396895D01*
X143867544Y-90396895D02*
X143677068Y-90396895D01*
X143677068Y-90396895D02*
X143600877Y-90358800D01*
X143600877Y-90358800D02*
X143562782Y-90320704D01*
X143562782Y-90320704D02*
X143524687Y-90244514D01*
X143524687Y-90244514D02*
X143524687Y-90168323D01*
X143524687Y-90168323D02*
X143562782Y-90092133D01*
X143562782Y-90092133D02*
X143600877Y-90054038D01*
X143600877Y-90054038D02*
X143677068Y-90015942D01*
X143677068Y-90015942D02*
X143829449Y-89977847D01*
X143829449Y-89977847D02*
X143905639Y-89939752D01*
X143905639Y-89939752D02*
X143943734Y-89901657D01*
X143943734Y-89901657D02*
X143981830Y-89825466D01*
X143981830Y-89825466D02*
X143981830Y-89749276D01*
X143981830Y-89749276D02*
X143943734Y-89673085D01*
X143943734Y-89673085D02*
X143905639Y-89634990D01*
X143905639Y-89634990D02*
X143829449Y-89596895D01*
X143829449Y-89596895D02*
X143638972Y-89596895D01*
X143638972Y-89596895D02*
X143524687Y-89634990D01*
X142724686Y-90320704D02*
X142762782Y-90358800D01*
X142762782Y-90358800D02*
X142877067Y-90396895D01*
X142877067Y-90396895D02*
X142953258Y-90396895D01*
X142953258Y-90396895D02*
X143067544Y-90358800D01*
X143067544Y-90358800D02*
X143143734Y-90282609D01*
X143143734Y-90282609D02*
X143181829Y-90206419D01*
X143181829Y-90206419D02*
X143219925Y-90054038D01*
X143219925Y-90054038D02*
X143219925Y-89939752D01*
X143219925Y-89939752D02*
X143181829Y-89787371D01*
X143181829Y-89787371D02*
X143143734Y-89711180D01*
X143143734Y-89711180D02*
X143067544Y-89634990D01*
X143067544Y-89634990D02*
X142953258Y-89596895D01*
X142953258Y-89596895D02*
X142877067Y-89596895D01*
X142877067Y-89596895D02*
X142762782Y-89634990D01*
X142762782Y-89634990D02*
X142724686Y-89673085D01*
X142000877Y-90396895D02*
X142381829Y-90396895D01*
X142381829Y-90396895D02*
X142381829Y-89596895D01*
X146558020Y-89596895D02*
X146291353Y-90396895D01*
X146291353Y-90396895D02*
X146024687Y-89596895D01*
X145758020Y-90396895D02*
X145758020Y-89596895D01*
X145758020Y-89596895D02*
X145567544Y-89596895D01*
X145567544Y-89596895D02*
X145453258Y-89634990D01*
X145453258Y-89634990D02*
X145377068Y-89711180D01*
X145377068Y-89711180D02*
X145338973Y-89787371D01*
X145338973Y-89787371D02*
X145300877Y-89939752D01*
X145300877Y-89939752D02*
X145300877Y-90054038D01*
X145300877Y-90054038D02*
X145338973Y-90206419D01*
X145338973Y-90206419D02*
X145377068Y-90282609D01*
X145377068Y-90282609D02*
X145453258Y-90358800D01*
X145453258Y-90358800D02*
X145567544Y-90396895D01*
X145567544Y-90396895D02*
X145758020Y-90396895D01*
X144958020Y-90396895D02*
X144958020Y-89596895D01*
X144958020Y-89596895D02*
X144767544Y-89596895D01*
X144767544Y-89596895D02*
X144653258Y-89634990D01*
X144653258Y-89634990D02*
X144577068Y-89711180D01*
X144577068Y-89711180D02*
X144538973Y-89787371D01*
X144538973Y-89787371D02*
X144500877Y-89939752D01*
X144500877Y-89939752D02*
X144500877Y-90054038D01*
X144500877Y-90054038D02*
X144538973Y-90206419D01*
X144538973Y-90206419D02*
X144577068Y-90282609D01*
X144577068Y-90282609D02*
X144653258Y-90358800D01*
X144653258Y-90358800D02*
X144767544Y-90396895D01*
X144767544Y-90396895D02*
X144958020Y-90396895D01*
D11*
X149763220Y-91959819D02*
X149763220Y-90959819D01*
X149763220Y-90959819D02*
X149382268Y-90959819D01*
X149382268Y-90959819D02*
X149287030Y-91007438D01*
X149287030Y-91007438D02*
X149239411Y-91055057D01*
X149239411Y-91055057D02*
X149191792Y-91150295D01*
X149191792Y-91150295D02*
X149191792Y-91293152D01*
X149191792Y-91293152D02*
X149239411Y-91388390D01*
X149239411Y-91388390D02*
X149287030Y-91436009D01*
X149287030Y-91436009D02*
X149382268Y-91483628D01*
X149382268Y-91483628D02*
X149763220Y-91483628D01*
X148810839Y-91912200D02*
X148667982Y-91959819D01*
X148667982Y-91959819D02*
X148429887Y-91959819D01*
X148429887Y-91959819D02*
X148334649Y-91912200D01*
X148334649Y-91912200D02*
X148287030Y-91864580D01*
X148287030Y-91864580D02*
X148239411Y-91769342D01*
X148239411Y-91769342D02*
X148239411Y-91674104D01*
X148239411Y-91674104D02*
X148287030Y-91578866D01*
X148287030Y-91578866D02*
X148334649Y-91531247D01*
X148334649Y-91531247D02*
X148429887Y-91483628D01*
X148429887Y-91483628D02*
X148620363Y-91436009D01*
X148620363Y-91436009D02*
X148715601Y-91388390D01*
X148715601Y-91388390D02*
X148763220Y-91340771D01*
X148763220Y-91340771D02*
X148810839Y-91245533D01*
X148810839Y-91245533D02*
X148810839Y-91150295D01*
X148810839Y-91150295D02*
X148763220Y-91055057D01*
X148763220Y-91055057D02*
X148715601Y-91007438D01*
X148715601Y-91007438D02*
X148620363Y-90959819D01*
X148620363Y-90959819D02*
X148382268Y-90959819D01*
X148382268Y-90959819D02*
X148239411Y-91007438D01*
X147810839Y-91959819D02*
X147810839Y-90959819D01*
X147810839Y-90959819D02*
X147477506Y-91674104D01*
X147477506Y-91674104D02*
X147144173Y-90959819D01*
X147144173Y-90959819D02*
X147144173Y-91959819D01*
X146001315Y-91293152D02*
X145763220Y-91959819D01*
X145763220Y-91959819D02*
X145525125Y-91293152D01*
X144953696Y-90959819D02*
X144858458Y-90959819D01*
X144858458Y-90959819D02*
X144763220Y-91007438D01*
X144763220Y-91007438D02*
X144715601Y-91055057D01*
X144715601Y-91055057D02*
X144667982Y-91150295D01*
X144667982Y-91150295D02*
X144620363Y-91340771D01*
X144620363Y-91340771D02*
X144620363Y-91578866D01*
X144620363Y-91578866D02*
X144667982Y-91769342D01*
X144667982Y-91769342D02*
X144715601Y-91864580D01*
X144715601Y-91864580D02*
X144763220Y-91912200D01*
X144763220Y-91912200D02*
X144858458Y-91959819D01*
X144858458Y-91959819D02*
X144953696Y-91959819D01*
X144953696Y-91959819D02*
X145048934Y-91912200D01*
X145048934Y-91912200D02*
X145096553Y-91864580D01*
X145096553Y-91864580D02*
X145144172Y-91769342D01*
X145144172Y-91769342D02*
X145191791Y-91578866D01*
X145191791Y-91578866D02*
X145191791Y-91340771D01*
X145191791Y-91340771D02*
X145144172Y-91150295D01*
X145144172Y-91150295D02*
X145096553Y-91055057D01*
X145096553Y-91055057D02*
X145048934Y-91007438D01*
X145048934Y-91007438D02*
X144953696Y-90959819D01*
X144191791Y-91864580D02*
X144144172Y-91912200D01*
X144144172Y-91912200D02*
X144191791Y-91959819D01*
X144191791Y-91959819D02*
X144239410Y-91912200D01*
X144239410Y-91912200D02*
X144191791Y-91864580D01*
X144191791Y-91864580D02*
X144191791Y-91959819D01*
X143191792Y-91959819D02*
X143763220Y-91959819D01*
X143477506Y-91959819D02*
X143477506Y-90959819D01*
X143477506Y-90959819D02*
X143572744Y-91102676D01*
X143572744Y-91102676D02*
X143667982Y-91197914D01*
X143667982Y-91197914D02*
X143763220Y-91245533D01*
X149810839Y-93522200D02*
X149667982Y-93569819D01*
X149667982Y-93569819D02*
X149429887Y-93569819D01*
X149429887Y-93569819D02*
X149334649Y-93522200D01*
X149334649Y-93522200D02*
X149287030Y-93474580D01*
X149287030Y-93474580D02*
X149239411Y-93379342D01*
X149239411Y-93379342D02*
X149239411Y-93284104D01*
X149239411Y-93284104D02*
X149287030Y-93188866D01*
X149287030Y-93188866D02*
X149334649Y-93141247D01*
X149334649Y-93141247D02*
X149429887Y-93093628D01*
X149429887Y-93093628D02*
X149620363Y-93046009D01*
X149620363Y-93046009D02*
X149715601Y-92998390D01*
X149715601Y-92998390D02*
X149763220Y-92950771D01*
X149763220Y-92950771D02*
X149810839Y-92855533D01*
X149810839Y-92855533D02*
X149810839Y-92760295D01*
X149810839Y-92760295D02*
X149763220Y-92665057D01*
X149763220Y-92665057D02*
X149715601Y-92617438D01*
X149715601Y-92617438D02*
X149620363Y-92569819D01*
X149620363Y-92569819D02*
X149382268Y-92569819D01*
X149382268Y-92569819D02*
X149239411Y-92617438D01*
X148810839Y-93474580D02*
X148763220Y-93522200D01*
X148763220Y-93522200D02*
X148810839Y-93569819D01*
X148810839Y-93569819D02*
X148858458Y-93522200D01*
X148858458Y-93522200D02*
X148810839Y-93474580D01*
X148810839Y-93474580D02*
X148810839Y-93569819D01*
X147620363Y-93284104D02*
X147144173Y-93284104D01*
X147715601Y-93569819D02*
X147382268Y-92569819D01*
X147382268Y-92569819D02*
X147048935Y-93569819D01*
X146810839Y-92903152D02*
X146572744Y-93569819D01*
X146572744Y-93569819D02*
X146334649Y-92903152D01*
X145572744Y-93522200D02*
X145667982Y-93569819D01*
X145667982Y-93569819D02*
X145858458Y-93569819D01*
X145858458Y-93569819D02*
X145953696Y-93522200D01*
X145953696Y-93522200D02*
X146001315Y-93426961D01*
X146001315Y-93426961D02*
X146001315Y-93046009D01*
X146001315Y-93046009D02*
X145953696Y-92950771D01*
X145953696Y-92950771D02*
X145858458Y-92903152D01*
X145858458Y-92903152D02*
X145667982Y-92903152D01*
X145667982Y-92903152D02*
X145572744Y-92950771D01*
X145572744Y-92950771D02*
X145525125Y-93046009D01*
X145525125Y-93046009D02*
X145525125Y-93141247D01*
X145525125Y-93141247D02*
X146001315Y-93236485D01*
X145239410Y-92903152D02*
X144858458Y-92903152D01*
X145096553Y-92569819D02*
X145096553Y-93426961D01*
X145096553Y-93426961D02*
X145048934Y-93522200D01*
X145048934Y-93522200D02*
X144953696Y-93569819D01*
X144953696Y-93569819D02*
X144858458Y-93569819D01*
X144525124Y-93569819D02*
X144525124Y-92903152D01*
X144525124Y-92569819D02*
X144572743Y-92617438D01*
X144572743Y-92617438D02*
X144525124Y-92665057D01*
X144525124Y-92665057D02*
X144477505Y-92617438D01*
X144477505Y-92617438D02*
X144525124Y-92569819D01*
X144525124Y-92569819D02*
X144525124Y-92665057D01*
X144096553Y-93522200D02*
X144001315Y-93569819D01*
X144001315Y-93569819D02*
X143810839Y-93569819D01*
X143810839Y-93569819D02*
X143715601Y-93522200D01*
X143715601Y-93522200D02*
X143667982Y-93426961D01*
X143667982Y-93426961D02*
X143667982Y-93379342D01*
X143667982Y-93379342D02*
X143715601Y-93284104D01*
X143715601Y-93284104D02*
X143810839Y-93236485D01*
X143810839Y-93236485D02*
X143953696Y-93236485D01*
X143953696Y-93236485D02*
X144048934Y-93188866D01*
X144048934Y-93188866D02*
X144096553Y-93093628D01*
X144096553Y-93093628D02*
X144096553Y-93046009D01*
X144096553Y-93046009D02*
X144048934Y-92950771D01*
X144048934Y-92950771D02*
X143953696Y-92903152D01*
X143953696Y-92903152D02*
X143810839Y-92903152D01*
X143810839Y-92903152D02*
X143715601Y-92950771D01*
X143334648Y-92903152D02*
X143096553Y-93569819D01*
X142858458Y-92903152D02*
X143096553Y-93569819D01*
X143096553Y-93569819D02*
X143191791Y-93807914D01*
X143191791Y-93807914D02*
X143239410Y-93855533D01*
X143239410Y-93855533D02*
X143334648Y-93903152D01*
X142048934Y-93569819D02*
X142048934Y-93046009D01*
X142048934Y-93046009D02*
X142096553Y-92950771D01*
X142096553Y-92950771D02*
X142191791Y-92903152D01*
X142191791Y-92903152D02*
X142382267Y-92903152D01*
X142382267Y-92903152D02*
X142477505Y-92950771D01*
X142048934Y-93522200D02*
X142144172Y-93569819D01*
X142144172Y-93569819D02*
X142382267Y-93569819D01*
X142382267Y-93569819D02*
X142477505Y-93522200D01*
X142477505Y-93522200D02*
X142525124Y-93426961D01*
X142525124Y-93426961D02*
X142525124Y-93331723D01*
X142525124Y-93331723D02*
X142477505Y-93236485D01*
X142477505Y-93236485D02*
X142382267Y-93188866D01*
X142382267Y-93188866D02*
X142144172Y-93188866D01*
X142144172Y-93188866D02*
X142048934Y-93141247D01*
X141572743Y-92903152D02*
X141572743Y-93569819D01*
X141572743Y-92998390D02*
X141525124Y-92950771D01*
X141525124Y-92950771D02*
X141429886Y-92903152D01*
X141429886Y-92903152D02*
X141287029Y-92903152D01*
X141287029Y-92903152D02*
X141191791Y-92950771D01*
X141191791Y-92950771D02*
X141144172Y-93046009D01*
X141144172Y-93046009D02*
X141144172Y-93569819D01*
D10*
X140466666Y-90964895D02*
X140466666Y-91536323D01*
X140466666Y-91536323D02*
X140504761Y-91650609D01*
X140504761Y-91650609D02*
X140580952Y-91726800D01*
X140580952Y-91726800D02*
X140695237Y-91764895D01*
X140695237Y-91764895D02*
X140771428Y-91764895D01*
X139666666Y-91764895D02*
X140123809Y-91764895D01*
X139895237Y-91764895D02*
X139895237Y-90964895D01*
X139895237Y-90964895D02*
X139971428Y-91079180D01*
X139971428Y-91079180D02*
X140047618Y-91155371D01*
X140047618Y-91155371D02*
X140123809Y-91193466D01*
D12*
X139190000Y-89330000D02*
X139190000Y-86670000D01*
X146870000Y-89330000D02*
X139190000Y-89330000D01*
X146870000Y-89330000D02*
X146870000Y-86670000D01*
X148140000Y-89330000D02*
X149470000Y-89330000D01*
X149470000Y-89330000D02*
X149470000Y-88000000D01*
X146870000Y-86670000D02*
X139190000Y-86670000D01*
%LPC*%
D13*
X148140000Y-88000000D03*
D14*
X145600000Y-88000000D03*
X143060000Y-88000000D03*
X140520000Y-88000000D03*
%LPD*%
M02*
