%TF.GenerationSoftware,KiCad,Pcbnew,7.0.10*%
%TF.CreationDate,2024-03-10T23:53:32-07:00*%
%TF.ProjectId,Pressure_Sensor_Mount,50726573-7375-4726-955f-53656e736f72,rev?*%
%TF.SameCoordinates,Original*%
%TF.FileFunction,Drillmap*%
%TF.FilePolarity,Positive*%
%FSLAX45Y45*%
G04 Gerber Fmt 4.5, Leading zero omitted, Abs format (unit mm)*
G04 Created by KiCad (PCBNEW 7.0.10) date 2024-03-10 23:53:32*
%MOMM*%
%LPD*%
G01*
G04 APERTURE LIST*
%ADD10C,0.100000*%
%ADD11C,0.200000*%
G04 APERTURE END LIST*
D10*
X13860000Y-8600000D02*
X15010000Y-8600000D01*
X15010000Y-9410000D01*
X13860000Y-9410000D01*
X13860000Y-8600000D01*
D11*
X14115777Y-9726484D02*
X14115777Y-9526484D01*
X14115777Y-9526484D02*
X14163396Y-9526484D01*
X14163396Y-9526484D02*
X14191967Y-9536008D01*
X14191967Y-9536008D02*
X14211015Y-9555055D01*
X14211015Y-9555055D02*
X14220539Y-9574103D01*
X14220539Y-9574103D02*
X14230062Y-9612198D01*
X14230062Y-9612198D02*
X14230062Y-9640770D01*
X14230062Y-9640770D02*
X14220539Y-9678865D01*
X14220539Y-9678865D02*
X14211015Y-9697912D01*
X14211015Y-9697912D02*
X14191967Y-9716960D01*
X14191967Y-9716960D02*
X14163396Y-9726484D01*
X14163396Y-9726484D02*
X14115777Y-9726484D01*
X14315777Y-9726484D02*
X14315777Y-9593150D01*
X14315777Y-9631246D02*
X14325301Y-9612198D01*
X14325301Y-9612198D02*
X14334824Y-9602674D01*
X14334824Y-9602674D02*
X14353872Y-9593150D01*
X14353872Y-9593150D02*
X14372920Y-9593150D01*
X14439586Y-9726484D02*
X14439586Y-9593150D01*
X14439586Y-9526484D02*
X14430062Y-9536008D01*
X14430062Y-9536008D02*
X14439586Y-9545531D01*
X14439586Y-9545531D02*
X14449110Y-9536008D01*
X14449110Y-9536008D02*
X14439586Y-9526484D01*
X14439586Y-9526484D02*
X14439586Y-9545531D01*
X14563396Y-9726484D02*
X14544348Y-9716960D01*
X14544348Y-9716960D02*
X14534824Y-9697912D01*
X14534824Y-9697912D02*
X14534824Y-9526484D01*
X14668158Y-9726484D02*
X14649110Y-9716960D01*
X14649110Y-9716960D02*
X14639586Y-9697912D01*
X14639586Y-9697912D02*
X14639586Y-9526484D01*
X14896729Y-9726484D02*
X14896729Y-9526484D01*
X14896729Y-9526484D02*
X14963396Y-9669341D01*
X14963396Y-9669341D02*
X15030062Y-9526484D01*
X15030062Y-9526484D02*
X15030062Y-9726484D01*
X15211015Y-9726484D02*
X15211015Y-9621722D01*
X15211015Y-9621722D02*
X15201491Y-9602674D01*
X15201491Y-9602674D02*
X15182443Y-9593150D01*
X15182443Y-9593150D02*
X15144348Y-9593150D01*
X15144348Y-9593150D02*
X15125301Y-9602674D01*
X15211015Y-9716960D02*
X15191967Y-9726484D01*
X15191967Y-9726484D02*
X15144348Y-9726484D01*
X15144348Y-9726484D02*
X15125301Y-9716960D01*
X15125301Y-9716960D02*
X15115777Y-9697912D01*
X15115777Y-9697912D02*
X15115777Y-9678865D01*
X15115777Y-9678865D02*
X15125301Y-9659817D01*
X15125301Y-9659817D02*
X15144348Y-9650293D01*
X15144348Y-9650293D02*
X15191967Y-9650293D01*
X15191967Y-9650293D02*
X15211015Y-9640770D01*
X15306253Y-9593150D02*
X15306253Y-9793150D01*
X15306253Y-9602674D02*
X15325301Y-9593150D01*
X15325301Y-9593150D02*
X15363396Y-9593150D01*
X15363396Y-9593150D02*
X15382443Y-9602674D01*
X15382443Y-9602674D02*
X15391967Y-9612198D01*
X15391967Y-9612198D02*
X15401491Y-9631246D01*
X15401491Y-9631246D02*
X15401491Y-9688389D01*
X15401491Y-9688389D02*
X15391967Y-9707436D01*
X15391967Y-9707436D02*
X15382443Y-9716960D01*
X15382443Y-9716960D02*
X15363396Y-9726484D01*
X15363396Y-9726484D02*
X15325301Y-9726484D01*
X15325301Y-9726484D02*
X15306253Y-9716960D01*
X15487205Y-9707436D02*
X15496729Y-9716960D01*
X15496729Y-9716960D02*
X15487205Y-9726484D01*
X15487205Y-9726484D02*
X15477682Y-9716960D01*
X15477682Y-9716960D02*
X15487205Y-9707436D01*
X15487205Y-9707436D02*
X15487205Y-9726484D01*
X15487205Y-9602674D02*
X15496729Y-9612198D01*
X15496729Y-9612198D02*
X15487205Y-9621722D01*
X15487205Y-9621722D02*
X15477682Y-9612198D01*
X15477682Y-9612198D02*
X15487205Y-9602674D01*
X15487205Y-9602674D02*
X15487205Y-9621722D01*
M02*
