%TF.GenerationSoftware,KiCad,Pcbnew,7.0.10*%
%TF.CreationDate,2024-03-11T00:13:40-07:00*%
%TF.ProjectId,Pressure_Sensor_Mount,50726573-7375-4726-955f-53656e736f72,rev?*%
%TF.SameCoordinates,Original*%
%TF.FileFunction,Drillmap*%
%TF.FilePolarity,Positive*%
%FSLAX45Y45*%
G04 Gerber Fmt 4.5, Leading zero omitted, Abs format (unit mm)*
G04 Created by KiCad (PCBNEW 7.0.10) date 2024-03-11 00:13:40*
%MOMM*%
%LPD*%
G01*
G04 APERTURE LIST*
%ADD10C,0.100000*%
%ADD11C,0.200000*%
G04 APERTURE END LIST*
D10*
X13840000Y-8580000D02*
X15030000Y-8580000D01*
X15030000Y-9430000D01*
X13840000Y-9430000D01*
X13840000Y-8580000D01*
D11*
X14095777Y-9746484D02*
X14095777Y-9546484D01*
X14095777Y-9546484D02*
X14143396Y-9546484D01*
X14143396Y-9546484D02*
X14171967Y-9556008D01*
X14171967Y-9556008D02*
X14191015Y-9575055D01*
X14191015Y-9575055D02*
X14200539Y-9594103D01*
X14200539Y-9594103D02*
X14210062Y-9632198D01*
X14210062Y-9632198D02*
X14210062Y-9660770D01*
X14210062Y-9660770D02*
X14200539Y-9698865D01*
X14200539Y-9698865D02*
X14191015Y-9717912D01*
X14191015Y-9717912D02*
X14171967Y-9736960D01*
X14171967Y-9736960D02*
X14143396Y-9746484D01*
X14143396Y-9746484D02*
X14095777Y-9746484D01*
X14295777Y-9746484D02*
X14295777Y-9613150D01*
X14295777Y-9651246D02*
X14305301Y-9632198D01*
X14305301Y-9632198D02*
X14314824Y-9622674D01*
X14314824Y-9622674D02*
X14333872Y-9613150D01*
X14333872Y-9613150D02*
X14352920Y-9613150D01*
X14419586Y-9746484D02*
X14419586Y-9613150D01*
X14419586Y-9546484D02*
X14410062Y-9556008D01*
X14410062Y-9556008D02*
X14419586Y-9565531D01*
X14419586Y-9565531D02*
X14429110Y-9556008D01*
X14429110Y-9556008D02*
X14419586Y-9546484D01*
X14419586Y-9546484D02*
X14419586Y-9565531D01*
X14543396Y-9746484D02*
X14524348Y-9736960D01*
X14524348Y-9736960D02*
X14514824Y-9717912D01*
X14514824Y-9717912D02*
X14514824Y-9546484D01*
X14648158Y-9746484D02*
X14629110Y-9736960D01*
X14629110Y-9736960D02*
X14619586Y-9717912D01*
X14619586Y-9717912D02*
X14619586Y-9546484D01*
X14876729Y-9746484D02*
X14876729Y-9546484D01*
X14876729Y-9546484D02*
X14943396Y-9689341D01*
X14943396Y-9689341D02*
X15010062Y-9546484D01*
X15010062Y-9546484D02*
X15010062Y-9746484D01*
X15191015Y-9746484D02*
X15191015Y-9641722D01*
X15191015Y-9641722D02*
X15181491Y-9622674D01*
X15181491Y-9622674D02*
X15162443Y-9613150D01*
X15162443Y-9613150D02*
X15124348Y-9613150D01*
X15124348Y-9613150D02*
X15105301Y-9622674D01*
X15191015Y-9736960D02*
X15171967Y-9746484D01*
X15171967Y-9746484D02*
X15124348Y-9746484D01*
X15124348Y-9746484D02*
X15105301Y-9736960D01*
X15105301Y-9736960D02*
X15095777Y-9717912D01*
X15095777Y-9717912D02*
X15095777Y-9698865D01*
X15095777Y-9698865D02*
X15105301Y-9679817D01*
X15105301Y-9679817D02*
X15124348Y-9670293D01*
X15124348Y-9670293D02*
X15171967Y-9670293D01*
X15171967Y-9670293D02*
X15191015Y-9660770D01*
X15286253Y-9613150D02*
X15286253Y-9813150D01*
X15286253Y-9622674D02*
X15305301Y-9613150D01*
X15305301Y-9613150D02*
X15343396Y-9613150D01*
X15343396Y-9613150D02*
X15362443Y-9622674D01*
X15362443Y-9622674D02*
X15371967Y-9632198D01*
X15371967Y-9632198D02*
X15381491Y-9651246D01*
X15381491Y-9651246D02*
X15381491Y-9708389D01*
X15381491Y-9708389D02*
X15371967Y-9727436D01*
X15371967Y-9727436D02*
X15362443Y-9736960D01*
X15362443Y-9736960D02*
X15343396Y-9746484D01*
X15343396Y-9746484D02*
X15305301Y-9746484D01*
X15305301Y-9746484D02*
X15286253Y-9736960D01*
X15467205Y-9727436D02*
X15476729Y-9736960D01*
X15476729Y-9736960D02*
X15467205Y-9746484D01*
X15467205Y-9746484D02*
X15457682Y-9736960D01*
X15457682Y-9736960D02*
X15467205Y-9727436D01*
X15467205Y-9727436D02*
X15467205Y-9746484D01*
X15467205Y-9622674D02*
X15476729Y-9632198D01*
X15476729Y-9632198D02*
X15467205Y-9641722D01*
X15467205Y-9641722D02*
X15457682Y-9632198D01*
X15457682Y-9632198D02*
X15467205Y-9622674D01*
X15467205Y-9622674D02*
X15467205Y-9641722D01*
M02*
