M48
; DRILL file {KiCad 7.0.10} date Tue Jun 11 23:20:03 2024
; FORMAT={-:-/ absolute / metric / decimal}
; #@! TF.CreationDate,2024-06-11T23:20:03-07:00
; #@! TF.GenerationSoftware,Kicad,Pcbnew,7.0.10
; #@! TF.FileFunction,Plated,1,2,PTH
FMAT,2
METRIC
; #@! TA.AperFunction,Plated,PTH,ViaDrill
T1C0.400
; #@! TA.AperFunction,Plated,PTH,ComponentDrill
T2C0.762
; #@! TA.AperFunction,Plated,PTH,ComponentDrill
T3C0.800
; #@! TA.AperFunction,Plated,PTH,ComponentDrill
T4C0.813
; #@! TA.AperFunction,Plated,PTH,ComponentDrill
T5C1.000
; #@! TA.AperFunction,Plated,PTH,ComponentDrill
T6C1.100
; #@! TA.AperFunction,Plated,PTH,ComponentDrill
T7C1.270
%
G90
G05
T1
X117.0Y-123.2
X118.6Y-118.6
X119.1Y-100.6
X119.78Y-97.72
X120.0Y-118.6
X120.8Y-135.2
X120.862Y-80.462
X121.6Y-100.3
X123.0Y-79.2
X123.7Y-100.0
X124.4Y-90.2
X126.0Y-80.6
X126.0Y-81.8
X126.6Y-95.8
X127.1Y-77.4
X129.7Y-88.3
X129.7Y-98.0
X131.4Y-80.5
X131.9Y-100.6
X131.9Y-122.7
X135.9Y-96.2
T2
X117.957Y-77.83
X117.957Y-80.37
X117.957Y-82.91
X117.957Y-85.45
X117.957Y-87.99
X117.957Y-90.53
X117.957Y-93.07
X133.257Y-77.83
X133.257Y-80.37
X133.257Y-82.91
X133.257Y-85.45
X133.257Y-87.99
X133.257Y-90.53
X133.257Y-93.07
T3
X117.025Y-128.8
X117.035Y-131.9
X124.645Y-128.8
X124.655Y-131.9
X126.835Y-128.8
X126.835Y-131.9
X134.455Y-128.8
X134.455Y-131.9
T4
X125.325Y-100.06
X125.325Y-102.6
X125.325Y-105.14
T5
X118.9Y-135.225
X118.9Y-137.765
X122.6Y-135.225
X122.6Y-137.765
X126.3Y-135.225
X126.3Y-137.765
X130.0Y-135.26
X130.0Y-137.8
X132.54Y-135.26
X132.54Y-137.8
T6
X117.6Y-97.72
X117.6Y-107.88
X121.7Y-97.72
X121.7Y-107.88
T7
X134.12Y-114.49
X134.12Y-122.11
M30
