%TF.GenerationSoftware,KiCad,Pcbnew,7.0.10*%
%TF.CreationDate,2024-06-11T23:19:59-07:00*%
%TF.ProjectId,NB002-NGP,4e423030-322d-44e4-9750-2e6b69636164,rev?*%
%TF.SameCoordinates,Original*%
%TF.FileFunction,Copper,L2,Bot*%
%TF.FilePolarity,Positive*%
%FSLAX46Y46*%
G04 Gerber Fmt 4.6, Leading zero omitted, Abs format (unit mm)*
G04 Created by KiCad (PCBNEW 7.0.10) date 2024-06-11 23:19:59*
%MOMM*%
%LPD*%
G01*
G04 APERTURE LIST*
%TA.AperFunction,ComponentPad*%
%ADD10R,2.200000X2.200000*%
%TD*%
%TA.AperFunction,ComponentPad*%
%ADD11O,2.200000X2.200000*%
%TD*%
%TA.AperFunction,ComponentPad*%
%ADD12R,1.700000X1.700000*%
%TD*%
%TA.AperFunction,ComponentPad*%
%ADD13O,1.700000X1.700000*%
%TD*%
%TA.AperFunction,ComponentPad*%
%ADD14C,1.320800*%
%TD*%
%TA.AperFunction,ComponentPad*%
%ADD15C,1.600000*%
%TD*%
%TA.AperFunction,ComponentPad*%
%ADD16O,1.600000X1.600000*%
%TD*%
%TA.AperFunction,ComponentPad*%
%ADD17C,1.905000*%
%TD*%
%TA.AperFunction,ComponentPad*%
%ADD18C,1.524000*%
%TD*%
%TA.AperFunction,ViaPad*%
%ADD19C,0.800000*%
%TD*%
%TA.AperFunction,Conductor*%
%ADD20C,0.500000*%
%TD*%
%TA.AperFunction,Conductor*%
%ADD21C,0.250000*%
%TD*%
G04 APERTURE END LIST*
D10*
%TO.P,D1,1,K*%
%TO.N,Net-(D1-K)*%
X117600000Y-107880000D03*
D11*
%TO.P,D1,2,A*%
%TO.N,Net-(D1-A)*%
X117600000Y-97720000D03*
%TD*%
D12*
%TO.P,SW2,1*%
%TO.N,unconnected-(U4-D1-Pad2)*%
X118900000Y-135225000D03*
D13*
%TO.P,SW2,2*%
%TO.N,unconnected-(U4-D2-Pad3)*%
X118900000Y-137765000D03*
%TD*%
D14*
%TO.P,SW1,1,A*%
%TO.N,Net-(B4-+)*%
X125324900Y-102600000D03*
%TO.P,SW1,2,B*%
%TO.N,Net-(HBridge1-VDD)*%
X125324900Y-100060000D03*
%TO.P,SW1,3,C*%
%TO.N,unconnected-(SW1-C-Pad3)*%
X125324900Y-105140000D03*
%TD*%
D12*
%TO.P,U2,1,GND*%
%TO.N,Net-(U2-GND)*%
X130000000Y-135260000D03*
D13*
%TO.P,U2,2,VDD*%
%TO.N,Net-(U2-VDD)*%
X132540000Y-135260000D03*
%TO.P,U2,3,SCL*%
%TO.N,Net-(U2-SCL)*%
X130000000Y-137800000D03*
%TO.P,U2,4,SDA*%
%TO.N,Net-(U2-SDA)*%
X132540000Y-137800000D03*
%TD*%
D12*
%TO.P,B4,1,+*%
%TO.N,Net-(B4-+)*%
X126300000Y-135225000D03*
D13*
%TO.P,B4,2,-*%
%TO.N,Net-(B4--)*%
X126300000Y-137765000D03*
%TD*%
D15*
%TO.P,R4,1*%
%TO.N,Net-(U2-SCL)*%
X117025100Y-128800000D03*
D16*
%TO.P,R4,2*%
%TO.N,Net-(U2-VDD)*%
X124645100Y-128800000D03*
%TD*%
D17*
%TO.P,F1,1*%
%TO.N,Net-(D1-K)*%
X134120000Y-114490000D03*
%TO.P,F1,2*%
%TO.N,Net-(B4--)*%
X134120000Y-122110000D03*
%TD*%
D15*
%TO.P,R2,1*%
%TO.N,Net-(D2-A)*%
X126835100Y-128800000D03*
D16*
%TO.P,R2,2*%
%TO.N,Net-(U4-D0)*%
X134455100Y-128800000D03*
%TD*%
D12*
%TO.P,M1,1,+*%
%TO.N,Net-(HBridge1-Out1)*%
X122600000Y-135225000D03*
D13*
%TO.P,M1,2,-*%
%TO.N,Net-(HBridge1-Out2)*%
X122600000Y-137765000D03*
%TD*%
D10*
%TO.P,D2,1,K*%
%TO.N,Net-(D1-A)*%
X121700000Y-107880000D03*
D11*
%TO.P,D2,2,A*%
%TO.N,Net-(D2-A)*%
X121700000Y-97720000D03*
%TD*%
D15*
%TO.P,R1,1*%
%TO.N,Net-(HBridge1-VDD)*%
X117035100Y-131900000D03*
D16*
%TO.P,R1,2*%
%TO.N,Net-(U4-D0)*%
X124655100Y-131900000D03*
%TD*%
D18*
%TO.P,U4,0*%
%TO.N,N/C*%
X117957500Y-77830400D03*
%TO.P,U4,1,D0*%
%TO.N,Net-(U4-D0)*%
X117957500Y-80370400D03*
%TO.P,U4,2,D1*%
%TO.N,unconnected-(U4-D1-Pad2)*%
X117957500Y-82910400D03*
%TO.P,U4,3,D2*%
%TO.N,unconnected-(U4-D2-Pad3)*%
X117957500Y-85450400D03*
%TO.P,U4,3V3*%
%TO.N,Net-(U2-VDD)*%
X133257500Y-82910400D03*
%TO.P,U4,4,D3*%
%TO.N,Net-(U2-SDA)*%
X117957500Y-87990400D03*
%TO.P,U4,5,D4_SDA*%
%TO.N,Net-(U2-SCL)*%
X117957500Y-90530400D03*
%TO.P,U4,5V*%
%TO.N,N/C*%
X133257500Y-77830400D03*
%TO.P,U4,6,D5_SCL*%
X117957500Y-93070400D03*
%TO.P,U4,7,D6*%
%TO.N,Net-(U4-D6)*%
X133257500Y-93070400D03*
%TO.P,U4,8,D7*%
%TO.N,Net-(U4-D7)*%
X133257500Y-90530400D03*
%TO.P,U4,9,D8*%
%TO.N,unconnected-(U4-D8-Pad9)*%
X133257500Y-87990400D03*
%TO.P,U4,10,D9*%
%TO.N,Net-(HBridge1-In1)*%
X133257500Y-85450400D03*
%TO.P,U4,GND*%
%TO.N,Net-(U2-GND)*%
X133257500Y-80370400D03*
%TD*%
D15*
%TO.P,R3,1*%
%TO.N,Net-(U2-VDD)*%
X134455100Y-131900000D03*
D16*
%TO.P,R3,2*%
%TO.N,Net-(U2-SDA)*%
X126835100Y-131900000D03*
%TD*%
D19*
%TO.N,Net-(B4-+)*%
X126600000Y-95800000D03*
X129700000Y-98000000D03*
X131400000Y-80500000D03*
%TO.N,Net-(D1-K)*%
X129700000Y-88300000D03*
%TO.N,Net-(HBridge1-VDD)*%
X124400000Y-90200000D03*
X123700000Y-100000000D03*
%TO.N,Net-(D2-A)*%
X119780000Y-97720000D03*
%TO.N,Net-(HBridge1-Out1)*%
X120800000Y-135200000D03*
X123000000Y-79200000D03*
%TO.N,Net-(HBridge1-Out2)*%
X135900000Y-96200000D03*
%TO.N,Net-(U4-D0)*%
X131900000Y-122700000D03*
X131900000Y-100600000D03*
%TO.N,Net-(U2-VDD)*%
X120862500Y-80462500D03*
%TO.N,Net-(U2-SCL)*%
X117000000Y-123200000D03*
%TO.N,Net-(U2-GND)*%
X127100000Y-77400000D03*
%TO.N,unconnected-(U4-D1-Pad2)*%
X120000000Y-118600000D03*
X121600000Y-100300000D03*
%TO.N,unconnected-(U4-D2-Pad3)*%
X119100000Y-100600000D03*
X118600000Y-118600000D03*
%TO.N,unconnected-(U4-D8-Pad9)*%
X126000000Y-81800000D03*
%TO.N,Net-(HBridge1-In1)*%
X126000000Y-80600000D03*
%TD*%
D20*
%TO.N,Net-(B4-+)*%
X126300000Y-135225000D02*
X126300000Y-135000000D01*
X128400000Y-132900000D02*
X128400000Y-106100000D01*
D21*
X124050000Y-79424695D02*
X126687348Y-76787347D01*
X127575000Y-76675000D02*
X126799695Y-76675000D01*
X124050000Y-82261091D02*
X124050000Y-79424695D01*
X131400000Y-80500000D02*
X127575000Y-76675000D01*
D20*
X128400000Y-106100000D02*
X128400000Y-105675100D01*
X128400000Y-101900000D02*
X128400000Y-106100000D01*
D21*
X126799695Y-76675000D02*
X126637347Y-76837347D01*
D20*
X126300000Y-135000000D02*
X128400000Y-132900000D01*
D21*
X126600000Y-84811091D02*
X124050000Y-82261091D01*
D20*
X129700000Y-98000000D02*
X129700000Y-100600000D01*
D21*
X126600000Y-95800000D02*
X126600000Y-84811091D01*
D20*
X128400000Y-105675100D02*
X125324900Y-102600000D01*
X129700000Y-100600000D02*
X128400000Y-101900000D01*
%TO.N,Net-(B4--)*%
X126300000Y-137765000D02*
X128100000Y-135965000D01*
X129100000Y-133189949D02*
X129100000Y-127130000D01*
X129100000Y-127130000D02*
X134120000Y-122110000D01*
X128100000Y-134189950D02*
X129100000Y-133189949D01*
X128100000Y-135965000D02*
X128100000Y-134189950D01*
%TO.N,Net-(D1-K)*%
X128850000Y-96725000D02*
X129700000Y-95875000D01*
X129700000Y-88300000D02*
X129700000Y-95875000D01*
X128850000Y-99550000D02*
X128850000Y-96725000D01*
X124864957Y-101489600D02*
X126910400Y-101489600D01*
X119150000Y-109430000D02*
X123250000Y-109430000D01*
X126910400Y-101489600D02*
X128850000Y-99550000D01*
X129700000Y-95900000D02*
X129700000Y-95875000D01*
X123250000Y-109430000D02*
X124000000Y-108680000D01*
X117600000Y-107880000D02*
X119150000Y-109430000D01*
X134100000Y-114470000D02*
X134100000Y-100300000D01*
X124000000Y-108680000D02*
X124000000Y-102354557D01*
X134100000Y-100300000D02*
X129700000Y-95900000D01*
X124000000Y-102354557D02*
X124864957Y-101489600D01*
X134120000Y-114490000D02*
X134100000Y-114470000D01*
%TO.N,Net-(HBridge1-VDD)*%
X123700000Y-90900000D02*
X124400000Y-90200000D01*
X123700000Y-100000000D02*
X123700000Y-90900000D01*
%TO.N,Net-(D1-A)*%
X117600000Y-103780000D02*
X117600000Y-97720000D01*
X121700000Y-107880000D02*
X117600000Y-103780000D01*
%TO.N,Net-(D2-A)*%
X119780000Y-97720000D02*
X121700000Y-97720000D01*
D21*
%TO.N,Net-(HBridge1-Out1)*%
X124195100Y-127675000D02*
X124195100Y-118831496D01*
X115275000Y-81225000D02*
X117300000Y-79200000D01*
X123582055Y-132417945D02*
X123520100Y-132355990D01*
X124179109Y-127675000D02*
X124195100Y-127675000D01*
X124195100Y-118831496D02*
X115275000Y-109911396D01*
X115275000Y-109911396D02*
X115275000Y-81225000D01*
X117300000Y-79200000D02*
X123000000Y-79200000D01*
X123520100Y-132355990D02*
X123520100Y-128334009D01*
X123520100Y-128334009D02*
X124179109Y-127675000D01*
X120800000Y-135200000D02*
X123582055Y-132417945D01*
%TO.N,Net-(HBridge1-Out2)*%
X123810000Y-138975000D02*
X133026701Y-138975000D01*
X122600000Y-137765000D02*
X123810000Y-138975000D01*
X133026701Y-138975000D02*
X135847500Y-136154201D01*
X135847500Y-96252500D02*
X135900000Y-96200000D01*
X135847500Y-136154201D02*
X135847500Y-96252500D01*
%TO.N,Net-(U4-D0)*%
X131900000Y-100600000D02*
X131900000Y-122700000D01*
%TO.N,Net-(U2-VDD)*%
X115725000Y-109725000D02*
X115725000Y-82375000D01*
X115725000Y-82375000D02*
X116642600Y-81457400D01*
X124645100Y-128800000D02*
X124645100Y-118645100D01*
X119867600Y-81457400D02*
X120862500Y-80462500D01*
X124645100Y-118645100D02*
X115725000Y-109725000D01*
X116642600Y-81457400D02*
X119867600Y-81457400D01*
%TO.N,Net-(U2-SCL)*%
X117000000Y-123200000D02*
X117025100Y-123225100D01*
X117025100Y-123225100D02*
X117025100Y-128800000D01*
%TO.N,Net-(U2-GND)*%
X130425000Y-87999695D02*
X124500000Y-82074695D01*
X130900000Y-92300000D02*
X130900000Y-89075305D01*
X130900000Y-89075305D02*
X130425000Y-88600305D01*
X124500000Y-82074695D02*
X124500000Y-80000000D01*
X135397500Y-96797500D02*
X130900000Y-92300000D01*
X135397500Y-122639158D02*
X135397500Y-96797500D01*
X130425000Y-88600305D02*
X130425000Y-87999695D01*
X130000000Y-128036658D02*
X135397500Y-122639158D01*
X130000000Y-135260000D02*
X130000000Y-128036658D01*
X124500000Y-80000000D02*
X127100000Y-77400000D01*
%TO.N,unconnected-(U4-D1-Pad2)*%
X119050000Y-119550000D02*
X119050000Y-135075000D01*
X123125000Y-98775000D02*
X121600000Y-100300000D01*
X123125000Y-88077900D02*
X123125000Y-98775000D01*
X120000000Y-118600000D02*
X119050000Y-119550000D01*
X117957500Y-82910400D02*
X123125000Y-88077900D01*
X119050000Y-135075000D02*
X118900000Y-135225000D01*
%TO.N,unconnected-(U4-D2-Pad3)*%
X118900000Y-137765000D02*
X117725000Y-136590000D01*
X119055000Y-100555000D02*
X119055000Y-97159745D01*
X118600000Y-132900000D02*
X118600000Y-118600000D01*
X119100000Y-100600000D02*
X119055000Y-100555000D01*
X117725000Y-136590000D02*
X117725000Y-133775000D01*
X119055000Y-97159745D02*
X116500000Y-94604745D01*
X117725000Y-133775000D02*
X118600000Y-132900000D01*
X116500000Y-94604745D02*
X116500000Y-86907900D01*
X116500000Y-86907900D02*
X117957500Y-85450400D01*
%TO.N,unconnected-(U4-D8-Pad9)*%
X130875000Y-87813299D02*
X130875000Y-87990400D01*
X126000000Y-82938299D02*
X130875000Y-87813299D01*
X126000000Y-81800000D02*
X126000000Y-82938299D01*
X130875000Y-87990400D02*
X133257500Y-87990400D01*
%TO.N,Net-(HBridge1-In1)*%
X129148497Y-85450400D02*
X133257500Y-85450400D01*
X126725000Y-81325000D02*
X126725000Y-83026903D01*
X126000000Y-80600000D02*
X126725000Y-81325000D01*
X126725000Y-83026903D02*
X129148497Y-85450400D01*
%TD*%
M02*
