%TF.GenerationSoftware,KiCad,Pcbnew,7.0.10*%
%TF.CreationDate,2024-06-11T00:53:48-07:00*%
%TF.ProjectId,FloatSID,466c6f61-7453-4494-942e-6b696361645f,rev?*%
%TF.SameCoordinates,Original*%
%TF.FileFunction,Copper,L1,Top*%
%TF.FilePolarity,Positive*%
%FSLAX46Y46*%
G04 Gerber Fmt 4.6, Leading zero omitted, Abs format (unit mm)*
G04 Created by KiCad (PCBNEW 7.0.10) date 2024-06-11 00:53:48*
%MOMM*%
%LPD*%
G01*
G04 APERTURE LIST*
G04 Aperture macros list*
%AMRoundRect*
0 Rectangle with rounded corners*
0 $1 Rounding radius*
0 $2 $3 $4 $5 $6 $7 $8 $9 X,Y pos of 4 corners*
0 Add a 4 corners polygon primitive as box body*
4,1,4,$2,$3,$4,$5,$6,$7,$8,$9,$2,$3,0*
0 Add four circle primitives for the rounded corners*
1,1,$1+$1,$2,$3*
1,1,$1+$1,$4,$5*
1,1,$1+$1,$6,$7*
1,1,$1+$1,$8,$9*
0 Add four rect primitives between the rounded corners*
20,1,$1+$1,$2,$3,$4,$5,0*
20,1,$1+$1,$4,$5,$6,$7,0*
20,1,$1+$1,$6,$7,$8,$9,0*
20,1,$1+$1,$8,$9,$2,$3,0*%
G04 Aperture macros list end*
%TA.AperFunction,ComponentPad*%
%ADD10C,1.524000*%
%TD*%
%TA.AperFunction,ComponentPad*%
%ADD11C,1.600000*%
%TD*%
%TA.AperFunction,ComponentPad*%
%ADD12O,1.600000X1.600000*%
%TD*%
%TA.AperFunction,ComponentPad*%
%ADD13C,1.320800*%
%TD*%
%TA.AperFunction,ComponentPad*%
%ADD14R,1.700000X1.700000*%
%TD*%
%TA.AperFunction,ComponentPad*%
%ADD15O,1.700000X1.700000*%
%TD*%
%TA.AperFunction,ComponentPad*%
%ADD16O,2.200000X2.200000*%
%TD*%
%TA.AperFunction,ComponentPad*%
%ADD17R,2.200000X2.200000*%
%TD*%
%TA.AperFunction,SMDPad,CuDef*%
%ADD18R,0.812800X0.228600*%
%TD*%
%TA.AperFunction,SMDPad,CuDef*%
%ADD19RoundRect,0.250000X1.450000X-0.537500X1.450000X0.537500X-1.450000X0.537500X-1.450000X-0.537500X0*%
%TD*%
%TA.AperFunction,SMDPad,CuDef*%
%ADD20RoundRect,0.250000X-0.537500X-1.450000X0.537500X-1.450000X0.537500X1.450000X-0.537500X1.450000X0*%
%TD*%
%TA.AperFunction,ComponentPad*%
%ADD21C,1.905000*%
%TD*%
%TA.AperFunction,ViaPad*%
%ADD22C,0.800000*%
%TD*%
%TA.AperFunction,Conductor*%
%ADD23C,0.250000*%
%TD*%
%TA.AperFunction,Conductor*%
%ADD24C,0.500000*%
%TD*%
G04 APERTURE END LIST*
D10*
%TO.P,U4,GND*%
%TO.N,Net-(U2-GND)*%
X133257500Y-80370400D03*
%TO.P,U4,10,D9*%
%TO.N,Net-(HBridge1-In1)*%
X133257500Y-85450400D03*
%TO.P,U4,9,D8*%
%TO.N,unconnected-(U4-D8-Pad9)*%
X133257500Y-87990400D03*
%TO.P,U4,8,D7*%
%TO.N,Net-(U4-D7)*%
X133257500Y-90530400D03*
%TO.P,U4,7,D6*%
%TO.N,Net-(U4-D6)*%
X133257500Y-93070400D03*
%TO.P,U4,6,D5_SCL*%
%TO.N,N/C*%
X117957500Y-93070400D03*
%TO.P,U4,5V*%
X133257500Y-77830400D03*
%TO.P,U4,5,D4_SDA*%
%TO.N,Net-(U2-SCL)*%
X117957500Y-90530400D03*
%TO.P,U4,4,D3*%
%TO.N,Net-(U2-SDA)*%
X117957500Y-87990400D03*
%TO.P,U4,3V3*%
%TO.N,Net-(U2-VDD)*%
X133257500Y-82910400D03*
%TO.P,U4,3,D2*%
%TO.N,unconnected-(U4-D2-Pad3)*%
X117957500Y-85450400D03*
%TO.P,U4,2,D1*%
%TO.N,unconnected-(U4-D1-Pad2)*%
X117957500Y-82910400D03*
%TO.P,U4,1,D0*%
%TO.N,Net-(U4-D0)*%
X117957500Y-80370400D03*
%TO.P,U4,0*%
%TO.N,N/C*%
X117957500Y-77830400D03*
%TD*%
D11*
%TO.P,R1,1*%
%TO.N,Net-(HBridge1-VDD)*%
X117035100Y-131900000D03*
D12*
%TO.P,R1,2*%
%TO.N,Net-(U4-D0)*%
X124655100Y-131900000D03*
%TD*%
D11*
%TO.P,R4,1*%
%TO.N,Net-(U2-SCL)*%
X117025100Y-128800000D03*
D12*
%TO.P,R4,2*%
%TO.N,Net-(U2-VDD)*%
X124645100Y-128800000D03*
%TD*%
D13*
%TO.P,SW1,1,A*%
%TO.N,Net-(B4-+)*%
X125324900Y-102600000D03*
%TO.P,SW1,2,B*%
%TO.N,Net-(HBridge1-VDD)*%
X125324900Y-100060000D03*
%TO.P,SW1,3,C*%
%TO.N,unconnected-(SW1-C-Pad3)*%
X125324900Y-105140000D03*
%TD*%
D14*
%TO.P,U2,1,GND*%
%TO.N,Net-(U2-GND)*%
X130000000Y-135260000D03*
D15*
%TO.P,U2,2,VDD*%
%TO.N,Net-(U2-VDD)*%
X132540000Y-135260000D03*
%TO.P,U2,3,SCL*%
%TO.N,Net-(U2-SCL)*%
X130000000Y-137800000D03*
%TO.P,U2,4,SDA*%
%TO.N,Net-(U2-SDA)*%
X132540000Y-137800000D03*
%TD*%
D16*
%TO.P,D1,2,A*%
%TO.N,Net-(D1-A)*%
X117600000Y-97720000D03*
D17*
%TO.P,D1,1,K*%
%TO.N,Net-(D1-K)*%
X117600000Y-107880000D03*
%TD*%
D14*
%TO.P,SW2,1*%
%TO.N,unconnected-(U4-D1-Pad2)*%
X118900000Y-135225000D03*
D15*
%TO.P,SW2,2*%
%TO.N,unconnected-(U4-D2-Pad3)*%
X118900000Y-137765000D03*
%TD*%
D18*
%TO.P,H1,1*%
%TO.N,Net-(HBridge1-In1)*%
X128798200Y-82100002D03*
%TO.P,H1,2*%
%TO.N,unconnected-(U4-D8-Pad9)*%
X128798200Y-82600001D03*
%TO.P,H1,3*%
%TO.N,Net-(B4--)*%
X128798200Y-83100000D03*
%TO.P,H1,4*%
%TO.N,Net-(HBridge1-Out2)*%
X130500000Y-83100000D03*
%TO.P,H1,5*%
%TO.N,Net-(B4-+)*%
X130500000Y-82600001D03*
%TO.P,H1,6*%
%TO.N,Net-(HBridge1-Out1)*%
X130500000Y-82100002D03*
%TD*%
D19*
%TO.P,C2,1*%
%TO.N,Net-(HBridge1-VDD)*%
X121700000Y-87837500D03*
%TO.P,C2,2*%
%TO.N,Net-(D1-K)*%
X121700000Y-83562500D03*
%TD*%
%TO.P,C1,1*%
%TO.N,Net-(B4-+)*%
X129100000Y-94437500D03*
%TO.P,C1,2*%
%TO.N,Net-(D1-K)*%
X129100000Y-90162500D03*
%TD*%
D14*
%TO.P,B4,1,+*%
%TO.N,Net-(B4-+)*%
X126300000Y-135225000D03*
D15*
%TO.P,B4,2,-*%
%TO.N,Net-(B4--)*%
X126300000Y-137765000D03*
%TD*%
D20*
%TO.P,C4,1*%
%TO.N,Net-(U2-VDD)*%
X120862500Y-77400000D03*
%TO.P,C4,2*%
%TO.N,Net-(U2-GND)*%
X125137500Y-77400000D03*
%TD*%
D21*
%TO.P,F1,1*%
%TO.N,Net-(D1-K)*%
X134120000Y-114490000D03*
%TO.P,F1,2*%
%TO.N,Net-(B4--)*%
X134120000Y-122110000D03*
%TD*%
D11*
%TO.P,R2,1*%
%TO.N,Net-(D2-A)*%
X126835100Y-128800000D03*
D12*
%TO.P,R2,2*%
%TO.N,Net-(U4-D0)*%
X134455100Y-128800000D03*
%TD*%
D14*
%TO.P,M1,1,+*%
%TO.N,Net-(HBridge1-Out1)*%
X122600000Y-135225000D03*
D15*
%TO.P,M1,2,-*%
%TO.N,Net-(HBridge1-Out2)*%
X122600000Y-137765000D03*
%TD*%
D16*
%TO.P,D2,2,A*%
%TO.N,Net-(D2-A)*%
X121700000Y-97720000D03*
D17*
%TO.P,D2,1,K*%
%TO.N,Net-(D1-A)*%
X121700000Y-107880000D03*
%TD*%
D11*
%TO.P,R3,1*%
%TO.N,Net-(U2-VDD)*%
X134455100Y-131900000D03*
D12*
%TO.P,R3,2*%
%TO.N,Net-(U2-SDA)*%
X126835100Y-131900000D03*
%TD*%
D19*
%TO.P,C3,1*%
%TO.N,Net-(D1-K)*%
X121700000Y-94437500D03*
%TO.P,C3,2*%
%TO.N,Net-(HBridge1-VDD)*%
X121700000Y-90162500D03*
%TD*%
D22*
%TO.N,unconnected-(U4-D1-Pad2)*%
X120000000Y-118600000D03*
%TO.N,unconnected-(U4-D2-Pad3)*%
X118600000Y-118600000D03*
%TO.N,unconnected-(U4-D1-Pad2)*%
X121600000Y-100300000D03*
%TO.N,unconnected-(U4-D2-Pad3)*%
X119100000Y-100600000D03*
%TO.N,Net-(B4-+)*%
X131400000Y-80500000D03*
X126600000Y-95800000D03*
%TO.N,unconnected-(U4-D8-Pad9)*%
X126000000Y-81800000D03*
%TO.N,Net-(HBridge1-In1)*%
X126000000Y-80600000D03*
%TO.N,Net-(HBridge1-Out1)*%
X123000000Y-79200000D03*
%TO.N,Net-(HBridge1-Out2)*%
X135900000Y-96200000D03*
%TO.N,Net-(HBridge1-Out1)*%
X120800000Y-135200000D03*
%TO.N,Net-(U4-D0)*%
X131900000Y-122700000D03*
X131900000Y-100600000D03*
%TO.N,Net-(HBridge1-VDD)*%
X124400000Y-90200000D03*
X123700000Y-100000000D03*
%TO.N,Net-(U2-GND)*%
X127100000Y-77400000D03*
%TO.N,Net-(U2-VDD)*%
X120862500Y-80462500D03*
%TO.N,Net-(U2-SCL)*%
X117000000Y-123200000D03*
%TO.N,Net-(D2-A)*%
X119780000Y-97720000D03*
%TO.N,Net-(D1-K)*%
X129700000Y-88300000D03*
%TO.N,Net-(B4-+)*%
X129700000Y-98000000D03*
%TD*%
D23*
%TO.N,Net-(U2-SDA)*%
X119300000Y-89332900D02*
X117957500Y-87990400D01*
X119300000Y-95200000D02*
X119300000Y-89332900D01*
X120000000Y-95900000D02*
X119300000Y-95200000D01*
X122558467Y-95900000D02*
X120000000Y-95900000D01*
X126310300Y-99651833D02*
X122558467Y-95900000D01*
X126310300Y-100232228D02*
X126310300Y-99651833D01*
X132625000Y-122399695D02*
X130975000Y-120749695D01*
X135580100Y-125743704D02*
X132625000Y-122788604D01*
X134225000Y-130775000D02*
X135580100Y-129419900D01*
X132625000Y-122788604D02*
X132625000Y-122399695D01*
X130975000Y-120749695D02*
X130975000Y-104896927D01*
X133989109Y-130775000D02*
X134225000Y-130775000D01*
X135580100Y-129419900D02*
X135580100Y-125743704D01*
X130975000Y-104896927D02*
X126310300Y-100232228D01*
%TO.N,Net-(U2-SCL)*%
X115400000Y-93087900D02*
X117957500Y-90530400D01*
X115400000Y-121600000D02*
X115400000Y-93087900D01*
X117000000Y-123200000D02*
X115400000Y-121600000D01*
%TO.N,Net-(U2-GND)*%
X130287100Y-77400000D02*
X133257500Y-80370400D01*
X127100000Y-77400000D02*
X130287100Y-77400000D01*
%TO.N,Net-(U2-VDD)*%
X122962500Y-75300000D02*
X120862500Y-77400000D01*
X132264351Y-75300000D02*
X122962500Y-75300000D01*
X134344500Y-77380149D02*
X132264351Y-75300000D01*
X134344500Y-81823400D02*
X134344500Y-77380149D01*
X133257500Y-82910400D02*
X134344500Y-81823400D01*
%TO.N,Net-(HBridge1-Out1)*%
X128274998Y-79875000D02*
X130500000Y-82100002D01*
X123675000Y-79875000D02*
X128274998Y-79875000D01*
X123000000Y-79200000D02*
X123675000Y-79875000D01*
%TO.N,Net-(HBridge1-In1)*%
X127500002Y-82100002D02*
X128798200Y-82100002D01*
X126000000Y-80600000D02*
X127500002Y-82100002D01*
%TO.N,unconnected-(U4-D8-Pad9)*%
X126800001Y-82600001D02*
X128798200Y-82600001D01*
X126000000Y-81800000D02*
X126800001Y-82600001D01*
%TO.N,Net-(B4-+)*%
X131400000Y-82370702D02*
X131400000Y-80500000D01*
X131170701Y-82600001D02*
X131400000Y-82370702D01*
X130500000Y-82600001D02*
X131170701Y-82600001D01*
%TO.N,Net-(HBridge1-Out2)*%
X130500000Y-86700000D02*
X132100000Y-88300000D01*
X130500000Y-83100000D02*
X130500000Y-86700000D01*
X132100000Y-90950000D02*
X132100000Y-88300000D01*
%TO.N,Net-(B4--)*%
X128798200Y-83100000D02*
X128798200Y-85648200D01*
X128798200Y-85648200D02*
X131650000Y-88500000D01*
X131650000Y-99324695D02*
X131650000Y-88500000D01*
D24*
%TO.N,Net-(D2-A)*%
X115975000Y-97152968D02*
X115975000Y-117939900D01*
X115975000Y-117939900D02*
X126835100Y-128800000D01*
X119780000Y-97707968D02*
X118242032Y-96170000D01*
X116957968Y-96170000D02*
X115975000Y-97152968D01*
X119780000Y-97720000D02*
X119780000Y-97707968D01*
X118242032Y-96170000D02*
X116957968Y-96170000D01*
D23*
%TO.N,Net-(U2-SDA)*%
X126835100Y-131900000D02*
X127510100Y-131225000D01*
X127510100Y-131225000D02*
X133539109Y-131225000D01*
X133539109Y-131225000D02*
X133989109Y-130775000D01*
D24*
%TO.N,Net-(HBridge1-VDD)*%
X130400000Y-128973372D02*
X130400000Y-105135100D01*
X118835100Y-130100000D02*
X129273372Y-130100000D01*
X129273372Y-130100000D02*
X130400000Y-128973372D01*
X130400000Y-105135100D02*
X125324900Y-100060000D01*
X117035100Y-131900000D02*
X118835100Y-130100000D01*
%TO.N,Net-(D1-K)*%
X125174633Y-83562500D02*
X129700000Y-88087867D01*
X121700000Y-83562500D02*
X125174633Y-83562500D01*
X129700000Y-88087867D02*
X129700000Y-88300000D01*
D23*
%TO.N,Net-(U4-D0)*%
X131200000Y-88774695D02*
X131200000Y-99900000D01*
X124875305Y-82450000D02*
X131200000Y-88774695D01*
X117957500Y-80370400D02*
X120037100Y-82450000D01*
X120037100Y-82450000D02*
X124875305Y-82450000D01*
X131200000Y-99900000D02*
X131900000Y-100600000D01*
%TO.N,Net-(B4-+)*%
X129700000Y-98000000D02*
X129700000Y-94437500D01*
%TO.N,unconnected-(U4-D2-Pad3)*%
X118600000Y-118600000D02*
X118700000Y-118500000D01*
%TO.N,unconnected-(U4-D1-Pad2)*%
X119550000Y-118150000D02*
X120000000Y-118600000D01*
X119550000Y-118100000D02*
X119550000Y-118150000D01*
%TO.N,unconnected-(U4-D2-Pad3)*%
X119100000Y-118100000D02*
X118600000Y-118600000D01*
%TO.N,unconnected-(U4-D1-Pad2)*%
X119550000Y-102350000D02*
X119550000Y-118100000D01*
X121600000Y-100300000D02*
X119550000Y-102350000D01*
%TO.N,unconnected-(U4-D2-Pad3)*%
X119100000Y-100600000D02*
X119100000Y-118100000D01*
%TO.N,Net-(B4--)*%
X134120000Y-120220000D02*
X132625000Y-118725000D01*
X132625000Y-100299695D02*
X131650000Y-99324695D01*
X134120000Y-122110000D02*
X134120000Y-120220000D01*
X132625000Y-118725000D02*
X132625000Y-100299695D01*
%TO.N,Net-(HBridge1-Out2)*%
X135900000Y-94175649D02*
X133341751Y-91617400D01*
X133341751Y-91617400D02*
X132767400Y-91617400D01*
X132767400Y-91617400D02*
X132100000Y-90950000D01*
X135900000Y-96200000D02*
X135900000Y-94175649D01*
%TO.N,Net-(B4-+)*%
X127737500Y-95800000D02*
X126600000Y-95800000D01*
X129100000Y-94437500D02*
X127737500Y-95800000D01*
%TO.N,Net-(U2-SCL)*%
X115900000Y-129925100D02*
X117025100Y-128800000D01*
X124500000Y-135700000D02*
X124500000Y-134600000D01*
X124500000Y-134600000D02*
X123950000Y-134050000D01*
X123950000Y-134050000D02*
X116950000Y-134050000D01*
X125200000Y-136400000D02*
X124500000Y-135700000D01*
X116950000Y-134050000D02*
X115900000Y-133000000D01*
X115900000Y-133000000D02*
X115900000Y-129925100D01*
X128600000Y-136400000D02*
X125200000Y-136400000D01*
X130000000Y-137800000D02*
X128600000Y-136400000D01*
%TO.N,Net-(U2-VDD)*%
X124645100Y-128800000D02*
X123520100Y-127675000D01*
X117915000Y-136590000D02*
X123463299Y-136590000D01*
X123520100Y-127675000D02*
X116559109Y-127675000D01*
X116559109Y-127675000D02*
X115450000Y-128784109D01*
X115450000Y-128784109D02*
X115450000Y-134125000D01*
X123463299Y-136590000D02*
X125848299Y-138975000D01*
X115450000Y-134125000D02*
X117915000Y-136590000D01*
X125848299Y-138975000D02*
X130490000Y-138975000D01*
X130490000Y-138975000D02*
X131365000Y-138100000D01*
X131365000Y-138100000D02*
X131365000Y-136435000D01*
X131365000Y-136435000D02*
X132540000Y-135260000D01*
D24*
%TO.N,Net-(HBridge1-VDD)*%
X123700000Y-100000000D02*
X125264900Y-100000000D01*
X125264900Y-100000000D02*
X125324900Y-100060000D01*
D23*
%TO.N,Net-(HBridge1-Out1)*%
X120825000Y-135225000D02*
X120800000Y-135200000D01*
X122600000Y-135225000D02*
X120825000Y-135225000D01*
%TO.N,Net-(U4-D0)*%
X134455100Y-125255100D02*
X131900000Y-122700000D01*
X134455100Y-128800000D02*
X134455100Y-125255100D01*
D24*
%TO.N,Net-(HBridge1-VDD)*%
X124362500Y-90162500D02*
X121700000Y-90162500D01*
X124400000Y-90200000D02*
X124362500Y-90162500D01*
D23*
%TO.N,Net-(U2-GND)*%
X125137500Y-77400000D02*
X127100000Y-77400000D01*
%TO.N,Net-(U2-VDD)*%
X120862500Y-80462500D02*
X120862500Y-77400000D01*
%TO.N,Net-(U2-SDA)*%
X135580100Y-134759900D02*
X132540000Y-137800000D01*
X135580100Y-131434009D02*
X135580100Y-134759900D01*
X134921091Y-130775000D02*
X135580100Y-131434009D01*
X133989109Y-130775000D02*
X134921091Y-130775000D01*
%TO.N,Net-(U2-VDD)*%
X134455100Y-133344900D02*
X134455100Y-131900000D01*
X132540000Y-135260000D02*
X134455100Y-133344900D01*
%TO.N,Net-(U4-D0)*%
X125780100Y-130775000D02*
X124655100Y-131900000D01*
X132480100Y-130775000D02*
X125780100Y-130775000D01*
X134455100Y-128800000D02*
X132480100Y-130775000D01*
D24*
%TO.N,Net-(D1-K)*%
X125425000Y-94437500D02*
X129700000Y-90162500D01*
X121700000Y-94437500D02*
X125425000Y-94437500D01*
%TO.N,Net-(HBridge1-VDD)*%
X121700000Y-87837500D02*
X121700000Y-90162500D01*
%TO.N,Net-(D1-K)*%
X129700000Y-88300000D02*
X129700000Y-90162500D01*
%TD*%
M02*
